<svg width="17" height="18" viewBox="0 0 17 18" fill="none" xmlns="http://www.w3.org/2000/svg">
<path fill-rule="evenodd" clip-rule="evenodd" d="M8.90476 1.61905C7.61657 1.61905 6.38113 2.13078 5.47024 3.04167C4.55935 3.95256 4.04762 5.188 4.04762 6.47619V10.5238C4.04762 11.0971 3.89557 11.6548 3.61381 12.1429H14.1957C13.914 11.6548 13.7619 11.0971 13.7619 10.5238V6.47619C13.7619 5.188 13.2502 3.95256 12.3393 3.04167C11.4284 2.13078 10.193 1.61905 8.90476 1.61905ZM17 12.1429C16.5706 12.1429 16.1588 11.9723 15.8552 11.6687C15.5515 11.365 15.381 10.9532 15.381 10.5238V6.47619C15.381 4.7586 14.6986 3.11135 13.4841 1.89683C12.2696 0.682311 10.6224 0 8.90476 0C7.18717 0 5.53993 0.682311 4.3254 1.89683C3.11088 3.11135 2.42857 4.7586 2.42857 6.47619V10.5238C2.42857 10.9532 2.25799 11.365 1.95436 11.6687C1.65073 11.9723 1.23892 12.1429 0.809524 12.1429C0.362436 12.1429 0 12.5053 0 12.9524C0 13.3995 0.362436 13.7619 0.809524 13.7619H17V12.1429ZM7.09809 15.4902C7.48482 15.2659 7.98019 15.3976 8.20452 15.7843C8.27569 15.907 8.37783 16.0088 8.50072 16.0796C8.62361 16.1504 8.76294 16.1876 8.90476 16.1876C9.04658 16.1876 9.18591 16.1504 9.30881 16.0796C9.4317 16.0088 9.53384 15.907 9.605 15.7843C9.82934 15.3976 10.3247 15.2659 10.7114 15.4902C11.0982 15.7146 11.2298 16.2099 11.0055 16.5967C10.792 16.9647 10.4856 17.2702 10.1169 17.4825C9.74822 17.6949 9.33022 17.8067 8.90476 17.8067C8.4793 17.8067 8.06131 17.6949 7.69263 17.4825C7.32395 17.2702 7.01753 16.9647 6.80405 16.5967C6.57971 16.2099 6.71136 15.7146 7.09809 15.4902Z" fill="#22333A"/>
</svg>
