<svg width="26" height="28" viewBox="0 0 26 28" fill="none" xmlns="http://www.w3.org/2000/svg">
<path d="M6.75736 9.75736C7.88258 8.63214 9.4087 8 11 8V6C8.87827 6 6.84344 6.84285 5.34315 8.34315C3.84285 9.84344 3 11.8783 3 14V19C3 19.5304 2.78929 20.0391 2.41421 20.4142C2.03914 20.7893 1.53043 21 1 21C0.447715 21 0 21.4477 0 22C0 22.5523 0.447715 23 1 23H11V21H4.46411C4.81218 20.3971 5 19.7082 5 19V14C5 12.4087 5.63214 10.8826 6.75736 9.75736Z" fill="#3D3D3D"/>
<path d="M10.135 25.4982C9.85788 25.0205 9.24595 24.8579 8.76823 25.135C8.2905 25.4121 8.12788 26.024 8.405 26.5018C8.66872 26.9564 9.04724 27.3337 9.50266 27.5961C9.95809 27.8584 10.4744 27.9965 11 27.9965V25.9965C10.8248 25.9965 10.6527 25.9504 10.5009 25.863C10.3491 25.7756 10.2229 25.6498 10.135 25.4982Z" fill="#3D3D3D"/>
<path d="M15.2426 9.75736C14.1174 8.63214 12.5913 8 11 8V6C13.1217 6 15.1566 6.84285 16.6569 8.34315C18.1571 9.84344 19 11.8783 19 14V19C19 19.5304 19.2107 20.0391 19.5858 20.4142C19.9609 20.7893 20.4696 21 21 21C21.5523 21 22 21.4477 22 22C22 22.5523 21.5523 23 21 23H11V21H17.5359C17.1878 20.3971 17 19.7082 17 19V14C17 12.4087 16.3679 10.8826 15.2426 9.75736Z" fill="#3D3D3D"/>
<path d="M11.865 25.4982C12.1421 25.0205 12.754 24.8579 13.2318 25.135C13.7095 25.4121 13.8721 26.024 13.595 26.5018C13.3313 26.9564 12.9528 27.3337 12.4973 27.5961C12.0419 27.8584 11.5256 27.9965 11 27.9965V25.9965C11.1752 25.9965 11.3473 25.9504 11.4991 25.863C11.6509 25.7756 11.7771 25.6498 11.865 25.4982Z" fill="#3D3D3D"/>
<circle cx="17.5" cy="8.5" r="7.5" fill="#EE3424" stroke="white" stroke-width="2"/>
</svg>
