<svg width="24" height="26" viewBox="0 0 24 26" fill="none" xmlns="http://www.w3.org/2000/svg">
<path d="M6.75736 7.75736C7.88258 6.63214 9.4087 6 11 6V4C8.87827 4 6.84344 4.84285 5.34315 6.34315C3.84285 7.84344 3 9.87827 3 12V17C3 17.5304 2.78929 18.0391 2.41421 18.4142C2.03914 18.7893 1.53043 19 1 19C0.447715 19 0 19.4477 0 20C0 20.5523 0.447715 21 1 21H11V19H4.46411C4.81218 18.3971 5 17.7082 5 17V12C5 10.4087 5.63214 8.88258 6.75736 7.75736Z" fill="white"/>
<path d="M10.135 23.4982C9.85788 23.0205 9.24595 22.8579 8.76823 23.135C8.2905 23.4121 8.12788 24.024 8.405 24.5018C8.66872 24.9564 9.04724 25.3337 9.50266 25.5961C9.95809 25.8584 10.4744 25.9965 11 25.9965V23.9965C10.8248 23.9965 10.6527 23.9504 10.5009 23.863C10.3491 23.7756 10.2229 23.6498 10.135 23.4982Z" fill="white"/>
<path d="M15.2426 7.75736C14.1174 6.63214 12.5913 6 11 6V4C13.1217 4 15.1566 4.84285 16.6569 6.34315C18.1571 7.84344 19 9.87827 19 12V17C19 17.5304 19.2107 18.0391 19.5858 18.4142C19.9609 18.7893 20.4696 19 21 19C21.5523 19 22 19.4477 22 20C22 20.5523 21.5523 21 21 21H11V19H17.5359C17.1878 18.3971 17 17.7082 17 17V12C17 10.4087 16.3679 8.88258 15.2426 7.75736Z" fill="white"/>
<path d="M11.865 23.4982C12.1421 23.0205 12.754 22.8579 13.2318 23.135C13.7095 23.4121 13.8721 24.024 13.595 24.5018C13.3313 24.9564 12.9528 25.3337 12.4973 25.5961C12.0419 25.8584 11.5256 25.9965 11 25.9965V23.9965C11.1752 23.9965 11.3473 23.9504 11.4991 23.863C11.6509 23.7756 11.7771 23.6498 11.865 23.4982Z" fill="white"/>
<circle cx="17.5" cy="6.5" r="6.5" fill="#EE3424"/>
</svg>
