<svg width="287" height="172" viewBox="0 0 287 172" fill="none" xmlns="http://www.w3.org/2000/svg">
<mask id="mask0_1215_1037" style="mask-type:alpha" maskUnits="userSpaceOnUse" x="0" y="0" width="287" height="172">
<path d="M0 0H287V172H0V0Z" fill="white"/>
</mask>
<g mask="url(#mask0_1215_1037)">
<path d="M-521 0H287V172H-521V0Z" fill="white"/>
<circle cx="213" cy="230" r="220" fill="#FFC700"/>
<path d="M13.0823 59.5458L9.13731 60.6493M27.5473 55.4997L23.6023 56.6032M15.7675 48.8695L16.871 52.8145M19.8136 63.3345L20.9171 67.2795" stroke="#EAEAEA" stroke-width="3" stroke-linecap="round"/>
<path d="M38.8858 141.654L36.2558 142.39M52.0358 137.976L49.4058 138.712M41.9388 132.293L42.6745 134.923M45.6171 145.443L46.3528 148.073" stroke="#EAEAEA" stroke-width="3" stroke-linecap="round"/>
<path d="M49.3637 113.205L46.7337 113.94M59.8837 110.262L57.2537 110.998M51.4695 105.526L52.2052 108.156M54.4122 116.046L55.1478 118.676" stroke="#EAEAEA" stroke-width="3" stroke-linecap="round"/>
<circle cx="4.77916" cy="4.77916" r="4.77916" transform="matrix(0.269379 0.963034 0.963034 -0.269379 50.4375 20.7402)" stroke="#EAEAEA" stroke-width="3" stroke-linecap="round" stroke-linejoin="round"/>
<path d="M124.694 58.1017C116.914 40.4274 118.022 26.6476 127.177 16.2885M111.544 61.7801L90.244 20.9477M82.4987 6.09954L84.435 9.81158M98.6556 68.9298L74.3543 55.5522M8.99219 19.5713L10.7001 20.5115M24.9137 28.3359L56.7568 45.8651M63.6442 49.6565L67.6505 51.8619M101.097 85.2615L78.8902 84.4405M29.4619 82.613L32.3273 82.719M45.2217 83.1957L70.294 84.1227M102.329 99.8046C89.4916 100.578 80.9166 103.678 76.9793 111.858M74.7374 120.284C74.8201 119.519 74.9243 118.781 75.05 118.069" stroke="#EAEAEA" stroke-width="3" stroke-linecap="round" stroke-linejoin="round"/>
<circle cx="2.04821" cy="2.04821" r="2.04821" transform="matrix(0.269379 0.963034 0.963034 -0.269379 105.301 3.97559)" stroke="#EAEAEA" stroke-width="3" stroke-linecap="round" stroke-linejoin="round"/>
<circle cx="1.36547" cy="1.36547" r="1.36547" transform="matrix(0.269379 0.963034 0.963034 -0.269379 133.596 8.82227)" stroke="#EAEAEA" stroke-width="3" stroke-linecap="round" stroke-linejoin="round"/>
<path d="M254.267 5.92796L254.837 4.24076M251.418 14.3639L251.988 12.6767M258.189 11.0118L256.502 10.442M249.753 8.16272L248.066 7.59291" stroke="#EAEAEA" stroke-width="3" stroke-linecap="round" stroke-linejoin="round"/>
<path d="M265.745 22.0244L266.315 20.3372M263.466 28.7731L264.036 27.086M269.109 25.9797L267.421 25.4099M262.36 23.7005L260.673 23.1306" stroke="#EAEAEA" stroke-width="3" stroke-linecap="round" stroke-linejoin="round"/>
<path d="M267.763 82.8519C280.143 85.1533 287.16 90.8124 289.378 99.5501M270.612 74.4158L300.435 77.9406M311.28 79.2223L308.569 78.9019M271.494 64.8457L287.629 56.6675M331.025 34.6709L329.891 35.2457M320.454 40.029L299.313 50.7453M294.74 53.0632L292.08 54.4115M261.798 60.1615L270.399 48.4989M289.541 22.5402L288.431 24.045M283.438 30.8169L273.728 43.9843M253.51 55.4828C257.81 48.2821 259.29 42.5236 256.329 37.3972M252.613 33.0941C252.995 33.4196 253.354 33.7468 253.691 34.076" stroke="#EAEAEA" stroke-width="3" stroke-linecap="round" stroke-linejoin="round"/>
<circle cx="0.890407" cy="0.890407" r="0.890407" transform="matrix(-0.947427 -0.319972 -0.319972 0.947427 291.041 105.751)" stroke="#EAEAEA" stroke-width="3" stroke-linecap="round" stroke-linejoin="round"/>
<rect x="137" y="137" width="142" height="22" rx="10" fill="#FF9900"/>
<path d="M236.453 150H150.766C146.858 150 143.689 146.852 143.689 142.969V119.426V79.8369H243.529V113.97V142.969C243.529 146.852 240.361 150 236.453 150Z" fill="#30DDF9"/>
<path d="M147.008 139.57H240.401M147.008 129.141H240.401M198.682 118.237H240.401M205.793 107.333H225.23M160.756 107.333H180.193M153.171 118.237H188.726M160.756 96.4295H180.193M236.453 150H150.766C146.858 150 143.689 146.852 143.689 142.969V119.426V79.8369H243.529V113.97V142.969C243.529 146.852 240.361 150 236.453 150Z" stroke="#36CCED" stroke-width="6" stroke-linecap="round"/>
<path d="M155.067 150H150.326C146.661 150 143.689 147.028 143.689 143.363V143.363V117.763" stroke="#61ECFF" stroke-width="6" stroke-linecap="round"/>
<path d="M248.933 104.932V83.9497C248.933 75.629 242.144 68.8838 233.768 68.8838H193.467H165.733H153.165C144.79 68.8838 138 75.629 138 83.9497V110.443C138 114.881 141.621 118.478 146.088 118.478H149.066C155.208 118.478 160.187 113.532 160.187 107.43V95.9203C160.187 89.8336 165.153 84.8994 171.28 84.8994C177.407 84.8994 182.373 89.8336 182.373 95.9203V107.457C182.373 113.544 187.34 118.478 193.467 118.478H194.852C200.214 118.478 204.56 114.16 204.56 108.833V104.7C204.56 98.6135 209.527 93.6793 215.653 93.6793C221.78 93.6793 226.747 98.6135 226.747 104.7C226.747 109.266 230.472 112.968 235.068 112.968H240.845C245.312 112.968 248.933 109.37 248.933 104.932Z" fill="#FF7960" stroke="#FF6046" stroke-width="6" stroke-linecap="round"/>
<path d="M143.689 100.697V84.1484C143.689 78.6256 148.167 74.1484 153.689 74.1484H156.964" stroke="#FF9582" stroke-width="6" stroke-linecap="round"/>
<path d="M182.562 97.8516V106.763C182.562 112.838 187.487 117.763 193.563 117.763H193.94" stroke="#FF9582" stroke-width="6" stroke-linecap="round"/>
<path d="M227.125 105.437V105.06C227.125 98.9844 222.2 94.0596 216.125 94.0596H215.747" stroke="#FF9582" stroke-width="6" stroke-linecap="round"/>
<path d="M243.244 88.3708V85.0967C243.244 79.5738 238.767 75.0967 233.244 75.0967H232.815" stroke="#FF8D78" stroke-width="6" stroke-linecap="round"/>
<path d="M162.652 66.0387V55.1069M190.386 66.0387V44.0859M218.119 65.9943V55.0625" stroke="#FFFA7D" stroke-width="6" stroke-linecap="round"/>
<path d="M165.496 66.0387V55.1069M193.229 66.0387V44.0859M220.963 65.9943V55.0625" stroke="#F8CE52" stroke-width="6" stroke-linecap="round"/>
<path d="M193.229 27.5105V22M220.963 38.5314V33.021M165.496 38.5314V33.021" stroke="#FF6046" stroke-width="6" stroke-linecap="round"/>
</g>
</svg>
