<svg width="22" height="24" viewBox="0 0 22 24" fill="none" xmlns="http://www.w3.org/2000/svg">
<path d="M2 18.2581V20.5081C2 21.6126 2.89543 22.5081 4 22.5081H18C19.1046 22.5081 20 21.6126 20 20.5081V17.5081" stroke="#FFC700" stroke-width="2" stroke-linecap="round"/>
<path d="M11 9.50806H4C2.34315 9.50806 1 10.8512 1 12.5081V16.5081C1 17.6126 1.89543 18.5081 3 18.5081V18.5081C4.10457 18.5081 5 17.6126 5 16.5081V15.5081C5 14.4035 5.89543 13.5081 7 13.5081V13.5081C8.10457 13.5081 9 14.4035 9 15.5081V16.5081C9 17.6126 9.89543 18.5081 11 18.5081H12.25C12.6642 18.5081 13 18.1723 13 17.7581V17.5081C13 16.4035 13.8954 15.5081 15 15.5081H15.2857C16.2325 15.5081 17 16.2756 17 17.2223V17.2223C17 17.3801 17.1279 17.5081 17.2857 17.5081H19C20.1046 17.5081 21 16.6126 21 15.5081V12.5081C21 10.8512 19.6569 9.50806 18 9.50806H11ZM11 9.50806V5.00806M6 9.50806V7.00806M16 9.5V7M11 2V1M16 4V3M6 4V3" stroke="#FFC700" stroke-width="2" stroke-linecap="round"/>
</svg>
