<svg width="20" height="18" viewBox="0 0 20 18" fill="none" xmlns="http://www.w3.org/2000/svg">
<path fill-rule="evenodd" clip-rule="evenodd" d="M3 2C2.44772 2 2 2.44772 2 3V15C2 15.5523 2.44772 16 3 16H17C17.5523 16 18 15.5523 18 15V3C18 2.44772 17.5523 2 17 2H3ZM0 3C0 1.34315 1.34315 0 3 0H17C18.6569 0 20 1.34315 20 3V15C20 16.6569 18.6569 18 17 18H3C1.34315 18 0 16.6569 0 15V3Z" fill="#277D59"/>
<path fill-rule="evenodd" clip-rule="evenodd" d="M6.5 6C6.22386 6 6 6.22386 6 6.5C6 6.77614 6.22386 7 6.5 7C6.77614 7 7 6.77614 7 6.5C7 6.22386 6.77614 6 6.5 6ZM4 6.5C4 5.11929 5.11929 4 6.5 4C7.88071 4 9 5.11929 9 6.5C9 7.88071 7.88071 9 6.5 9C5.11929 9 4 7.88071 4 6.5Z" fill="#277D59"/>
<path fill-rule="evenodd" clip-rule="evenodd" d="M13.2929 7.29289C13.6834 6.90237 14.3166 6.90237 14.7071 7.29289L19.7071 12.2929C20.0976 12.6834 20.0976 13.3166 19.7071 13.7071C19.3166 14.0976 18.6834 14.0976 18.2929 13.7071L14 9.41421L3.70711 17.7071C3.31658 18.0976 2.68342 18.0976 2.29289 17.7071C1.90237 17.3166 1.90237 16.6834 2.29289 16.2929L13.2929 7.29289Z" fill="#277D59"/>
</svg>
