<svg width="18" height="19" viewBox="0 0 18 19" fill="none" xmlns="http://www.w3.org/2000/svg">
<path fill-rule="evenodd" clip-rule="evenodd" d="M3 4C2.44772 4 2 4.44772 2 5V16C2 16.5523 2.44772 17 3 17H15C15.5523 17 16 16.5523 16 16V5C16 4.44772 15.5523 4 15 4H3ZM0 5C0 3.34315 1.34315 2 3 2H15C16.6569 2 18 3.34315 18 5V16C18 17.6569 16.6569 19 15 19H3C1.34315 19 0 17.6569 0 16V5Z" fill="#3D3D3D"/>
<path fill-rule="evenodd" clip-rule="evenodd" d="M13 0C13.5523 0 14 0.447715 14 1V4C14 4.55228 13.5523 5 13 5C12.4477 5 12 4.55228 12 4V1C12 0.447715 12.4477 0 13 0Z" fill="#3D3D3D"/>
<path fill-rule="evenodd" clip-rule="evenodd" d="M5 0C5.55228 0 6 0.447715 6 1V4C6 4.55228 5.55228 5 5 5C4.44772 5 4 4.55228 4 4V1C4 0.447715 4.44772 0 5 0Z" fill="#3D3D3D"/>
<path fill-rule="evenodd" clip-rule="evenodd" d="M0 7C0 6.44772 0.447715 6 1 6H17C17.5523 6 18 6.44772 18 7C18 7.55228 17.5523 8 17 8H1C0.447715 8 0 7.55228 0 7Z" fill="#3D3D3D"/>
<path fill-rule="evenodd" clip-rule="evenodd" d="M7.5 10C7.5 9.44772 7.94772 9 8.5 9H9.5C10.0523 9 10.5 9.44772 10.5 10C10.5 10.5523 10.0523 11 9.5 11H8.5C7.94772 11 7.5 10.5523 7.5 10Z" fill="#3D3D3D"/>
<path fill-rule="evenodd" clip-rule="evenodd" d="M12 10C12 9.44772 12.4477 9 13 9H14C14.5523 9 15 9.44772 15 10C15 10.5523 14.5523 11 14 11H13C12.4477 11 12 10.5523 12 10Z" fill="#3D3D3D"/>
<path fill-rule="evenodd" clip-rule="evenodd" d="M3 14C3 13.4477 3.44772 13 4 13H5C5.55228 13 6 13.4477 6 14C6 14.5523 5.55228 15 5 15H4C3.44772 15 3 14.5523 3 14Z" fill="#3D3D3D"/>
<path fill-rule="evenodd" clip-rule="evenodd" d="M7.5 14C7.5 13.4477 7.94772 13 8.5 13H9.5C10.0523 13 10.5 13.4477 10.5 14C10.5 14.5523 10.0523 15 9.5 15H8.5C7.94772 15 7.5 14.5523 7.5 14Z" fill="#3D3D3D"/>
<path fill-rule="evenodd" clip-rule="evenodd" d="M3 10C3 9.44772 3.44772 9 4 9H5C5.55228 9 6 9.44772 6 10C6 10.5523 5.55228 11 5 11H4C3.44772 11 3 10.5523 3 10Z" fill="#3D3D3D"/>
</svg>
