<svg width="20" height="20" viewBox="0 0 20 20" fill="none" xmlns="http://www.w3.org/2000/svg">
<path fill-rule="evenodd" clip-rule="evenodd" d="M2.50002 11.667C2.96026 11.667 3.33335 12.0401 3.33335 12.5003V15.8337C3.33335 16.0547 3.42115 16.2666 3.57743 16.4229C3.73371 16.5792 3.94567 16.667 4.16669 16.667H15.8334C16.0544 16.667 16.2663 16.5792 16.4226 16.4229C16.5789 16.2666 16.6667 16.0547 16.6667 15.8337V12.5003C16.6667 12.0401 17.0398 11.667 17.5 11.667C17.9603 11.667 18.3334 12.0401 18.3334 12.5003V15.8337C18.3334 16.4967 18.07 17.1326 17.6011 17.6014C17.1323 18.0703 16.4964 18.3337 15.8334 18.3337H4.16669C3.50365 18.3337 2.86776 18.0703 2.39892 17.6014C1.93008 17.1326 1.66669 16.4967 1.66669 15.8337V12.5003C1.66669 12.0401 2.03978 11.667 2.50002 11.667Z" fill="#22333A"/>
<path fill-rule="evenodd" clip-rule="evenodd" d="M5.24408 7.74408C5.56951 7.41864 6.09715 7.41864 6.42259 7.74408L10 11.3215L13.5774 7.74408C13.9028 7.41864 14.4305 7.41864 14.7559 7.74408C15.0814 8.06951 15.0814 8.59715 14.7559 8.92259L10.5893 13.0893C10.2638 13.4147 9.73618 13.4147 9.41074 13.0893L5.24408 8.92259C4.91864 8.59715 4.91864 8.06951 5.24408 7.74408Z" fill="#22333A"/>
<path fill-rule="evenodd" clip-rule="evenodd" d="M10 1.66699C10.4603 1.66699 10.8334 2.04009 10.8334 2.50033V12.5003C10.8334 12.9606 10.4603 13.3337 10 13.3337C9.53978 13.3337 9.16669 12.9606 9.16669 12.5003V2.50033C9.16669 2.04009 9.53978 1.66699 10 1.66699Z" fill="#22333A"/>
</svg>
