<svg width="668" height="629" viewBox="0 0 668 629" fill="none" xmlns="http://www.w3.org/2000/svg">
<path opacity="0.05" d="M-69.402 664.898C-71.0099 650.164 -68.8423 630.855 -63.387 611.538C-57.9296 592.213 -49.1443 572.746 -37.4083 557.729L-37.4059 557.727C-25.6557 542.771 -10.6813 531.881 6.22662 533.391C23.1308 534.901 41.2159 548.74 59.3478 581.349L59.859 582.268L59.1688 583.062C33.7033 612.35 16.4492 636.187 3.30304 654.381L2.99823 654.803C-3.43677 663.709 -8.91003 671.285 -13.8809 677.457C-18.9266 683.723 -23.5186 688.626 -28.1594 692.05C-37.4857 698.932 -47.1112 699.865 -54.8568 694.881C-62.4814 689.974 -67.827 679.606 -69.402 664.898ZM-69.402 664.898L-67.9108 664.735M-69.402 664.898C-69.4021 664.897 -69.4022 664.896 -69.4023 664.895L-67.9108 664.735M-67.9108 664.735C-71.0732 635.759 -59.397 588.3 -36.2264 558.653L58.0369 582.078C32.3395 611.633 14.9874 635.649 1.80096 653.899C-11.1951 671.886 -20.145 684.273 -29.0499 690.843C-46.9904 704.081 -64.8093 693.711 -67.9108 664.735ZM-8.8418 440.289L-9.03497 439.386C-11.5803 427.492 -16.6721 417.545 -24.3543 409.612C-31.3118 402.427 -40.3398 396.949 -51.3951 393.149C-21.2566 377.473 -4.31311 357.797 -1.20703 333.995C1.91571 310.066 -9.02826 282.472 -33.4771 251.313C4.88129 251.163 31.3518 240.477 45.2964 218.777C59.3367 196.929 60.3381 164.407 48.8581 121.608C83.9099 124.429 107.167 116.04 117.566 95.6221C122.826 85.295 124.677 72.0785 123.267 56.0859C121.911 40.7211 117.537 22.7038 110.179 2.0517C152.09 11.6939 173.711 35.1575 188.073 63.6741C195.428 78.2787 200.875 94.2049 206.154 110.338C206.735 112.114 207.314 113.893 207.893 115.672C212.565 130.024 217.258 144.438 223.174 157.985L223.174 157.986C228.437 170.009 234.668 181.359 240.678 192.309C242.276 195.219 243.857 198.101 245.401 200.959C252.781 214.621 259.308 227.771 262.778 241.202C266.238 254.594 266.654 268.252 261.797 282.938C256.932 297.649 246.737 313.505 228.786 331.208L228.043 331.941L228.472 332.893C243.433 366.055 257.861 378.701 269.534 381.075C281.355 383.48 289.655 375.262 291.78 368.601L291.782 368.594C293.989 361.565 289.465 356.328 285.46 352.011C285.171 351.699 284.883 351.392 284.599 351.087C282.823 349.187 281.172 347.42 279.954 345.58C278.567 343.484 277.879 341.484 278.211 339.337C278.566 337.043 280.087 334.375 282.006 331.329C282.252 330.938 282.504 330.542 282.759 330.141C284.408 327.549 286.18 324.764 287.206 322.074C288.414 318.909 288.736 315.491 286.38 312.454C284.331 309.812 280.451 307.747 274.256 306.21C281.491 289.549 289.973 273.513 299.648 258.103L300.884 256.134L298.581 255.819C292.618 255.003 286.61 255.224 280.722 256.437C288.174 236.725 301.4 220.231 319.092 208.535L321.301 207.074L318.912 205.931C310.259 201.787 300.807 200.623 291.497 202.479C301.442 186.676 315.042 173.855 331.453 164.861L333.007 164.009L331.91 162.617C324.407 153.095 315.074 145.403 304.347 139.881C323.34 131.632 343.601 127.056 364.355 126.308L365.642 126.262L365.791 124.983C367.897 106.971 367.601 88.8472 364.958 70.9338C375.642 75.2481 382.261 82.044 387.146 89.199C389.776 93.0529 391.9 97.0052 393.899 100.77L394.185 101.308C396.062 104.846 397.865 108.244 399.866 111.09C408.359 123.321 420.168 125.441 432.234 126.908C433.089 127.012 433.945 127.113 434.798 127.213C440.018 127.827 445.167 128.433 449.927 129.769C455.422 131.311 460.242 133.79 463.844 138.256C467.509 142.801 469.976 149.508 472.346 156.594C472.611 157.386 472.875 158.184 473.139 158.982C475.193 165.19 477.277 171.487 480.153 176.165C486.833 187.029 497.521 189.148 516.084 192.352L516.166 192.366C525.573 193.995 536.391 195.869 543.276 205.509C549.857 214.726 553.108 231.455 547.042 263.006C545.084 259.302 542.058 256.295 538.201 254.269C533.315 251.702 527.895 251.158 522.71 252.637C522.005 246.531 518.143 241.544 512.189 239.31C506.303 237.046 500.209 238.142 495.647 242.151C491.72 234.381 484.392 229.567 475.502 229.028C465.922 228.444 457.474 233.076 452.756 241.505L452.057 242.753L453.27 243.51C458.263 246.626 464.025 247.129 469.298 245.031C468.703 249.432 470.005 253.813 473.062 257.312C476.354 261.142 481.008 263.071 485.9 262.722C485.288 267.131 485.38 270.523 486.046 273.131C486.826 276.186 488.393 278.156 490.436 279.348C492.41 280.501 494.689 280.844 496.758 280.966C497.744 281.024 498.726 281.033 499.633 281.041L499.793 281.042C500.762 281.051 501.632 281.063 502.413 281.126L502.426 281.128C505.509 281.35 507.167 282.384 507.993 283.414C508.823 284.449 508.96 285.653 508.701 286.578C508.417 287.452 507.721 288.189 506.275 289.438C506.105 289.585 505.927 289.737 505.743 289.894C504.414 291.03 502.725 292.475 500.913 294.572C500.406 295.159 499.894 295.793 499.384 296.425L499.362 296.453C498.839 297.101 498.313 297.753 497.761 298.396C496.656 299.684 495.492 300.885 494.182 301.834C491.656 303.662 488.484 304.64 483.868 303.042C481.492 302.213 478.717 300.691 475.477 298.735C474.206 297.968 472.85 297.126 471.428 296.243C469.304 294.924 467.032 293.513 464.678 292.126C456.734 287.443 447.261 282.654 436.325 280.717L436.321 280.716C425.458 278.822 412.986 279.738 404.66 284.564C400.457 287 397.233 290.485 395.929 295.164C394.629 299.829 395.305 305.436 398.401 311.993L398.402 311.995C401.492 318.508 407.041 326.096 413.644 334.636C415.333 336.82 417.094 339.07 418.907 341.386C424.222 348.178 429.986 355.542 435.704 363.507C451.035 384.859 465.862 410.293 470.278 439.618C474.669 468.97 468.676 502.375 459.285 534.402C451.851 559.754 442.33 584.114 434.239 604.815C432.111 610.259 430.082 615.45 428.216 620.34C419.267 643.788 414.14 660.163 411.698 671.855C409.264 683.511 409.449 690.725 411.371 695.711C412.339 698.239 413.754 700.213 415.714 701.676C417.657 703.128 420.041 704.006 422.839 704.506C428.366 705.492 435.9 705.053 445.731 704.234L-8.8418 440.289ZM-8.8418 440.289L-9.56061 440.868C-82.2339 499.429 -115.589 551.794 -127.308 595.112C-139.019 638.398 -129.168 672.806 -115.104 695.607L-115.1 695.613C-87.1697 741.386 -42.2746 741.439 -15.3057 741.439H324.358L-8.8418 440.289ZM274.732 703.875C274.01 702.908 274.033 701.782 274.245 700.848C274.456 699.921 274.911 698.913 275.421 697.907C275.769 697.219 276.152 696.511 276.555 695.768C277.395 694.217 278.316 692.515 279.167 690.54C281.606 684.873 283.15 677.569 278.445 668.734L277.603 667.154L279.307 666.602C304.61 658.405 328.703 647.172 351.222 633.084L352.839 632.073L353.441 633.883C357.611 646.431 354.827 659.221 346.131 668.657C355.42 668.064 364.669 669.055 373.591 671.588L375.398 672.102L374.497 673.75C363.059 694.685 357.577 717.757 358.442 741.5H493.664C493.504 731.206 491.698 723.698 488.87 718.235C485.921 712.539 481.825 708.989 477.146 706.797C467.861 702.447 456.232 703.386 446.401 704.18L445.736 704.234L275.938 702.983M274.732 703.875C274.734 703.878 274.737 703.881 274.739 703.884L275.938 702.983M274.732 703.875C274.732 703.875 274.732 703.875 274.732 703.875L275.938 702.983M274.732 703.875C275.402 704.78 276.482 705.225 277.558 705.48C278.674 705.745 280.079 705.873 281.73 705.923C284.849 706.019 289.161 705.844 294.694 705.62L295.694 705.58L295.642 704.081M275.938 702.983C277.299 704.823 283.209 704.584 294.676 704.12H294.677L295.642 704.081M295.642 704.081L295.702 705.58L295.696 705.58L295.642 704.081ZM559.331 293.085L559.326 293.078C553.235 284.692 546.669 278.931 538.412 275.802C531.279 273.099 522.752 272.311 511.968 273.651C522.898 278.22 529.639 281.985 534.914 288.917C540.87 296.744 544.881 308.525 551.571 329.688L550.141 330.14L551.571 329.688C558.073 350.263 573.174 361.839 593.541 365.316C612.559 368.562 636.193 364.735 661.573 354.367C657.726 354.188 653.718 354.088 649.612 353.985C647.917 353.943 646.205 353.9 644.48 353.851C636.268 353.619 627.806 353.247 619.724 352.106C603.595 349.829 588.626 344.437 580.121 330.558C575.977 323.799 572.688 317.276 569.687 311.322C569.423 310.797 569.161 310.278 568.901 309.763C565.67 303.365 562.742 297.727 559.331 293.085ZM215.455 498.487L214.101 499.051L213.507 497.709C211.01 492.065 210.136 486.571 210.981 481.287C211.825 476.004 214.367 471.049 218.508 466.452C222.617 461.856 227.25 458.807 232.398 457.414C237.547 456.021 243.092 456.318 248.972 458.22L250.363 458.67L249.948 460.073C244.529 478.379 233.023 491.176 215.455 498.487ZM213.379 206.124V200.367L216.188 205.393C230.621 231.212 234.307 251.32 233.397 266.408C232.487 281.502 226.985 291.427 223.298 296.881C222.404 298.204 221.536 299.387 220.713 300.159C220.304 300.544 219.801 300.928 219.212 301.128C218.556 301.352 217.809 301.335 217.125 300.917C216.519 300.547 216.128 299.96 215.858 299.397C215.58 298.815 215.357 298.1 215.169 297.279C214.793 295.635 214.506 293.334 214.28 290.288C213.379 278.13 213.379 252.965 213.379 206.304V206.124Z" stroke="#3D3D3D" stroke-width="3"/>
</svg>
