<svg width="655" height="618" viewBox="0 0 655 618" fill="none" xmlns="http://www.w3.org/2000/svg">
<path opacity="0.05" d="M737.402 664.898C739.01 650.164 736.842 630.855 731.387 611.538C725.93 592.213 717.144 572.746 705.408 557.729L705.406 557.727C693.656 542.771 678.681 531.881 661.773 533.391C644.869 534.901 626.784 548.74 608.652 581.349L608.141 582.268L608.831 583.062C634.297 612.35 651.551 636.187 664.697 654.381L665.002 654.803C671.437 663.709 676.91 671.285 681.881 677.457C686.927 683.723 691.519 688.626 696.159 692.05C705.486 698.932 715.111 699.865 722.857 694.881C730.481 689.974 735.827 679.606 737.402 664.898ZM737.402 664.898L735.911 664.735M737.402 664.898C737.402 664.897 737.402 664.896 737.402 664.895L735.911 664.735M735.911 664.735C739.073 635.759 727.397 588.3 704.226 558.653L609.963 582.078C635.661 611.633 653.013 635.649 666.199 653.899C679.195 671.886 688.145 684.273 697.05 690.843C714.99 704.081 732.809 693.711 735.911 664.735ZM676.842 440.289L677.035 439.386C679.58 427.492 684.672 417.545 692.354 409.612C699.312 402.427 708.34 396.949 719.395 393.149C689.257 377.473 672.313 357.797 669.207 333.995C666.084 310.066 677.028 282.472 701.477 251.313C663.119 251.163 636.648 240.477 622.704 218.777C608.663 196.929 607.662 164.407 619.142 121.608C584.09 124.429 560.833 116.04 550.434 95.6221C545.174 85.295 543.323 72.0785 544.733 56.0859C546.089 40.7211 550.463 22.7038 557.821 2.0517C515.91 11.6939 494.289 35.1575 479.927 63.6741C472.572 78.2787 467.125 94.2049 461.846 110.338C461.265 112.114 460.686 113.893 460.107 115.672C455.435 130.024 450.742 144.438 444.826 157.985L444.826 157.986C439.563 170.009 433.332 181.359 427.322 192.309C425.724 195.219 424.143 198.101 422.599 200.959C415.219 214.621 408.692 227.771 405.222 241.202C401.762 254.594 401.346 268.252 406.203 282.938C411.068 297.649 421.263 313.505 439.214 331.208L439.957 331.941L439.528 332.893C424.567 366.055 410.139 378.701 398.466 381.075C386.645 383.48 378.345 375.262 376.22 368.601L376.218 368.594C374.011 361.565 378.535 356.328 382.54 352.011C382.829 351.699 383.117 351.392 383.401 351.087C385.177 349.187 386.828 347.42 388.046 345.58C389.433 343.484 390.121 341.484 389.789 339.337C389.434 337.043 387.913 334.375 385.994 331.329C385.748 330.938 385.496 330.542 385.241 330.141C383.592 327.549 381.82 324.764 380.794 322.074C379.586 318.909 379.264 315.491 381.62 312.454C383.669 309.812 387.549 307.747 393.744 306.21C386.509 289.549 378.027 273.513 368.352 258.103L367.116 256.134L369.419 255.819C375.382 255.003 381.39 255.224 387.278 256.437C379.826 236.725 366.6 220.231 348.908 208.535L346.699 207.074L349.088 205.931C357.741 201.787 367.193 200.623 376.503 202.479C366.558 186.676 352.958 173.855 336.547 164.861L334.993 164.009L336.09 162.617C343.593 153.095 352.926 145.403 363.653 139.881C344.66 131.632 324.399 127.056 303.645 126.308L302.358 126.262L302.209 124.983C300.103 106.971 300.399 88.8472 303.042 70.9338C292.358 75.2481 285.739 82.044 280.854 89.199C278.224 93.0529 276.1 97.0052 274.101 100.77L273.815 101.308C271.938 104.846 270.135 108.244 268.134 111.09C259.641 123.321 247.832 125.441 235.766 126.908C234.911 127.012 234.055 127.113 233.202 127.213C227.982 127.827 222.833 128.433 218.073 129.769C212.578 131.311 207.758 133.79 204.156 138.256C200.491 142.801 198.024 149.508 195.654 156.594C195.389 157.386 195.125 158.184 194.861 158.982C192.807 165.19 190.723 171.487 187.847 176.165C181.167 187.029 170.479 189.148 151.916 192.352L151.834 192.366C142.427 193.995 131.609 195.869 124.724 205.509C118.143 214.726 114.892 231.455 120.958 263.006C122.916 259.302 125.942 256.295 129.799 254.269C134.685 251.702 140.105 251.158 145.29 252.637C145.995 246.531 149.857 241.544 155.811 239.31C161.697 237.046 167.791 238.142 172.353 242.151C176.28 234.381 183.608 229.567 192.498 229.028C202.078 228.444 210.526 233.076 215.244 241.505L215.943 242.753L214.73 243.51C209.737 246.626 203.975 247.129 198.702 245.031C199.297 249.432 197.995 253.813 194.938 257.312C191.646 261.142 186.992 263.071 182.1 262.722C182.712 267.131 182.62 270.523 181.954 273.131C181.174 276.186 179.607 278.156 177.564 279.348C175.59 280.501 173.311 280.844 171.242 280.966C170.256 281.024 169.274 281.033 168.367 281.041L168.207 281.042C167.238 281.051 166.368 281.063 165.587 281.126L165.574 281.128C162.491 281.35 160.833 282.384 160.007 283.414C159.177 284.449 159.04 285.653 159.299 286.578C159.583 287.452 160.279 288.189 161.725 289.438C161.895 289.585 162.073 289.737 162.257 289.894C163.586 291.03 165.275 292.475 167.087 294.572C167.594 295.159 168.106 295.793 168.616 296.425L168.638 296.453C169.161 297.101 169.687 297.753 170.239 298.396C171.344 299.684 172.508 300.885 173.818 301.834C176.344 303.662 179.516 304.64 184.132 303.042C186.508 302.213 189.283 300.691 192.523 298.735C193.794 297.968 195.15 297.126 196.572 296.243C198.696 294.924 200.968 293.513 203.322 292.126C211.266 287.443 220.739 282.654 231.675 280.717L231.679 280.716C242.542 278.822 255.014 279.738 263.34 284.564C267.543 287 270.767 290.485 272.071 295.164C273.371 299.829 272.695 305.436 269.599 311.993L269.598 311.995C266.508 318.508 260.959 326.096 254.356 334.636C252.667 336.82 250.906 339.07 249.093 341.386C243.778 348.178 238.014 355.542 232.296 363.507C216.965 384.859 202.138 410.293 197.722 439.618C193.331 468.97 199.324 502.375 208.715 534.402C216.149 559.754 225.67 584.114 233.761 604.815C235.889 610.259 237.918 615.45 239.784 620.34C248.733 643.788 253.86 660.163 256.302 671.855C258.736 683.511 258.551 690.725 256.629 695.711C255.661 698.239 254.246 700.213 252.286 701.676C250.343 703.128 247.959 704.006 245.161 704.506C239.634 705.492 232.1 705.053 222.269 704.234L676.842 440.289ZM676.842 440.289L677.561 440.868C750.234 499.429 783.589 551.794 795.308 595.112C807.019 638.398 797.168 672.806 783.104 695.607L783.1 695.613C755.17 741.386 710.275 741.439 683.306 741.439H343.642L676.842 440.289ZM393.268 703.875C393.99 702.908 393.967 701.782 393.755 700.848C393.544 699.921 393.089 698.913 392.579 697.907C392.231 697.219 391.848 696.511 391.445 695.768C390.605 694.217 389.684 692.515 388.833 690.54C386.394 684.873 384.85 677.569 389.555 668.734L390.397 667.154L388.693 666.602C363.39 658.405 339.297 647.172 316.778 633.084L315.161 632.073L314.559 633.883C310.389 646.431 313.173 659.221 321.869 668.657C312.58 668.064 303.331 669.055 294.409 671.588L292.602 672.102L293.503 673.75C304.941 694.685 310.423 717.757 309.558 741.5H174.336C174.496 731.206 176.302 723.698 179.13 718.235C182.079 712.539 186.175 708.989 190.854 706.797C200.139 702.447 211.768 703.386 221.599 704.18L222.264 704.234L392.062 702.983M393.268 703.875C393.266 703.878 393.263 703.881 393.261 703.884L392.062 702.983M393.268 703.875C393.268 703.875 393.268 703.875 393.268 703.875L392.062 702.983M393.268 703.875C392.598 704.78 391.518 705.225 390.442 705.48C389.326 705.745 387.921 705.873 386.27 705.923C383.151 706.019 378.839 705.844 373.306 705.62L372.306 705.58L372.358 704.081M392.062 702.983C390.701 704.823 384.791 704.584 373.324 704.12H373.323L372.358 704.081M372.358 704.081L372.298 705.58L372.304 705.58L372.358 704.081ZM108.669 293.085L108.674 293.078C114.765 284.692 121.331 278.931 129.588 275.802C136.721 273.099 145.248 272.311 156.032 273.651C145.102 278.22 138.361 281.985 133.086 288.917C127.13 296.744 123.119 308.525 116.429 329.688L117.859 330.14L116.429 329.688C109.927 350.263 94.8256 361.839 74.4588 365.316C55.4408 368.562 31.807 364.735 6.4268 354.367C10.2744 354.188 14.2817 354.088 18.3878 353.985C20.0831 353.943 21.7952 353.9 23.5199 353.851C31.7321 353.619 40.1941 353.247 48.2763 352.106C64.4055 349.829 79.374 344.437 87.8794 330.558C92.0234 323.799 95.3117 317.276 98.3129 311.322C98.577 310.797 98.839 310.278 99.0991 309.763C102.33 303.365 105.258 297.727 108.669 293.085ZM452.545 498.487L453.899 499.051L454.493 497.709C456.99 492.065 457.864 486.571 457.019 481.287C456.175 476.004 453.633 471.049 449.492 466.452C445.383 461.856 440.75 458.807 435.602 457.414C430.453 456.021 424.908 456.318 419.028 458.22L417.637 458.67L418.052 460.073C423.471 478.379 434.977 491.176 452.545 498.487ZM454.621 206.124V200.367L451.812 205.393C437.379 231.212 433.693 251.32 434.603 266.408C435.513 281.502 441.015 291.427 444.702 296.881C445.596 298.204 446.464 299.387 447.287 300.159C447.696 300.544 448.199 300.928 448.788 301.128C449.444 301.352 450.191 301.335 450.875 300.917C451.481 300.547 451.872 299.96 452.142 299.397C452.42 298.815 452.643 298.1 452.831 297.279C453.207 295.635 453.494 293.334 453.72 290.288C454.621 278.13 454.621 252.965 454.621 206.304V206.124Z" stroke="#3D3D3D" stroke-width="3"/>
</svg>
