<svg width="1076" height="1044" viewBox="0 0 1076 1044" fill="none" xmlns="http://www.w3.org/2000/svg">
<path opacity="0.05" d="M956.872 621.377L957.065 620.474C960.64 603.781 967.783 589.846 978.547 578.738C988.583 568.38 1001.71 560.538 1017.88 555.185C974.588 532.993 950.41 505.131 946.015 471.469C941.602 437.676 957.209 398.552 992.262 354.199C937.479 354.22 899.914 339.164 880.226 308.546C860.442 277.78 859.054 231.797 875.499 171.004C825.575 175.191 792.762 163.377 778.16 134.723C770.799 120.281 768.185 101.748 770.172 79.2388C772.104 57.3531 778.393 31.6157 789.007 2.0445C728.862 15.5474 697.929 48.9799 677.448 89.6204C667.034 110.286 659.327 132.812 651.87 155.588C651.049 158.096 650.231 160.608 649.413 163.12C642.811 183.386 636.191 203.707 627.847 222.803L627.846 222.804C620.423 239.751 611.639 255.745 603.149 271.202C600.89 275.313 598.653 279.387 596.468 283.43C586.041 302.721 576.788 321.344 571.865 340.385C566.952 359.387 566.358 378.793 573.263 399.658C580.176 420.548 594.645 443.014 620.05 468.053L620.795 468.787L620.365 469.739C599.241 516.531 578.972 534.125 562.797 537.414C546.475 540.732 535.012 529.393 532.083 520.219L532.081 520.213C529.083 510.671 535.182 503.536 540.875 497.405C541.281 496.968 541.685 496.536 542.086 496.107C544.592 493.428 546.965 490.891 548.716 488.245C550.722 485.216 551.776 482.236 551.274 478.997C550.75 475.61 548.523 471.737 545.825 467.456C545.475 466.9 545.117 466.338 544.756 465.771C542.423 462.104 539.959 458.233 538.533 454.499C536.863 450.128 536.471 445.56 539.611 441.514C542.453 437.852 547.982 434.924 557.11 432.748C546.812 408.955 534.717 386.063 520.902 364.072L519.664 362.103L521.969 361.788C530.693 360.596 539.488 360.985 548.089 362.889C537.592 334.468 518.669 310.697 493.251 293.903L491.04 292.443L493.43 291.299C505.97 285.297 519.707 283.767 533.186 286.773C519.016 263.806 499.447 245.199 475.744 232.216L474.189 231.364L475.287 229.972C486.103 216.254 499.622 205.242 515.186 197.449C487.938 185.441 458.822 178.784 428.987 177.71L427.7 177.664L427.551 176.385C424.541 150.654 425.011 124.761 428.884 99.1784C413.06 105.3 403.359 115.189 396.257 125.587C392.518 131.06 389.503 136.668 386.68 141.982C386.548 142.231 386.416 142.479 386.284 142.727C383.625 147.736 381.095 152.502 378.29 156.489C366.459 173.517 350.031 176.492 332.997 178.562C331.792 178.708 330.587 178.85 329.383 178.991C322.012 179.857 314.683 180.719 307.908 182.619C300.069 184.817 293.128 188.371 287.933 194.809C282.674 201.326 279.159 210.903 275.817 220.891C275.442 222.011 275.069 223.137 274.696 224.264C271.789 233.041 268.87 241.856 264.847 248.395C255.581 263.454 240.803 266.427 214.509 270.962L214.313 270.996C201.077 273.287 185.57 275.97 175.696 289.788C166.121 303.19 161.571 327.489 170.626 373.251C173.271 367.378 177.761 362.631 183.658 359.535C190.642 355.867 198.407 355.186 205.796 357.49C206.533 348.76 211.908 341.605 220.339 338.445C228.7 335.231 237.344 336.935 243.678 342.89C249.033 331.685 259.369 324.732 271.983 323.968C285.277 323.158 296.988 329.573 303.539 341.268L304.239 342.517L303.025 343.274C295.819 347.768 287.462 348.32 279.92 344.941C281.12 351.344 279.378 357.787 274.926 362.878C270.231 368.338 263.531 370.982 256.531 370.238C257.512 376.796 257.402 381.74 256.45 385.466C255.385 389.634 253.265 392.27 250.535 393.863C247.874 395.416 244.773 395.893 241.88 396.063C240.504 396.144 239.131 396.156 237.847 396.168L237.624 396.17C236.257 396.183 235.007 396.199 233.878 396.291L233.864 396.292C229.388 396.615 226.864 398.126 225.561 399.75C224.254 401.379 224.03 403.293 224.453 404.783C224.912 406.209 226.033 407.353 228.067 409.109C228.309 409.318 228.561 409.533 228.822 409.756C230.699 411.36 233.051 413.37 235.579 416.294C236.288 417.114 237.006 418.003 237.729 418.9L237.756 418.932C238.494 419.847 239.243 420.774 240.03 421.69C241.604 423.524 243.285 425.262 245.193 426.642C248.914 429.335 253.604 430.758 260.329 428.431C263.753 427.238 267.722 425.058 272.301 422.296C274.112 421.204 276.033 420.012 278.043 418.764C281.035 416.907 284.226 414.926 287.551 412.968C298.752 406.369 312.058 399.653 327.4 396.936L327.404 396.936C342.671 394.276 360.126 395.581 371.714 402.294C377.548 405.674 381.974 410.477 383.764 416.892C385.549 423.292 384.64 431.052 380.308 440.222L380.307 440.224C375.974 449.35 368.177 460.012 358.844 472.076C356.461 475.154 353.977 478.327 351.417 481.596C343.906 491.187 335.752 501.599 327.666 512.855C305.988 543.029 284.974 579.033 278.713 620.58C272.49 662.154 280.986 709.421 294.262 754.666C304.772 790.488 318.236 824.914 329.667 854.143C332.672 861.825 335.536 869.148 338.169 876.043C350.807 909.139 358.036 932.221 361.476 948.681C364.908 965.106 364.616 975.147 361.966 982.018C360.634 985.493 358.699 988.177 356.039 990.163C353.394 992.137 350.126 993.35 346.235 994.044C338.521 995.419 327.962 994.811 314.053 993.653L956.872 621.377ZM956.872 621.377L957.591 621.956C1060.32 704.685 1107.54 778.719 1124.14 840.044C1140.74 901.337 1126.78 950.09 1106.83 982.413L1106.83 982.419C1067.18 1047.36 1003.41 1047.41 965.318 1047.41H484.844C485.067 1020.38 491.338 1007.47 499.174 1001.28C507.204 994.933 517.301 995.247 525.983 995.551C525.984 995.551 525.984 995.551 525.985 995.551L527.38 995.608C535.216 995.925 541.288 996.17 545.672 996.036C547.991 995.965 549.926 995.786 551.441 995.427C552.914 995.077 554.26 994.496 555.075 993.4C555.946 992.24 555.942 990.863 555.661 989.625C555.381 988.395 554.769 987.03 554.052 985.614C553.573 984.67 553.039 983.684 552.475 982.643C551.281 980.44 549.955 977.991 548.743 975.178C545.249 967.069 543.022 956.549 549.785 943.858L550.627 942.277L548.923 941.725C513.128 930.136 479.046 914.256 447.19 894.34L445.573 893.329L444.971 895.138C438.981 913.153 443.268 931.51 456.256 944.768C442.67 943.714 429.13 945.07 416.087 948.772L414.279 949.285L415.18 950.935C431.487 980.763 439.254 1013.66 437.914 1047.5H245.661C245.822 1032.58 248.401 1021.69 252.511 1013.75C256.741 1005.58 262.633 1000.48 269.36 997.327C282.628 991.115 299.201 992.454 313.038 993.571L314.049 993.653L956.872 621.377ZM153.02 413.425L153.025 413.418C161.676 401.515 171.04 393.285 182.852 388.812C193.553 384.76 206.405 383.736 222.793 386.042C206.101 392.9 196.189 398.189 188.505 408.279C180.171 419.224 174.535 435.735 165.072 465.654L166.502 466.106L165.072 465.654C155.809 494.946 134.27 511.434 105.294 516.377C77.6395 521.095 43.1858 515.286 6.30514 499.831C12.5827 499.488 19.1873 499.324 25.9717 499.154C28.3641 499.094 30.7788 499.034 33.2094 498.965C44.8081 498.637 56.7329 498.113 68.1141 496.508C90.8409 493.301 111.752 485.73 123.621 466.374C129.461 456.855 134.096 447.666 138.337 439.257C138.709 438.518 139.079 437.785 139.446 437.058C144.008 428.032 148.165 420.026 153.02 413.425ZM860.395 821.073L859.884 821.993L1039.63 938.502L1041.13 938.665C1041.13 938.664 1041.13 938.663 1041.13 938.662C1043.39 917.962 1040.34 890.784 1032.65 863.564C1024.95 836.335 1012.57 808.928 996.055 787.807L996.053 787.804C979.496 766.743 958.523 751.577 934.954 753.68C911.39 755.783 885.982 775.086 860.395 821.073ZM639.556 703.216L640.91 703.779L641.504 702.438C644.993 694.558 646.199 686.922 645.028 679.6C643.858 672.278 640.33 665.389 634.545 658.97C628.805 652.553 622.358 648.323 615.222 646.393C608.084 644.463 600.374 644.867 592.16 647.523L590.767 647.973L591.183 649.376C598.786 675.044 614.911 692.966 639.556 703.216ZM641.632 291.016V285.261L638.823 290.283C618.479 326.654 613.312 354.928 614.589 376.089C615.867 397.257 623.583 411.164 628.751 418.804C630.016 420.673 631.208 422.29 632.314 423.328C632.866 423.845 633.5 424.319 634.21 424.561C634.989 424.827 635.848 424.802 636.637 424.321C637.347 423.887 637.833 423.182 638.19 422.436C638.557 421.671 638.859 420.711 639.119 419.574C639.64 417.299 640.042 414.087 640.361 409.796C641.632 392.653 641.632 357.135 641.632 291.186V291.016Z" stroke="#3D3D3D" stroke-width="3"/>
</svg>
