<svg width="17" height="17" viewBox="0 0 17 17" fill="none" xmlns="http://www.w3.org/2000/svg">
<path fill-rule="evenodd" clip-rule="evenodd" d="M11.2929 0.292893C11.6834 -0.0976311 12.3166 -0.0976311 12.7071 0.292893L16.7071 4.29289C17.0976 4.68342 17.0976 5.31658 16.7071 5.70711L5.70711 16.7071C5.51957 16.8946 5.26522 17 5 17H1C0.447715 17 0 16.5523 0 16V12C0 11.7348 0.105357 11.4804 0.292893 11.2929L11.2929 0.292893ZM2 12.4142V15H4.58579L14.5858 5L12 2.41421L2 12.4142Z" fill="#277D59"/>
<path fill-rule="evenodd" clip-rule="evenodd" d="M10 16C10 15.4477 10.4477 15 11 15H16C16.5523 15 17 15.4477 17 16C17 16.5523 16.5523 17 16 17H11C10.4477 17 10 16.5523 10 16Z" fill="#277D59"/>
</svg>
