<svg width="30" height="30" viewBox="0 0 30 30" fill="none" xmlns="http://www.w3.org/2000/svg">
<mask id="mask0_0_9046" style="mask-type:alpha" maskUnits="userSpaceOnUse" x="0" y="0" width="30" height="30">
<circle cx="15" cy="15" r="15" fill="#3D3D3D"/>
</mask>
<g mask="url(#mask0_0_9046)">
<path d="M14.9996 32C11.0288 32 7.37598 30.6386 4.48242 28.3571C6.84593 25.1104 10.6763 23 14.9996 23C19.3229 23 23.1532 25.1104 25.5167 28.3571C22.6232 30.6386 18.9704 32 14.9996 32Z" fill="#E3E3E3"/>
<path d="M20.9996 13C20.9996 16.3137 18.3133 19 14.9996 19C11.6859 19 8.99958 16.3137 8.99958 13C8.99958 9.68629 11.6859 7 14.9996 7C18.3133 7 20.9996 9.68629 20.9996 13Z" fill="#E3E3E3"/>
<path d="M14.9996 32C11.0288 32 7.37598 30.6386 4.48242 28.3571C6.84593 25.1104 10.6763 23 14.9996 23C19.3229 23 23.1532 25.1104 25.5167 28.3571C22.6232 30.6386 18.9704 32 14.9996 32Z" stroke="#E3E3E3" stroke-width="2"/>
<path d="M20.9996 13C20.9996 16.3137 18.3133 19 14.9996 19C11.6859 19 8.99958 16.3137 8.99958 13C8.99958 9.68629 11.6859 7 14.9996 7C18.3133 7 20.9996 9.68629 20.9996 13Z" stroke="#E3E3E3" stroke-width="2"/>
<circle opacity="0.12" cx="15" cy="15" r="14.5" stroke="#3D3D3D"/>
</g>
</svg>
