<svg width="50" height="50" viewBox="0 0 50 50" fill="none" xmlns="http://www.w3.org/2000/svg">
<rect width="50" height="50" fill="#299D61"/>
<path d="M32.4642 17.5195C32.4475 17.4833 32.4347 17.4579 32.4251 17.4389C32.4108 17.4107 32.4036 17.3966 32.4019 17.3819C32.2611 16.2758 32.1908 15.7225 32.4344 15.4457C32.6783 15.1688 33.2366 15.1688 34.3538 15.1688H37.3274V17.5202C35.7126 17.5195 34.1038 17.5195 32.4642 17.5195Z" fill="white"/>
<path d="M32.4018 19.1436V21.5286H37.3364V19.1436H32.4018Z" fill="white"/>
<path d="M37.3289 23.1393H32.3591C32.3591 23.3403 32.3573 23.5346 32.3555 23.7241C32.351 24.2205 32.3468 24.6838 32.3756 25.145C32.3853 25.2974 32.6 25.5621 32.7239 25.5644C33.9384 25.5873 35.1528 25.5856 36.3669 25.5839C36.6875 25.5834 37.0084 25.583 37.3289 25.583V23.1393Z" fill="white"/>
<path d="M37.3522 27.0316V29.4403H32.3636C32.3636 29.2702 32.3624 29.0991 32.3613 28.9272C32.358 28.4237 32.3547 27.914 32.3793 27.4057C32.3853 27.2763 32.5903 27.0495 32.7066 27.0472C33.9277 27.0283 35.1497 27.0296 36.3903 27.0309C36.7093 27.0313 37.0304 27.0316 37.3522 27.0316Z" fill="white"/>
<path d="M37.3424 33.4628V31.0674H32.4236V33.4628H37.3424Z" fill="white"/>
<path fill-rule="evenodd" clip-rule="evenodd" d="M27.959 11.8789V9.04033C27.6855 9.04033 27.4222 9.02961 27.1672 9.01922C26.6416 8.99783 26.1509 8.97784 25.6768 9.05595C22.94 9.51053 20.2059 9.97949 17.4717 10.4484C14.9281 10.8847 12.3843 11.321 9.83858 11.7458C9.20796 11.8514 8.99851 12.0625 9.00001 12.711C9.02253 20.5826 9.01953 28.4535 9.00601 36.3258C9.00526 36.9163 9.17268 37.1543 9.80104 37.2591C12.0673 37.636 14.3309 38.0299 16.5947 38.4237C18.8866 38.8224 21.1786 39.2211 23.4734 39.6024C24.4595 39.7662 25.457 39.8633 26.4862 39.9634C26.9659 40.01 27.4531 40.0575 27.9485 40.1125V36.7445H38.9798C39.0423 36.7445 39.105 36.7454 39.1677 36.7464C39.3224 36.7487 39.4773 36.7509 39.6307 36.7393C40.6186 36.6635 40.9294 36.3742 40.9745 35.3978C41.0018 34.7944 40.9981 34.1894 40.9943 33.5846C40.9929 33.3598 40.9915 33.1349 40.9917 32.9102C40.9929 30.5635 40.9937 28.2167 40.9945 25.87C40.9958 21.9574 40.9972 18.0447 41 14.1321C41.0015 12.064 40.8258 11.8818 38.7373 11.8796C36.4591 11.8775 34.181 11.878 31.9029 11.8785C30.9266 11.8787 29.9503 11.8789 28.974 11.8789H27.959ZM28.2355 35.7005C28.419 35.7132 28.579 35.7242 28.739 35.7242C29.7347 35.7249 30.7304 35.7236 31.7261 35.7223C34.1995 35.7192 36.673 35.7161 39.1464 35.7421C39.8694 35.7495 40.0556 35.539 40.0526 34.8355C40.0337 29.6415 40.0345 24.4471 40.0353 19.2526C40.0356 17.4129 40.0359 15.5732 40.0353 13.7335C40.0353 13.5564 40.0209 13.3795 40.0057 13.1942C39.9988 13.1089 39.9917 13.0216 39.9858 12.9319H27.9042C27.9042 13.1167 27.9056 13.2973 27.907 13.475C27.9102 13.8745 27.9132 14.2593 27.8997 14.6438C27.8847 15.0617 28.0619 15.2171 28.4763 15.2067C28.9856 15.1942 29.4949 15.1967 30.0176 15.1993C30.2376 15.2004 30.46 15.2015 30.6857 15.2015V17.5827H27.9733V19.1213H29.0078L29.01 19.1213C29.94 19.1221 30.399 19.1225 30.6155 19.3518C30.8265 19.5754 30.807 20.0165 30.7685 20.8877L30.766 20.944C30.7435 21.4594 30.528 21.5806 30.0671 21.5657C29.5814 21.5496 29.095 21.5531 28.6042 21.5567C28.394 21.5583 28.1831 21.5598 27.971 21.5598V23.1505H30.6609C31.0273 25.4722 31.01 25.493 28.8239 25.5153C28.7879 25.5155 28.7518 25.5169 28.7156 25.5182C28.6431 25.5208 28.5704 25.5235 28.4988 25.5175C27.8952 25.4673 27.8966 25.8515 27.8981 26.2608L27.8982 26.3051L27.8981 26.3557C27.8971 26.7607 27.8962 27.1257 28.498 27.0985C29.0656 27.0725 29.6399 27.0621 30.203 27.1201C30.3959 27.1402 30.7052 27.3752 30.721 27.5343C30.7644 27.9872 30.758 28.4452 30.7511 28.935C30.7484 29.1223 30.7457 29.3143 30.7457 29.5125H27.9733V31.0503C28.1092 31.0503 28.2377 31.0496 28.3613 31.0488C28.6186 31.0472 28.8546 31.0458 29.0904 31.0518C29.4177 31.0603 29.6806 31.0543 29.8918 31.0496C30.2913 31.0406 30.5057 31.0357 30.6209 31.1402C30.7545 31.2613 30.7548 31.5293 30.7556 32.1077C30.7559 32.3 30.7562 32.5266 30.7615 32.7935C30.772 33.3081 30.6061 33.5245 30.0648 33.497C29.5844 33.4727 29.1022 33.4782 28.6072 33.4838C28.389 33.4863 28.1681 33.4888 27.944 33.4888C27.9447 34.2689 27.9447 34.9292 27.9447 35.6818C28.0491 35.6877 28.1452 35.6943 28.2355 35.7005ZM14.5638 18.7517C14.341 18.7644 14.108 18.7777 13.861 18.7886C14.0926 19.2851 14.3163 19.7681 14.5353 20.241C15.0891 21.4372 15.613 22.5688 16.1612 23.6901C16.3985 24.1764 16.3812 24.5676 16.1244 25.0413C15.5592 26.0828 15.0232 27.14 14.4871 28.1972C14.3312 28.5048 14.1753 28.8123 14.0186 29.1195C13.9444 29.2652 13.8817 29.4166 13.8011 29.6114C13.7586 29.714 13.7112 29.8285 13.6545 29.9606C13.889 29.9606 14.1073 29.9541 14.3137 29.9481C14.7511 29.9352 15.1358 29.9239 15.5111 29.9784C16.0268 30.0535 16.2453 29.8639 16.4225 29.4311C16.744 28.6473 17.0818 27.8702 17.4343 27.0594C17.5781 26.7286 17.7243 26.3922 17.8729 26.0475C18.0113 26.3695 18.1459 26.6845 18.2782 26.9941C18.677 27.9271 19.0545 28.8104 19.4502 29.6854C19.547 29.8996 19.7587 30.1859 19.9517 30.2142C20.5021 30.2952 21.0591 30.3308 21.6725 30.3699C21.9142 30.3854 22.1646 30.4014 22.4268 30.4209C22.3695 30.2918 22.3206 30.1787 22.2763 30.0766C22.1932 29.8845 22.1267 29.7308 22.0522 29.5813C21.8792 29.2342 21.7067 28.887 21.5341 28.5397C20.9303 27.3243 20.3266 26.1091 19.7024 24.9037C19.4847 24.4835 19.4592 24.1452 19.6852 23.7109C20.2842 22.5589 20.8571 21.3933 21.4301 20.2277C21.6032 19.8755 21.7763 19.5234 21.9501 19.1716C22.0332 19.0029 22.1074 18.83 22.1849 18.6491C22.2216 18.5637 22.259 18.4765 22.2985 18.387C22.0981 18.387 21.9092 18.3907 21.7284 18.3942C21.3456 18.4017 20.999 18.4084 20.6559 18.3781C19.9404 18.3149 19.5906 18.6362 19.3503 19.2802C19.063 20.0509 18.7348 20.8071 18.3974 21.5843C18.2527 21.9178 18.1063 22.2551 17.9607 22.5991C17.8388 22.286 17.7202 21.9786 17.6035 21.6758C17.2773 20.8302 16.9649 20.0201 16.6304 19.2184C16.5426 19.0087 16.3039 18.7217 16.1237 18.7135C15.627 18.6911 15.128 18.7196 14.5638 18.7517Z" fill="white"/>
</svg>
