<svg width="10" height="7" viewBox="0 0 10 7" fill="none" xmlns="http://www.w3.org/2000/svg">
<path d="M4.41797 5.94141C4.49609 6.03906 4.61328 6.09766 4.75 6.09766C4.86719 6.09766 4.98438 6.03906 5.08203 5.94141L8.87109 2.15234C8.94922 2.05469 9.00781 1.9375 9.00781 1.82031C9.00781 1.68359 8.94922 1.56641 8.87109 1.48828L8.44141 1.05859C8.34375 0.960938 8.22656 0.902344 8.10938 0.902344C7.97266 0.902344 7.85547 0.941406 7.77734 1.03906L4.75 4.06641L1.72266 1.03906C1.625 0.941406 1.50781 0.902344 1.39062 0.902344C1.25391 0.902344 1.13672 0.960938 1.05859 1.05859L0.628906 1.48828C0.53125 1.56641 0.492188 1.68359 0.492188 1.82031C0.492188 1.9375 0.53125 2.05469 0.628906 2.15234L4.41797 5.94141Z" fill="#22333A"/>
</svg>
