<svg width="171" height="41" viewBox="0 0 171 41" fill="none" xmlns="http://www.w3.org/2000/svg">
<path d="M2.90883 9.14144V20.3404C3.38012 20.3857 3.88534 20.4084 4.43015 20.4084C5.8987 20.4084 7.04867 19.8742 7.88191 18.8039C8.71327 17.7375 9.12612 16.2444 9.12612 14.3247C9.12612 10.8157 7.49544 9.06028 4.23975 9.06028C3.92681 9.06217 3.48004 9.08859 2.90883 9.14144ZM3.63462 22.9943H0V6.597C2.32065 6.51583 3.77978 6.47241 4.37361 6.47241C6.76024 6.47241 8.65106 7.1727 10.0517 8.57328C11.4487 9.97386 12.1481 11.8312 12.1481 14.1454C12.1481 20.0441 9.31087 22.9943 3.63462 22.9943Z" fill="#00512F"/>
<path d="M20.6479 13.6094C20.1484 13.2772 19.6017 13.113 19.0041 13.113C18.3575 13.113 17.7787 13.4112 17.2772 14.0021C16.772 14.591 16.5232 15.312 16.5232 16.1614V22.9945H13.7256V10.997H16.5232V12.0975C17.3036 11.2141 18.3461 10.7781 19.6431 10.7781C20.597 10.7781 21.3266 10.9215 21.8356 11.2141L20.6479 13.6094Z" fill="#00512F"/>
<path d="M28.9189 17.3507C28.4401 17.2525 28.0838 17.2053 27.8444 17.2053C25.6368 17.2053 24.534 17.9264 24.534 19.376C24.534 20.4519 25.1561 20.9918 26.4022 20.9918C28.08 20.9918 28.9189 20.1499 28.9189 18.4738V17.3507ZM29.1866 21.794C28.934 22.2112 28.491 22.5547 27.8632 22.8227C27.2317 23.0851 26.5737 23.2191 25.8875 23.2191C24.5981 23.2191 23.582 22.8964 22.8449 22.2508C22.1059 21.6053 21.7383 20.6898 21.7383 19.5006C21.7383 18.1114 22.2586 17.026 23.3011 16.2427C24.3379 15.4612 25.8159 15.0667 27.7312 15.0667C28.0612 15.0667 28.4476 15.1233 28.8963 15.2328C28.8963 13.8247 28.0065 13.115 26.2231 13.115C25.1731 13.115 24.2908 13.2943 23.5839 13.6435L22.9806 11.4709C23.9402 11.0084 25.0863 10.78 26.4154 10.78C28.2421 10.78 29.5806 11.1934 30.4308 12.0258C31.281 12.8582 31.7071 14.4363 31.7071 16.7599V19.3232C31.7071 20.922 32.0275 21.9262 32.6666 22.3376C32.4347 22.7397 32.1784 22.9888 31.8937 23.0794C31.6109 23.1719 31.2885 23.221 30.9209 23.221C30.5194 23.221 30.1593 23.0719 29.837 22.7737C29.5146 22.4717 29.2997 22.1489 29.1866 21.794Z" fill="#00512F"/>
<path d="M36.6238 15.212C36.6238 15.9199 36.8218 16.4899 37.2101 16.9184C37.6041 17.3488 38.132 17.5621 38.7937 17.5621C39.4572 17.5621 39.9681 17.3563 40.3263 16.9354C40.6845 16.5182 40.8655 15.9425 40.8655 15.212C40.8655 14.6061 40.6732 14.0946 40.2867 13.6774C39.9021 13.2565 39.4063 13.0489 38.7937 13.0489C38.1546 13.0489 37.6305 13.2508 37.2271 13.6548C36.8255 14.0587 36.6238 14.5759 36.6238 15.212ZM33.83 26.075L35.5983 23.8892C36.571 24.7858 37.6625 25.2369 38.8634 25.2369C39.6703 25.2369 40.3338 25.1142 40.856 24.8764C41.3782 24.6386 41.6365 24.3101 41.6365 23.8892C41.6365 23.1795 41.0577 22.8265 39.904 22.8265C39.5911 22.8265 39.1235 22.8624 38.5052 22.936C37.8869 23.0096 37.4194 23.0492 37.1083 23.0492C35.1836 23.0492 34.224 22.3603 34.224 20.9804C34.224 20.5841 34.3842 20.1952 34.7047 19.8158C35.0233 19.4326 35.3966 19.1533 35.8226 18.9758C34.4596 18.0849 33.7734 16.8278 33.7734 15.2026C33.7734 13.9172 34.2466 12.8526 35.1835 12.0145C36.1261 11.1745 37.2799 10.7555 38.6504 10.7555C39.7268 10.7555 40.6242 10.9556 41.35 11.3595L42.4452 10.0835L44.3775 11.8389L43.0504 12.8129C43.5103 13.517 43.7403 14.3437 43.7403 15.3007C43.7403 16.6674 43.3256 17.7603 42.4961 18.5795C41.661 19.3968 40.6147 19.8045 39.346 19.8045C39.1462 19.8045 38.8785 19.7875 38.541 19.7479L38.0829 19.6818C38.0302 19.6818 37.8322 19.7649 37.4835 19.9234C37.1385 20.082 36.9632 20.2519 36.9632 20.4236C36.9632 20.7219 37.2214 20.871 37.738 20.871C37.9679 20.871 38.3544 20.8143 38.9011 20.7049C39.4459 20.5916 39.9134 20.535 40.2999 20.535C43.0221 20.535 44.3813 21.6298 44.3813 23.8156C44.3813 25.0274 43.8365 25.9768 42.7506 26.6658C41.661 27.3567 40.3489 27.7021 38.8125 27.7021C36.9745 27.6983 35.3136 27.1566 33.83 26.075Z" fill="#00512F"/>
<path d="M48.072 16.9693C48.072 19.6138 49.0221 20.9332 50.9223 20.9332C51.7971 20.9332 52.487 20.5897 52.9979 19.9026C53.5107 19.2174 53.7633 18.2378 53.7633 16.9693C53.7633 14.3626 52.8169 13.062 50.9223 13.062C50.0495 13.062 49.3577 13.4037 48.8411 14.0927C48.3284 14.7778 48.072 15.7367 48.072 16.9693ZM45.165 16.9693C45.165 15.1403 45.691 13.6472 46.7467 12.5014C47.8024 11.3519 49.1936 10.7781 50.9223 10.7781C52.7453 10.7781 54.1535 11.3292 55.1621 12.4316C56.1706 13.5396 56.6721 15.0534 56.6721 16.9693C56.6721 18.8776 56.1612 20.399 55.1357 21.5259C54.1083 22.6566 52.7076 23.2191 50.9223 23.2191C49.1069 23.2191 47.6874 22.649 46.6788 21.5108C45.6702 20.3707 45.165 18.855 45.165 16.9693Z" fill="#00512F"/>
<path d="M65.7895 22.9944V16.0613C65.7895 15.0402 65.5934 14.2908 65.1994 13.8227C64.8092 13.3508 64.1701 13.1129 63.2803 13.1129C62.8693 13.1129 62.4338 13.23 61.9663 13.464C61.5007 13.6943 61.1368 13.9831 60.8786 14.3266V22.9944H58.0791V10.997H60.0906L60.6071 12.1182C61.3668 11.2216 62.4904 10.7761 63.974 10.7761C65.3992 10.7761 66.5228 11.2008 67.3485 12.0578C68.1723 12.9129 68.5833 14.1039 68.5833 15.6347V22.9944H65.7895Z" fill="#00512F"/>
<path d="M113.527 7.4597L112.33 9.86825C111.679 9.22081 110.635 8.89426 109.197 8.89426C107.836 8.89426 106.716 9.46619 105.843 10.612C104.972 11.7596 104.533 13.2092 104.533 14.9628C104.533 16.7182 104.94 18.1094 105.747 19.1419C106.556 20.1706 107.634 20.6878 108.986 20.6878C110.526 20.6878 111.738 20.1329 112.609 19.0305L113.961 21.3806C112.775 22.6415 111.04 23.2757 108.752 23.2757C106.461 23.2757 104.68 22.5188 103.417 21.0106C102.146 19.5024 101.515 17.4469 101.515 14.8401C101.515 12.4127 102.216 10.3854 103.622 8.7527C105.029 7.11994 106.827 6.3064 109.018 6.3064C110.897 6.3064 112.4 6.69146 113.527 7.4597Z" fill="#00512F"/>
<path d="M121.993 17.3507C121.51 17.2525 121.156 17.2053 120.917 17.2053C118.711 17.2053 117.606 17.9264 117.606 19.376C117.606 20.4519 118.23 20.9918 119.474 20.9918C121.152 20.9918 121.995 20.1499 121.995 18.4738V17.3507H121.993ZM122.257 21.794C122.004 22.2112 121.561 22.5547 120.934 22.8227C120.302 23.0851 119.646 23.2191 118.96 23.2191C117.667 23.2191 116.654 22.8964 115.915 22.2508C115.176 21.6053 114.811 20.6898 114.811 19.5006C114.811 18.1114 115.329 17.026 116.371 16.2427C117.408 15.4612 118.888 15.0667 120.803 15.0667C121.133 15.0667 121.52 15.1233 121.967 15.2328C121.967 13.8247 121.079 13.115 119.292 13.115C118.243 13.115 117.367 13.2943 116.656 13.6435L116.051 11.4709C117.011 11.0084 118.159 10.78 119.488 10.78C121.314 10.78 122.651 11.1934 123.505 12.0258C124.353 12.8582 124.777 14.4363 124.777 16.7599V19.3232C124.777 20.922 125.096 21.9262 125.739 22.3376C125.507 22.7397 125.249 22.9888 124.966 23.0794C124.685 23.1719 124.359 23.221 123.995 23.221C123.59 23.221 123.232 23.0719 122.907 22.7737C122.585 22.4717 122.372 22.1489 122.257 21.794Z" fill="#00512F"/>
<path d="M129.722 13.9341V20.2386C130.229 20.6501 130.823 20.8558 131.5 20.8558C132.788 20.8558 133.717 20.5444 134.279 19.9309C134.844 19.3137 135.122 18.3416 135.122 17.0127C135.122 15.5952 134.846 14.5948 134.283 14.0172C133.725 13.4377 132.801 13.1489 131.51 13.1489C130.84 13.1489 130.245 13.4112 129.722 13.9341ZM129.722 22.6924V27.6983H126.925V10.9989H129.722V11.8068C130.424 11.1178 131.285 10.7781 132.305 10.7781C136.123 10.7781 138.036 12.8827 138.036 17.092C138.036 19.057 137.506 20.567 136.447 21.6297C135.393 22.6906 133.953 23.221 132.126 23.221C131.247 23.2191 130.446 23.0435 129.722 22.6924Z" fill="#00512F"/>
<path d="M141.58 6.34985C142.029 6.34985 142.41 6.51029 142.723 6.8274C143.045 7.1464 143.203 7.5277 143.203 7.97505C143.203 8.42241 143.045 8.80558 142.723 9.12458C142.408 9.44358 142.029 9.60025 141.58 9.60025C141.134 9.60025 140.751 9.44358 140.432 9.12458C140.117 8.80558 139.961 8.42429 139.961 7.97505C139.961 7.5277 140.119 7.14452 140.432 6.8274C140.753 6.51029 141.134 6.34985 141.58 6.34985ZM140.14 22.9945V13.2961H138.607V10.9971H142.968V22.9945H140.14Z" fill="#00512F"/>
<path d="M146.374 13.2509H144.986V10.9971H146.374V8.55461L149.168 7.52588V10.9952H152.455V13.249H149.168V18.5021C149.168 19.361 149.302 19.9669 149.573 20.3217C149.839 20.6766 150.308 20.8559 150.977 20.8559C151.65 20.8559 152.276 20.6709 152.859 20.3048V22.8832C152.208 23.1059 151.285 23.2192 150.082 23.2192C148.891 23.2192 147.972 22.8813 147.333 22.2055C146.691 21.5317 146.372 20.5671 146.372 19.3213V13.2509H146.374Z" fill="#00512F"/>
<path d="M161.427 17.3507C160.95 17.2525 160.59 17.2053 160.352 17.2053C158.146 17.2053 157.04 17.9264 157.04 19.376C157.04 20.4519 157.668 20.9918 158.912 20.9918C160.588 20.9918 161.427 20.1499 161.427 18.4738V17.3507ZM161.694 21.794C161.446 22.2112 161.003 22.5547 160.371 22.8227C159.738 23.0851 159.083 23.2191 158.395 23.2191C157.106 23.2191 156.09 22.8964 155.351 22.2508C154.614 21.6053 154.246 20.6898 154.246 19.5006C154.246 18.1114 154.765 17.026 155.809 16.2427C156.85 15.4612 158.326 15.0667 160.243 15.0667C160.573 15.0667 160.957 15.1233 161.406 15.2328C161.406 13.8247 160.516 13.115 158.729 13.115C157.679 13.115 156.799 13.2943 156.092 13.6435L155.49 11.4709C156.45 11.0084 157.594 10.78 158.921 10.78C160.748 10.78 162.09 11.1934 162.939 12.0258C163.787 12.8582 164.215 14.4363 164.215 16.7599V19.3232C164.215 20.922 164.537 21.9262 165.174 22.3376C164.946 22.7397 164.69 22.9888 164.405 23.0794C164.119 23.1719 163.796 23.221 163.431 23.221C163.027 23.221 162.667 23.0719 162.349 22.7737C162.024 22.4717 161.806 22.1489 161.694 21.794Z" fill="#00512F"/>
<path d="M166.889 6.53104L169.682 5.85718V19.3458C169.682 20.8219 170.124 21.7034 171 21.9865C170.57 22.8095 169.828 23.2191 168.785 23.2191C167.52 23.2191 166.889 22.3395 166.889 20.5746V6.53104Z" fill="#00512F"/>
<path d="M76.1114 8.44686C75.2423 8.79417 75.1707 8.89987 74.754 10.2155C74.3393 11.5255 72.8199 11.6916 71.1006 10.9309C71.9998 10.8592 73.2798 11.0272 73.7851 10.2042C74.0622 9.75306 74.2149 9.3359 74.4317 9.04143C74.8163 8.51291 75.2725 8.29962 76.1114 8.44686Z" fill="#EE3424"/>
<path d="M93.9137 20.5689C93.8175 21.4655 93.2652 21.7864 92.709 21.3768C92.1529 20.9671 91.5911 19.8271 90.0095 18.0112C91.1293 16.001 92.2095 16.369 92.9315 17.2864C93.6497 18.2038 94.0117 19.6723 93.9137 20.5689ZM85.1476 15.3818C84.616 15.161 84.2691 14.7759 84.1051 14.2229C84.4557 14.1096 84.7555 14.1908 85.0006 14.4645C85.2475 14.7382 85.2965 15.0458 85.1476 15.3818ZM85.1476 6.37811C85.1476 9.27553 85.1476 9.48882 84.9251 9.16039C84.7027 8.83195 84.2597 7.96367 85.1476 6.37811ZM92.1341 13.6056C92.2887 12.8846 92.7505 12.407 93.5234 12.1748C91.5421 11.1952 91.3479 9.71345 92.9428 7.72961C90.4732 7.75604 89.6098 6.41586 90.3563 3.71096C88.1205 3.91671 87.4871 2.68035 88.4655 0C85.7264 0.579485 85.6679 2.99558 84.8479 4.86994C84.0259 6.7443 82.4443 8.07692 84.6839 10.2816C83.7582 12.3296 82.9288 11.769 82.8081 11.3915C82.6893 11.014 83.2813 10.8214 83.2304 10.493C83.1795 10.1646 82.4839 9.70024 83.3718 9.5077C83.1418 8.97163 82.8703 8.45633 82.5593 7.96178C82.7666 7.93347 82.9759 7.94668 83.1795 7.99954C82.9514 7.34455 82.5234 6.79715 81.9428 6.41397C82.235 6.27429 82.5574 6.24787 82.8703 6.33658C82.5536 5.79674 82.1049 5.36071 81.5563 5.06058C81.8052 4.74536 82.12 4.4962 82.4839 4.32631C81.8636 4.04318 81.1982 3.88651 80.5158 3.86197C80.4479 3.28248 80.4611 2.69923 80.5534 2.12352C79.7805 2.39344 79.6278 3.05221 79.3752 3.41085C79.1245 3.77137 78.7776 3.83555 78.4043 3.88085C78.0311 3.92615 77.6333 3.95258 77.3939 4.24893C77.1545 4.54528 77.0791 5.11155 76.8849 5.42677C76.6907 5.742 76.3835 5.80617 75.8028 5.90621C75.2241 6.00625 74.3757 6.14216 74.8376 8.30532C74.8791 8.13166 74.9884 7.99198 75.1468 7.90892C75.3051 7.82587 75.4823 7.81644 75.6482 7.88062C75.6482 7.68242 75.7613 7.5182 75.948 7.44836C76.1346 7.37663 76.3269 7.42382 76.4589 7.57294C76.5644 7.31246 76.7906 7.15012 77.0715 7.13313C77.3505 7.11615 77.5956 7.25016 77.7332 7.49554C77.5636 7.60125 77.3637 7.60125 77.1922 7.49554C77.2469 7.64844 77.2167 7.80888 77.1092 7.93157C77.0037 8.05427 76.8491 8.10712 76.6907 8.07503C76.8057 8.73191 76.44 8.63564 76.2307 8.65263C76.0215 8.66773 75.9706 8.79609 75.9951 8.88103C76.0215 8.96408 76.1233 9.00373 76.2458 9.14529C76.3684 9.28686 76.5079 9.53035 76.8246 9.42087C77.1394 9.31139 77.6295 8.84894 78.2912 8.73191C78.9529 8.61677 79.7881 8.84894 79.4167 9.63417C79.0434 10.4194 77.4618 11.7596 77.1846 13.5962C76.9094 15.4328 77.9368 17.7621 78.4911 19.2117C79.0453 20.6614 79.1226 21.2276 79.0133 21.5108C78.9039 21.7958 78.608 21.7958 77.9953 21.7448C77.3845 21.6958 76.4589 21.6014 76.4589 22.9906H80.742C80.7778 22.2318 80.6062 21.4938 80.2405 20.8256C80.5534 20.7369 80.8796 20.7104 81.2057 20.7482C80.8758 20.4632 80.7589 20.0422 80.8965 19.6289C81.5978 20.0668 82.3481 20.416 83.1361 20.6708C82.827 21.2503 83.3416 21.6372 83.2549 21.7524C83.2115 21.8109 83.0192 21.8015 82.6441 21.7864C82.2671 21.7732 81.7072 21.7524 81.7072 22.9887H92.283C93.1181 22.9887 94.5358 22.9887 95.4161 21.5485C96.3003 20.1177 96.6491 17.2373 92.1341 13.6056Z" fill="#00512F"/>
<path d="M70.566 38.6751C70.5175 38.688 70.3981 38.6944 70.2076 38.6944C69.804 38.6944 69.5086 38.5911 69.3214 38.3845C69.1341 38.1746 68.9969 37.8163 68.9097 37.3094C68.7935 36.6153 68.5546 36.11 68.193 35.7936C67.8314 35.474 67.3262 35.3142 66.6772 35.3142H66.6385V38.646H65.6699V31.5562H66.6385V34.4909H66.7305C67.3342 34.4909 67.8185 34.3521 68.1833 34.0744C68.5514 33.7935 68.7806 33.3867 68.871 32.854C68.9517 32.3794 69.0825 32.0372 69.2633 31.8274C69.4473 31.6175 69.733 31.5126 70.1204 31.5126C70.2463 31.5126 70.3593 31.5207 70.4594 31.5368V32.3698C70.4368 32.3633 70.3706 32.3601 70.2609 32.3601C70.1382 32.3601 70.0429 32.402 69.9751 32.486C69.9106 32.5667 69.8492 32.7491 69.7911 33.0332C69.7007 33.4884 69.5086 33.8823 69.2148 34.2149C68.921 34.5442 68.5514 34.7718 68.1058 34.8977C69.0808 35.2367 69.6733 35.9631 69.8831 37.0769C69.9445 37.3998 70.0107 37.6064 70.0817 37.6968C70.1559 37.7872 70.248 37.8324 70.3577 37.8324C70.4255 37.8324 70.4949 37.826 70.566 37.813V38.6751Z" fill="#3D3D3D"/>
<path d="M73.6847 33.3577C74.4273 33.3577 75.0019 33.5982 75.4087 34.0793C75.8188 34.5571 76.0238 35.2092 76.0238 36.0357C76.0238 36.8848 75.8107 37.5483 75.3845 38.0261C74.9584 38.5039 74.3918 38.7429 73.6847 38.7429C72.9454 38.7429 72.3691 38.5007 71.9558 38.0164C71.5426 37.5322 71.336 36.8719 71.336 36.0357C71.336 35.2383 71.5523 34.5926 71.9849 34.0986C72.4175 33.6047 72.9841 33.3577 73.6847 33.3577ZM73.6847 37.9922C74.1173 37.9922 74.4531 37.813 74.692 37.4547C74.9341 37.0963 75.0552 36.6233 75.0552 36.0357C75.0552 34.754 74.5984 34.1132 73.6847 34.1132C73.2521 34.1132 72.9115 34.2875 72.6629 34.6362C72.4175 34.9849 72.2948 35.4514 72.2948 36.0357C72.2948 37.3401 72.7581 37.9922 73.6847 37.9922Z" fill="#3D3D3D"/>
<path d="M77.9221 38.3603V40.68H76.9972V33.4594H77.9221V33.8856C78.2708 33.5336 78.6905 33.3577 79.1813 33.3577C79.9141 33.3577 80.4856 33.5901 80.8956 34.055C81.3056 34.5167 81.5106 35.1883 81.5106 36.0696C81.5106 36.8639 81.3024 37.5079 80.8859 38.0019C80.4727 38.4959 79.877 38.7429 79.0989 38.7429C78.8859 38.7429 78.6534 38.7041 78.4016 38.6266C78.153 38.5491 77.9932 38.4604 77.9221 38.3603ZM77.9221 34.5781V37.6048C77.9932 37.6984 78.1191 37.784 78.2999 37.8615C78.4807 37.9357 78.6582 37.9729 78.8326 37.9729C79.9755 37.9729 80.5469 37.3239 80.5469 36.0261C80.5469 35.3545 80.4081 34.8719 80.1304 34.5781C79.8528 34.281 79.4202 34.1325 78.8326 34.1325C78.7067 34.1325 78.5469 34.181 78.3531 34.2778C78.1594 34.3747 78.0158 34.4748 77.9221 34.5781Z" fill="#3D3D3D"/>
<path d="M86.6343 38.646H85.7142V34.2342H83.4526V38.646H82.5276V33.4594H86.6343V38.646Z" fill="#3D3D3D"/>
<path d="M89.9564 33.3577C90.699 33.3577 91.2737 33.5982 91.6805 34.0793C92.0905 34.5571 92.2955 35.2092 92.2955 36.0357C92.2955 36.8848 92.0824 37.5483 91.6562 38.0261C91.2301 38.5039 90.6635 38.7429 89.9564 38.7429C89.2171 38.7429 88.6408 38.5007 88.2276 38.0164C87.8143 37.5322 87.6077 36.8719 87.6077 36.0357C87.6077 35.2383 87.824 34.5926 88.2566 34.0986C88.6892 33.6047 89.2558 33.3577 89.9564 33.3577ZM89.9564 37.9922C90.3891 37.9922 90.7248 37.813 90.9637 37.4547C91.2059 37.0963 91.3269 36.6233 91.3269 36.0357C91.3269 34.754 90.8701 34.1132 89.9564 34.1132C89.5238 34.1132 89.1832 34.2875 88.9346 34.6362C88.6892 34.9849 88.5666 35.4514 88.5666 36.0357C88.5666 37.3401 89.0298 37.9922 89.9564 37.9922Z" fill="#3D3D3D"/>
<path d="M94.1939 38.3603V40.68H93.2689V33.4594H94.1939V33.8856C94.5425 33.5336 94.9622 33.3577 95.453 33.3577C96.1859 33.3577 96.7573 33.5901 97.1673 34.055C97.5773 34.5167 97.7824 35.1883 97.7824 36.0696C97.7824 36.8639 97.5741 37.5079 97.1576 38.0019C96.7444 38.4959 96.1487 38.7429 95.3707 38.7429C95.1576 38.7429 94.9251 38.7041 94.6733 38.6266C94.4247 38.5491 94.2649 38.4604 94.1939 38.3603ZM94.1939 34.5781V37.6048C94.2649 37.6984 94.3908 37.784 94.5716 37.8615C94.7524 37.9357 94.93 37.9729 95.1043 37.9729C96.2472 37.9729 96.8186 37.3239 96.8186 36.0261C96.8186 35.3545 96.6798 34.8719 96.4022 34.5781C96.1245 34.281 95.6919 34.1325 95.1043 34.1325C94.9784 34.1325 94.8186 34.181 94.6249 34.2778C94.4312 34.3747 94.2875 34.4748 94.1939 34.5781Z" fill="#3D3D3D"/>
<path d="M101.676 38.0503C101.301 38.512 100.74 38.7429 99.9907 38.7429C99.5806 38.7429 99.2271 38.5943 98.9301 38.2973C98.6331 38.0003 98.4846 37.6339 98.4846 37.198C98.4846 36.6718 98.7122 36.2278 99.1674 35.8662C99.6258 35.5047 100.213 35.3239 100.93 35.3239C101.127 35.3239 101.35 35.3626 101.598 35.4401C101.598 34.6007 101.221 34.181 100.465 34.181C99.9003 34.181 99.458 34.3375 99.1383 34.6507L98.7509 33.8856C98.9059 33.7532 99.1399 33.6321 99.4531 33.5223C99.7695 33.4126 100.075 33.3577 100.368 33.3577C101.098 33.3577 101.637 33.524 101.986 33.8565C102.335 34.189 102.509 34.7411 102.509 35.5127V37.3675C102.509 37.8227 102.644 38.1262 102.916 38.2779V38.7332C102.515 38.7332 102.225 38.6734 102.044 38.554C101.866 38.4345 101.744 38.2666 101.676 38.0503ZM101.598 36.0987C101.269 36.0309 101.064 35.997 100.983 35.997C100.519 35.997 100.139 36.1181 99.8454 36.3602C99.5516 36.6023 99.4047 36.8848 99.4047 37.2077C99.4047 37.7501 99.7227 38.0213 100.359 38.0213C100.814 38.0213 101.227 37.8001 101.598 37.3578V36.0987Z" fill="#3D3D3D"/>
<path d="M107.434 34.2342H105.947V38.646H105.027V34.2342H103.536V33.4594H107.434V34.2342Z" fill="#3D3D3D"/>
<path d="M112.751 38.646H111.831V35.0962L108.596 38.7864H108.388V33.4594H109.313V37.0091L112.543 33.3189H112.751V38.646Z" fill="#3D3D3D"/>
<path d="M117.158 35.8614C117.82 36.0745 118.151 36.5103 118.151 37.169C118.151 37.5951 117.986 37.9486 117.657 38.2295C117.328 38.5072 116.834 38.646 116.175 38.646H114.064V33.4691C114.793 33.4303 115.468 33.411 116.088 33.411C116.672 33.411 117.126 33.5304 117.449 33.7693C117.772 34.005 117.933 34.3505 117.933 34.8057C117.933 35.0349 117.864 35.2448 117.725 35.4352C117.586 35.6257 117.397 35.7678 117.158 35.8614ZM114.935 35.5708C114.987 35.5773 115.358 35.5805 116.049 35.5805C116.705 35.5805 117.032 35.3255 117.032 34.8154C117.032 34.5958 116.955 34.4247 116.8 34.302C116.648 34.1761 116.433 34.1132 116.156 34.1132C115.623 34.1132 115.216 34.1261 114.935 34.1519V35.5708ZM114.935 37.9099C115.3 37.9325 115.678 37.9438 116.069 37.9438C116.84 37.9438 117.226 37.6629 117.226 37.1012C117.226 36.83 117.126 36.6217 116.926 36.4764C116.726 36.3279 116.433 36.2537 116.049 36.2537C115.555 36.2537 115.184 36.2617 114.935 36.2779V37.9099Z" fill="#3D3D3D"/>
<path d="M123.425 38.646H122.5V36.3069H120.112V38.646H119.187V33.4594H120.112V35.5418H122.5V33.4594H123.425V38.646Z" fill="#3D3D3D"/>
<path d="M130.224 38.646H129.318V33.4594H130.224V38.646ZM125.643 35.3626C125.908 35.3239 126.201 35.3045 126.524 35.3045C127.189 35.3045 127.696 35.4482 128.045 35.7355C128.394 36.0228 128.568 36.4474 128.568 37.0091C128.568 37.29 128.489 37.5644 128.331 37.8324C128.172 38.0972 127.942 38.2989 127.638 38.4378C127.335 38.5766 126.957 38.646 126.505 38.646H124.737V33.4594H125.643V35.3626ZM125.643 37.9002C125.862 37.9228 126.156 37.9341 126.524 37.9341C126.866 37.9341 127.139 37.8518 127.343 37.6871C127.549 37.5225 127.653 37.29 127.653 36.9898C127.653 36.6637 127.544 36.4199 127.328 36.2585C127.115 36.0971 126.831 36.0164 126.476 36.0164C126.282 36.0164 126.004 36.0374 125.643 36.0793V37.9002Z" fill="#3D3D3D"/>
<path d="M135.9 38.646H134.98V35.0962L131.745 38.7864H131.536V33.4594H132.461V37.0091L135.692 33.3189H135.9V38.646ZM135.546 30.9508C135.33 31.942 134.75 32.4376 133.808 32.4376C132.868 32.4376 132.29 31.942 132.074 30.9508L132.897 30.762C133.017 31.4238 133.32 31.7547 133.808 31.7547C134.353 31.7547 134.671 31.427 134.762 30.7716L135.546 30.9508Z" fill="#3D3D3D"/>
<path d="M144.312 38.646H143.392V34.2342H141.13V38.646H140.205V33.4594H144.312V38.646Z" fill="#3D3D3D"/>
<path d="M147.634 33.3577C148.376 33.3577 148.951 33.5982 149.358 34.0793C149.768 34.5571 149.973 35.2092 149.973 36.0357C149.973 36.8848 149.76 37.5483 149.334 38.0261C148.908 38.5039 148.341 38.7429 147.634 38.7429C146.895 38.7429 146.318 38.5007 145.905 38.0164C145.492 37.5322 145.285 36.8719 145.285 36.0357C145.285 35.2383 145.501 34.5926 145.934 34.0986C146.367 33.6047 146.933 33.3577 147.634 33.3577ZM147.634 37.9922C148.066 37.9922 148.402 37.813 148.641 37.4547C148.883 37.0963 149.004 36.6233 149.004 36.0357C149.004 34.754 148.548 34.1132 147.634 34.1132C147.201 34.1132 146.861 34.2875 146.612 34.6362C146.367 34.9849 146.244 35.4514 146.244 36.0357C146.244 37.3401 146.707 37.9922 147.634 37.9922Z" fill="#3D3D3D"/>
<path d="M151.871 38.3603V40.68H150.946V33.4594H151.871V33.8856C152.22 33.5336 152.64 33.3577 153.13 33.3577C153.863 33.3577 154.435 33.5901 154.845 34.055C155.255 34.5167 155.46 35.1883 155.46 36.0696C155.46 36.8639 155.252 37.5079 154.835 38.0019C154.422 38.4959 153.826 38.7429 153.048 38.7429C152.835 38.7429 152.603 38.7041 152.351 38.6266C152.102 38.5491 151.942 38.4604 151.871 38.3603ZM151.871 34.5781V37.6048C151.942 37.6984 152.068 37.784 152.249 37.8615C152.43 37.9357 152.607 37.9729 152.782 37.9729C153.925 37.9729 154.496 37.3239 154.496 36.0261C154.496 35.3545 154.357 34.8719 154.08 34.5781C153.802 34.281 153.369 34.1325 152.782 34.1325C152.656 34.1325 152.496 34.181 152.302 34.2778C152.109 34.3747 151.965 34.4748 151.871 34.5781Z" fill="#3D3D3D"/>
<path d="M160.017 34.2342H158.53V38.646H157.61V34.2342H156.118V33.4594H160.017V34.2342Z" fill="#3D3D3D"/>
<path d="M163.847 38.0503C163.473 38.512 162.911 38.7429 162.162 38.7429C161.752 38.7429 161.399 38.5943 161.102 38.2973C160.805 38.0003 160.656 37.6339 160.656 37.198C160.656 36.6718 160.884 36.2278 161.339 35.8662C161.797 35.5047 162.385 35.3239 163.102 35.3239C163.299 35.3239 163.521 35.3626 163.77 35.4401C163.77 34.6007 163.392 34.181 162.637 34.181C162.072 34.181 161.629 34.3375 161.31 34.6507L160.922 33.8856C161.077 33.7532 161.311 33.6321 161.625 33.5223C161.941 33.4126 162.246 33.3577 162.54 33.3577C163.27 33.3577 163.809 33.524 164.157 33.8565C164.506 34.189 164.68 34.7411 164.68 35.5127V37.3675C164.68 37.8227 164.816 38.1262 165.087 38.2779V38.7332C164.687 38.7332 164.396 38.6734 164.216 38.554C164.038 38.4345 163.915 38.2666 163.847 38.0503ZM163.77 36.0987C163.441 36.0309 163.236 35.997 163.155 35.997C162.69 35.997 162.311 36.1181 162.017 36.3602C161.723 36.6023 161.576 36.8848 161.576 37.2077C161.576 37.7501 161.894 38.0213 162.53 38.0213C162.985 38.0213 163.399 37.8001 163.77 37.3578V36.0987Z" fill="#3D3D3D"/>
<path d="M170.371 38.646H169.451V34.1906H168.061C168.045 34.9203 167.97 35.5951 167.838 36.2149C167.706 36.8316 167.526 37.3417 167.3 37.7452C167.074 38.1456 166.829 38.4055 166.564 38.5249C166.3 38.6444 165.982 38.7041 165.61 38.7041V37.8615C166.188 37.8615 166.597 37.4143 166.835 36.52C167.078 35.6225 167.199 34.7637 167.199 33.9437V33.4594H170.371V38.646Z" fill="#3D3D3D"/>
</svg>
