<svg width="50" height="50" viewBox="0 0 50 50" fill="none" xmlns="http://www.w3.org/2000/svg">
<rect width="50" height="50" fill="#7CD8FF"/>
<path d="M22.1875 21.36C22.1875 22.8843 20.9283 24.12 19.375 24.12C17.8217 24.12 16.5625 22.8843 16.5625 21.36C16.5625 19.8357 17.8217 18.6 19.375 18.6C20.9283 18.6 22.1875 19.8357 22.1875 21.36Z" fill="white"/>
<path d="M19.2621 31.6611C18.0702 30.3355 15.9923 30.3355 14.8004 31.6611L10 37H24.0625L19.2621 31.6611Z" fill="white"/>
<path d="M10 37V14H40V30.1M10 37L14.8004 31.6611C15.9923 30.3355 18.0702 30.3355 19.2621 31.6611L24.0625 37M10 37H24.0625M24.0625 37H40V30.1M40 30.1L34.1325 24.342C32.9657 23.197 31.0968 23.197 29.93 24.342L21.25 32.86M23.125 35.16L27.3438 31.48M26.4062 36.54L28.75 34.7M22.1875 21.36C22.1875 22.8843 20.9283 24.12 19.375 24.12C17.8217 24.12 16.5625 22.8843 16.5625 21.36C16.5625 19.8357 17.8217 18.6 19.375 18.6C20.9283 18.6 22.1875 19.8357 22.1875 21.36Z" stroke="white" stroke-width="2" stroke-linecap="round" stroke-linejoin="round"/>
</svg>
