<svg width="18" height="18" viewBox="0 0 18 18" fill="none" xmlns="http://www.w3.org/2000/svg">
<circle cx="9" cy="9" r="8" fill="#FBFBFB" stroke="#277D59" stroke-width="2"/>
<path d="M5.75994 6.748H7.57994C7.60794 5.992 7.99994 5.586 8.69994 5.586C9.35794 5.586 9.83394 6.048 9.83394 6.692C9.83394 7 9.69394 7.322 9.42794 7.672L8.39194 9.002C7.99994 9.492 7.85994 9.898 7.85994 10.458V10.878H9.67994V10.584C9.67994 10.36 9.77794 10.066 9.93194 9.87L10.9679 8.498C11.4579 7.84 11.6539 7.35 11.6539 6.72C11.6539 5.11 10.4079 3.948 8.69994 3.948C7.43994 3.948 6.41794 4.578 5.96994 5.614C5.82994 5.95 5.78794 6.188 5.75994 6.748ZM9.87594 12.936C9.87594 12.348 9.35794 11.844 8.76994 11.844C8.16794 11.844 7.67794 12.348 7.67794 12.95C7.67794 13.552 8.16794 14.042 8.76994 14.042C9.38594 14.042 9.87594 13.552 9.87594 12.936Z" fill="#277D59"/>
</svg>
