<svg width="281" height="67" viewBox="0 0 281 67" fill="none" xmlns="http://www.w3.org/2000/svg">
<path d="M5.12148 14.9843V33.3409C5.89399 33.4151 6.72211 33.4523 7.61514 33.4523C10.0223 33.4523 11.9072 32.5767 13.273 30.8224C14.6357 29.0743 15.3125 26.627 15.3125 23.4804C15.3125 17.7287 12.6396 14.8512 7.30304 14.8512C6.79009 14.8543 6.05777 14.8976 5.12148 14.9843ZM6.31114 37.6911H0.353516V10.8136C4.15737 10.6805 6.54909 10.6094 7.52246 10.6094C11.4345 10.6094 14.5338 11.7572 16.8297 14.053C19.1194 16.3487 20.2658 19.3932 20.2658 23.1864C20.2658 32.8552 15.6153 37.6911 6.31114 37.6911Z" fill="white"/>
<path d="M34.1992 22.3077C33.3803 21.7632 32.4842 21.494 31.5047 21.494C30.4448 21.494 29.4961 21.9829 28.6742 22.9513C27.8461 23.9166 27.4382 25.0985 27.4382 26.4908V37.691H22.8525V18.0257H27.4382V19.8294C28.7174 18.3815 30.4263 17.6667 32.5522 17.6667C34.1158 17.6667 35.3116 17.9019 36.1459 18.3815L34.1992 22.3077Z" fill="white"/>
<path d="M47.7553 28.4401C46.9705 28.2792 46.3865 28.2018 45.994 28.2018C42.3756 28.2018 40.5679 29.3838 40.5679 31.7599C40.5679 33.5235 41.5876 34.4084 43.6301 34.4084C46.3803 34.4084 47.7553 33.0285 47.7553 30.281V28.4401ZM48.1941 35.7234C47.7801 36.4071 47.0539 36.9702 46.0249 37.4096C44.9898 37.8396 43.9113 38.0593 42.7866 38.0593C40.673 38.0593 39.0074 37.5302 37.7992 36.4721C36.5879 35.4139 35.9854 33.9134 35.9854 31.9641C35.9854 29.687 36.8382 27.9079 38.547 26.6239C40.2465 25.343 42.6691 24.6964 45.8086 24.6964C46.3494 24.6964 46.9828 24.7892 47.7183 24.9686C47.7183 22.6605 46.2598 21.4972 43.3366 21.4972C41.6154 21.4972 40.1693 21.7911 39.0105 22.3635L38.0217 18.8023C39.5945 18.0443 41.4733 17.6699 43.6517 17.6699C46.646 17.6699 48.84 18.3475 50.2336 19.7119C51.6272 21.0764 52.3255 23.663 52.3255 27.4717V31.6733C52.3255 34.2939 52.8508 35.9399 53.8984 36.6144C53.5183 37.2734 53.098 37.6818 52.6314 37.8303C52.1679 37.9819 51.6395 38.0624 51.037 38.0624C50.3788 38.0624 49.7886 37.818 49.2602 37.3291C48.7318 36.8341 48.3795 36.305 48.1941 35.7234Z" fill="white"/>
<path d="M60.3841 24.9344C60.3841 26.0947 60.7085 27.0291 61.3451 27.7314C61.9909 28.4368 62.8561 28.7865 63.9407 28.7865C65.0284 28.7865 65.8658 28.4492 66.4529 27.7592C67.04 27.0755 67.3367 26.1318 67.3367 24.9344C67.3367 23.9413 67.0215 23.1028 66.3881 22.419C65.7577 21.7291 64.945 21.3887 63.9407 21.3887C62.8932 21.3887 62.0342 21.7198 61.3729 22.3819C60.7147 23.044 60.3841 23.8918 60.3841 24.9344ZM55.8046 42.7403L58.7031 39.1575C60.2976 40.6271 62.0867 41.3666 64.055 41.3666C65.3776 41.3666 66.4653 41.1655 67.3213 40.7757C68.1772 40.3858 68.6005 39.8475 68.6005 39.1575C68.6005 37.9942 67.6519 37.4156 65.7608 37.4156C65.2478 37.4156 64.4815 37.4744 63.4679 37.595C62.4544 37.7157 61.6881 37.7807 61.1782 37.7807C58.0233 37.7807 56.4504 36.6514 56.4504 34.3897C56.4504 33.7399 56.7131 33.1026 57.2384 32.4807C57.7606 31.8526 58.3724 31.3947 59.0708 31.1038C56.8367 29.6435 55.7119 27.5829 55.7119 24.919C55.7119 22.812 56.4875 21.0669 58.0233 19.6932C59.5683 18.3164 61.4594 17.6295 63.7059 17.6295C65.4703 17.6295 66.9412 17.9575 68.1308 18.6196L69.9261 16.5281L73.0934 19.4055L70.918 21.002C71.672 22.156 72.049 23.5112 72.049 25.0799C72.049 27.3199 71.3692 29.1113 70.0096 30.4541C68.6407 31.7938 66.9257 32.4621 64.8461 32.4621C64.5186 32.4621 64.0798 32.4343 63.5267 32.3693L62.7758 32.261C62.6892 32.261 62.3648 32.3971 61.7931 32.657C61.2277 32.9169 60.9403 33.1954 60.9403 33.4769C60.9403 33.9658 61.3636 34.2102 62.2103 34.2102C62.5873 34.2102 63.2208 34.1174 64.1169 33.9379C65.0099 33.7523 65.7762 33.6595 66.4097 33.6595C70.8717 33.6595 73.0996 35.454 73.0996 39.0368C73.0996 41.0232 72.2066 42.5794 70.4267 43.7087C68.6407 44.8411 66.49 45.4073 63.9716 45.4073C60.9588 45.4011 58.2365 44.5132 55.8046 42.7403Z" fill="white"/>
<path d="M79.1496 27.815C79.1496 32.1497 80.707 34.3124 83.8218 34.3124C85.2555 34.3124 86.3865 33.7493 87.2239 32.6231C88.0644 31.5 88.4785 29.8942 88.4785 27.815C88.4785 23.5422 86.9273 21.4105 83.8218 21.4105C82.3911 21.4105 81.257 21.9705 80.4104 23.0998C79.5699 24.2229 79.1496 25.7946 79.1496 27.815ZM74.3848 27.815C74.3848 24.8169 75.2469 22.3696 76.9773 20.4916C78.7078 18.6073 80.9882 17.6667 83.8218 17.6667C86.8098 17.6667 89.1181 18.5702 90.7713 20.3771C92.4244 22.1933 93.2464 24.6746 93.2464 27.815C93.2464 30.943 92.409 33.4368 90.728 35.2839C89.044 37.1372 86.748 38.0592 83.8218 38.0592C80.846 38.0592 78.5192 37.1248 76.866 35.2592C75.2129 33.3904 74.3848 30.9059 74.3848 27.815Z" fill="white"/>
<path d="M108.19 37.691V26.3267C108.19 24.6529 107.869 23.4246 107.223 22.6573C106.583 21.8838 105.536 21.4939 104.077 21.4939C103.404 21.4939 102.69 21.6858 101.923 22.0694C101.16 22.4469 100.564 22.9203 100.14 23.4834V37.691H95.5518V18.0256H98.8488L99.6955 19.8634C100.941 18.3938 102.782 17.6636 105.214 17.6636C107.55 17.6636 109.392 18.3597 110.746 19.7644C112.096 21.166 112.77 23.1183 112.77 25.6275V37.691H108.19Z" fill="white"/>
<path d="M186.44 12.2273L184.478 16.1753C183.412 15.114 181.7 14.5788 179.342 14.5788C177.111 14.5788 175.275 15.5162 173.845 17.3943C172.417 19.2754 171.697 21.6516 171.697 24.5259C171.697 27.4033 172.365 29.6836 173.687 31.376C175.013 33.0623 176.78 33.91 178.996 33.91C181.52 33.91 183.507 33.0004 184.935 31.1935L187.151 35.0455C185.207 37.1123 182.364 38.1519 178.613 38.1519C174.858 38.1519 171.938 36.9112 169.868 34.4391C167.785 31.967 166.75 28.5976 166.75 24.3248C166.75 20.346 167.899 17.023 170.205 14.3467C172.51 11.6704 175.458 10.3369 179.048 10.3369C182.129 10.3369 184.592 10.9681 186.44 12.2273Z" fill="white"/>
<path d="M200.317 28.4401C199.526 28.2792 198.945 28.2018 198.553 28.2018C194.937 28.2018 193.126 29.3838 193.126 31.7599C193.126 33.5235 194.149 34.4084 196.189 34.4084C198.939 34.4084 200.32 33.0285 200.32 30.281V28.4401H200.317ZM200.75 35.7234C200.336 36.4071 199.609 36.9702 198.58 37.4096C197.545 37.8396 196.47 38.0593 195.345 38.0593C193.225 38.0593 191.566 37.5302 190.355 36.4721C189.143 35.4139 188.544 33.9134 188.544 31.9641C188.544 29.687 189.394 27.9079 191.102 26.6239C192.802 25.343 195.228 24.6964 198.367 24.6964C198.908 24.6964 199.541 24.7892 200.274 24.9686C200.274 22.6605 198.818 21.4972 195.889 21.4972C194.171 21.4972 192.734 21.7911 191.569 22.3635L190.577 18.8023C192.15 18.0443 194.032 17.6699 196.21 17.6699C199.205 17.6699 201.395 18.3475 202.795 19.7119C204.186 21.0764 204.881 23.663 204.881 27.4717V31.6733C204.881 34.2939 205.403 35.9399 206.457 36.6144C206.077 37.2734 205.654 37.6818 205.19 37.8303C204.73 37.9819 204.195 38.0624 203.599 38.0624C202.934 38.0624 202.347 37.818 201.816 37.3291C201.287 36.8341 200.938 36.305 200.75 35.7234Z" fill="white"/>
<path d="M212.986 22.8399V33.1738C213.817 33.8483 214.791 34.1855 215.9 34.1855C218.01 34.1855 219.534 33.6751 220.455 32.6695C221.382 31.6578 221.836 30.0644 221.836 27.8862C221.836 25.5626 221.385 23.9228 220.461 22.976C219.546 22.0262 218.032 21.5528 215.915 21.5528C214.818 21.5528 213.842 21.9829 212.986 22.8399ZM212.986 37.196V45.4012H208.4V18.0287H212.986V19.353C214.135 18.2237 215.548 17.6667 217.219 17.6667C223.477 17.6667 226.613 21.1165 226.613 28.0161C226.613 31.237 225.745 33.7122 224.008 35.4541C222.281 37.1929 219.92 38.0623 216.926 38.0623C215.486 38.0592 214.173 37.7715 212.986 37.196Z" fill="white"/>
<path d="M232.423 10.4082C233.158 10.4082 233.782 10.6712 234.295 11.191C234.824 11.7139 235.083 12.3388 235.083 13.0721C235.083 13.8054 234.824 14.4335 234.295 14.9563C233.779 15.4792 233.158 15.736 232.423 15.736C231.69 15.736 231.063 15.4792 230.541 14.9563C230.025 14.4335 229.768 13.8085 229.768 13.0721C229.768 12.3388 230.028 11.7108 230.541 11.191C231.066 10.6712 231.69 10.4082 232.423 10.4082ZM230.062 37.691V21.7941H227.55V18.0256H234.697V37.691H230.062Z" fill="white"/>
<path d="M240.28 21.7198H238.006V18.0255H240.28V14.0219L244.86 12.3357V18.0224H250.249V21.7167H244.86V30.3272C244.86 31.735 245.079 32.7282 245.524 33.3098C245.96 33.8915 246.729 34.1854 247.826 34.1854C248.929 34.1854 249.955 33.8822 250.91 33.282V37.5084C249.844 37.8735 248.33 38.0591 246.358 38.0591C244.405 38.0591 242.901 37.5053 241.853 36.3976C240.799 35.2931 240.277 33.7121 240.277 31.67V21.7198H240.28Z" fill="white"/>
<path d="M264.955 28.4401C264.173 28.2792 263.583 28.2018 263.193 28.2018C259.578 28.2018 257.764 29.3838 257.764 31.7599C257.764 33.5235 258.793 34.4084 260.832 34.4084C263.579 34.4084 264.955 33.0285 264.955 30.281V28.4401ZM265.393 35.7234C264.985 36.4071 264.259 36.9702 263.224 37.4096C262.186 37.8396 261.114 38.0593 259.986 38.0593C257.872 38.0593 256.207 37.5302 254.995 36.4721C253.787 35.4139 253.185 33.9134 253.185 31.9641C253.185 29.687 254.034 27.9079 255.746 26.6239C257.452 25.343 259.871 24.6964 263.014 24.6964C263.555 24.6964 264.185 24.7892 264.921 24.9686C264.921 22.6605 263.462 21.4972 260.533 21.4972C258.812 21.4972 257.369 21.7911 256.21 22.3635L255.224 18.8023C256.797 18.0443 258.673 17.6699 260.848 17.6699C263.842 17.6699 266.042 18.3475 267.433 19.7119C268.823 21.0764 269.525 23.663 269.525 27.4717V31.6733C269.525 34.2939 270.053 35.9399 271.098 36.6144C270.724 37.2734 270.303 37.6818 269.837 37.8303C269.367 37.9819 268.839 38.0624 268.239 38.0624C267.578 38.0624 266.988 37.818 266.466 37.3291C265.934 36.8341 265.576 36.305 265.393 35.7234Z" fill="white"/>
<path d="M273.906 10.7051L278.486 9.60059V31.7102C278.486 34.1297 279.209 35.5746 280.646 36.0387C279.941 37.3877 278.724 38.0591 277.015 38.0591C274.941 38.0591 273.906 36.6173 273.906 33.7244V10.7051Z" fill="white"/>
<path d="M125.111 13.8456C123.686 14.4149 123.569 14.5881 122.886 16.7446C122.206 18.8919 119.716 19.1641 116.897 17.9172C118.371 17.7997 120.47 18.075 121.298 16.7261C121.752 15.9866 122.002 15.3028 122.358 14.8202C122.988 13.9538 123.736 13.6042 125.111 13.8456Z" fill="white"/>
<path d="M154.291 33.7152C154.134 35.1848 153.228 35.7108 152.317 35.0394C151.405 34.368 150.484 32.4992 147.892 29.5228C149.727 26.2277 151.498 26.8311 152.681 28.3347C153.859 29.8384 154.452 32.2455 154.291 33.7152ZM139.922 25.2129C139.051 24.8509 138.482 24.2197 138.214 23.3132C138.788 23.1276 139.28 23.2606 139.681 23.7092C140.086 24.1579 140.167 24.6622 139.922 25.2129ZM139.922 10.4546C139.922 15.2038 139.922 15.5535 139.558 15.0151C139.193 14.4768 138.467 13.0535 139.922 10.4546ZM151.374 22.3015C151.628 21.1196 152.385 20.3368 153.652 19.9562C150.404 18.3504 150.086 15.9217 152.7 12.6699C148.652 12.7132 147.237 10.5165 148.46 6.08277C144.795 6.42002 143.757 4.39346 145.361 0C140.871 0.949854 140.775 4.91015 139.431 7.98248C138.084 11.0548 135.491 13.2392 139.162 16.8529C137.645 20.2099 136.285 19.291 136.088 18.6722C135.893 18.0534 136.863 17.7378 136.78 17.1995C136.696 16.6611 135.556 15.9 137.012 15.5844C136.635 14.7057 136.19 13.8611 135.68 13.0504C136.02 13.004 136.363 13.0257 136.696 13.1123C136.322 12.0387 135.621 11.1414 134.669 10.5134C135.148 10.2844 135.677 10.2411 136.19 10.3865C135.67 9.50164 134.935 8.78692 134.036 8.29498C134.444 7.77828 134.96 7.36987 135.556 7.09141C134.54 6.62732 133.449 6.37051 132.33 6.33029C132.219 5.38043 132.241 4.4244 132.392 3.48074C131.125 3.92318 130.875 5.00298 130.461 5.59084C130.05 6.18179 129.481 6.28698 128.869 6.36124C128.257 6.43549 127.605 6.47881 127.213 6.96457C126.821 7.45033 126.697 8.37852 126.379 8.89522C126.06 9.41191 125.557 9.5171 124.605 9.68108C123.656 9.84506 122.266 10.0678 123.023 13.6135C123.091 13.3289 123.27 13.0999 123.53 12.9638C123.789 12.8277 124.08 12.8122 124.352 12.9174C124.352 12.5925 124.537 12.3233 124.843 12.2089C125.149 12.0913 125.464 12.1687 125.68 12.4131C125.853 11.9861 126.224 11.72 126.685 11.6922C127.142 11.6643 127.544 11.884 127.769 12.2862C127.491 12.4595 127.164 12.4595 126.882 12.2862C126.972 12.5368 126.923 12.7998 126.746 13.0009C126.573 13.202 126.32 13.2887 126.06 13.2361C126.249 14.3128 125.649 14.155 125.306 14.1828C124.963 14.2076 124.88 14.418 124.92 14.5572C124.963 14.6933 125.13 14.7583 125.331 14.9904C125.532 15.2224 125.761 15.6215 126.28 15.4421C126.796 15.2626 127.599 14.5046 128.684 14.3128C129.768 14.1241 131.137 14.5046 130.529 15.7917C129.917 17.0788 127.324 19.2755 126.87 22.286C126.419 25.2964 128.103 29.1144 129.011 31.4906C129.92 33.8668 130.047 34.795 129.867 35.2591C129.688 35.7263 129.203 35.7263 128.199 35.6427C127.198 35.5623 125.68 35.4076 125.68 37.6848H132.701C132.76 36.441 132.478 35.2312 131.879 34.136C132.392 33.9906 132.926 33.9472 133.461 34.0091C132.92 33.5419 132.729 32.852 132.954 32.1744C134.104 32.8922 135.334 33.4646 136.625 33.8822C136.119 34.8321 136.962 35.4664 136.82 35.6551C136.749 35.751 136.434 35.7356 135.819 35.7108C135.201 35.6891 134.283 35.6551 134.283 37.6817H151.618C152.987 37.6817 155.311 37.6817 156.754 35.321C158.203 32.9757 158.775 28.2543 151.374 22.3015Z" fill="white"/>
<path d="M63.0253 63.3937C62.9459 63.4149 62.7501 63.4255 62.4379 63.4255C61.7764 63.4255 61.2922 63.2561 60.9852 62.9174C60.6783 62.5735 60.4534 61.9861 60.3105 61.1552C60.12 60.0174 59.7284 59.1893 59.1357 58.6706C58.543 58.1467 57.7148 57.8848 56.6511 57.8848H56.5876V63.3461H55V51.7249H56.5876V56.5353H56.7384C57.728 56.5353 58.5218 56.3078 59.1198 55.8527C59.7231 55.3923 60.0988 54.7255 60.247 53.8523C60.3793 53.0744 60.5936 52.5134 60.89 52.1694C61.1916 51.8255 61.6599 51.6535 62.295 51.6535C62.5014 51.6535 62.6866 51.6667 62.8506 51.6932V53.0585C62.8136 53.0479 62.7051 53.0426 62.5252 53.0426C62.3241 53.0426 62.168 53.1114 62.0568 53.249C61.951 53.3813 61.8505 53.6803 61.7552 54.146C61.607 54.8922 61.2922 55.5378 60.8106 56.0829C60.329 56.6226 59.7231 56.9957 58.9928 57.2021C60.591 57.7578 61.562 58.9485 61.906 60.7742C62.0066 61.3034 62.1151 61.6421 62.2315 61.7903C62.3532 61.9384 62.504 62.0125 62.6839 62.0125C62.7951 62.0125 62.9089 62.0019 63.0253 61.9808V63.3937Z" fill="white"/>
<path d="M68.1373 54.6778C69.3545 54.6778 70.2964 55.0721 70.9632 55.8606C71.6353 56.6438 71.9714 57.7128 71.9714 59.0675C71.9714 60.4593 71.6221 61.5468 70.9235 62.33C70.225 63.1132 69.2963 63.5049 68.1373 63.5049C66.9255 63.5049 65.9808 63.108 65.3035 62.3142C64.6261 61.5204 64.2874 60.4382 64.2874 59.0675C64.2874 57.7604 64.642 56.702 65.3511 55.8924C66.0602 55.0827 66.989 54.6778 68.1373 54.6778ZM68.1373 62.2745C68.8464 62.2745 69.3968 61.9808 69.7884 61.3934C70.1853 60.8059 70.3838 60.0307 70.3838 59.0675C70.3838 56.9666 69.635 55.9162 68.1373 55.9162C67.4282 55.9162 66.8699 56.2019 66.4624 56.7735C66.0602 57.345 65.8591 58.1097 65.8591 59.0675C65.8591 61.2055 66.6185 62.2745 68.1373 62.2745Z" fill="white"/>
<path d="M75.083 62.8778V66.68H73.5669V54.8445H75.083V55.5431C75.6546 54.9663 76.3425 54.6778 77.1469 54.6778C78.3482 54.6778 79.2849 55.0589 79.9569 55.8209C80.629 56.5777 80.9651 57.6784 80.9651 59.1231C80.9651 60.4249 80.6237 61.4807 79.9411 62.2903C79.2637 63.1 78.2873 63.5049 77.012 63.5049C76.6627 63.5049 76.2817 63.4414 75.8689 63.3143C75.4614 63.1873 75.1995 63.0418 75.083 62.8778ZM75.083 56.6782V61.6394C75.1995 61.7929 75.4059 61.9331 75.7022 62.0601C75.9986 62.1819 76.2896 62.2427 76.5754 62.2427C78.4487 62.2427 79.3854 61.179 79.3854 59.0517C79.3854 57.9509 79.1579 57.1598 78.7027 56.6782C78.2476 56.1913 77.5385 55.9479 76.5754 55.9479C76.369 55.9479 76.107 56.0273 75.7895 56.1861C75.472 56.3448 75.2365 56.5089 75.083 56.6782Z" fill="white"/>
<path d="M89.3634 63.3461H87.8552V56.1146H84.1482V63.3461H82.632V54.8445H89.3634V63.3461Z" fill="white"/>
<path d="M94.8089 54.6778C96.026 54.6778 96.968 55.0721 97.6348 55.8606C98.3069 56.6438 98.6429 57.7128 98.6429 59.0675C98.6429 60.4593 98.2936 61.5468 97.5951 62.33C96.8966 63.1132 95.9678 63.5049 94.8089 63.5049C93.597 63.5049 92.6524 63.108 91.975 62.3142C91.2976 61.5204 90.959 60.4382 90.959 59.0675C90.959 57.7604 91.3135 56.702 92.0226 55.8924C92.7318 55.0827 93.6605 54.6778 94.8089 54.6778ZM94.8089 62.2745C95.518 62.2745 96.0684 61.9808 96.46 61.3934C96.8569 60.8059 97.0553 60.0307 97.0553 59.0675C97.0553 56.9666 96.3065 55.9162 94.8089 55.9162C94.0997 55.9162 93.5414 56.2019 93.134 56.7735C92.7318 57.345 92.5307 58.1097 92.5307 59.0675C92.5307 61.2055 93.2901 62.2745 94.8089 62.2745Z" fill="white"/>
<path d="M101.755 62.8778V66.68H100.238V54.8445H101.755V55.5431C102.326 54.9663 103.014 54.6778 103.818 54.6778C105.02 54.6778 105.956 55.0589 106.628 55.8209C107.301 56.5777 107.637 57.6784 107.637 59.1231C107.637 60.4249 107.295 61.4807 106.613 62.2903C105.935 63.1 104.959 63.5049 103.684 63.5049C103.334 63.5049 102.953 63.4414 102.54 63.3143C102.133 63.1873 101.871 63.0418 101.755 62.8778ZM101.755 56.6782V61.6394C101.871 61.7929 102.077 61.9331 102.374 62.0601C102.67 62.1819 102.961 62.2427 103.247 62.2427C105.12 62.2427 106.057 61.179 106.057 59.0517C106.057 57.9509 105.829 57.1598 105.374 56.6782C104.919 56.1913 104.21 55.9479 103.247 55.9479C103.041 55.9479 102.779 56.0273 102.461 56.1861C102.144 56.3448 101.908 56.5089 101.755 56.6782Z" fill="white"/>
<path d="M114.019 62.3697C113.405 63.1265 112.484 63.5049 111.256 63.5049C110.584 63.5049 110.005 63.2614 109.518 62.7746C109.031 62.2877 108.788 61.6871 108.788 60.9726C108.788 60.1101 109.161 59.3824 109.907 58.7897C110.658 58.197 111.621 57.9007 112.796 57.9007C113.119 57.9007 113.484 57.9642 113.892 58.0912C113.892 56.7153 113.273 56.0273 112.034 56.0273C111.108 56.0273 110.383 56.284 109.859 56.7973L109.224 55.5431C109.478 55.3261 109.862 55.1277 110.375 54.9477C110.894 54.7678 111.394 54.6778 111.875 54.6778C113.071 54.6778 113.955 54.9504 114.527 55.4955C115.098 56.0405 115.384 56.9455 115.384 58.2102V61.2505C115.384 61.9966 115.606 62.4941 116.051 62.7428V63.489C115.395 63.489 114.918 63.3911 114.622 63.1953C114.331 62.9995 114.13 62.7243 114.019 62.3697ZM113.892 59.1707C113.352 59.0596 113.016 59.004 112.884 59.004C112.122 59.004 111.5 59.2025 111.018 59.5994C110.537 59.9963 110.296 60.4593 110.296 60.9885C110.296 61.8776 110.817 62.3221 111.86 62.3221C112.606 62.3221 113.283 61.9596 113.892 61.2346V59.1707Z" fill="white"/>
<path d="M123.457 56.1146H121.02V63.3461H119.512V56.1146H117.067V54.8445H123.457V56.1146Z" fill="white"/>
<path d="M132.173 63.3461H130.665V57.5276L125.362 63.5763H125.021V54.8445H126.537V60.6631L131.832 54.6143H132.173V63.3461Z" fill="white"/>
<path d="M139.396 58.7818C140.481 59.131 141.024 59.8455 141.024 60.925C141.024 61.6236 140.754 62.203 140.214 62.6634C139.674 63.1185 138.865 63.3461 137.785 63.3461H134.324V54.8604C135.52 54.7969 136.626 54.7652 137.642 54.7652C138.6 54.7652 139.343 54.961 139.873 55.3526C140.402 55.7389 140.666 56.3051 140.666 57.0513C140.666 57.427 140.553 57.771 140.325 58.0832C140.098 58.3955 139.788 58.6283 139.396 58.7818ZM135.753 58.3055C135.838 58.3161 136.446 58.3214 137.579 58.3214C138.653 58.3214 139.19 57.9033 139.19 57.0672C139.19 56.7073 139.063 56.4268 138.809 56.2257C138.56 56.0194 138.208 55.9162 137.753 55.9162C136.88 55.9162 136.213 55.9373 135.753 55.9797V58.3055ZM135.753 62.1395C136.351 62.1766 136.97 62.1951 137.61 62.1951C138.875 62.1951 139.508 61.7347 139.508 60.8139C139.508 60.3694 139.343 60.028 139.015 59.7899C138.687 59.5465 138.208 59.4247 137.579 59.4247C136.769 59.4247 136.16 59.438 135.753 59.4644V62.1395Z" fill="white"/>
<path d="M149.668 63.3461H148.152V59.5121H144.239V63.3461H142.722V54.8445H144.239V58.2579H148.152V54.8445H149.668V63.3461Z" fill="white"/>
<path d="M160.813 63.3461H159.329V54.8445H160.813V63.3461ZM153.304 57.9642C153.738 57.9007 154.219 57.8689 154.748 57.8689C155.839 57.8689 156.669 58.1044 157.241 58.5754C157.812 59.0464 158.098 59.7423 158.098 60.6631C158.098 61.1235 157.969 61.5733 157.709 62.0125C157.45 62.4465 157.072 62.7772 156.574 63.0048C156.077 63.2323 155.458 63.3461 154.717 63.3461H151.819V54.8445H153.304V57.9642ZM153.304 62.1237C153.664 62.1607 154.145 62.1792 154.748 62.1792C155.309 62.1792 155.757 62.0443 156.09 61.7744C156.429 61.5045 156.598 61.1235 156.598 60.6313C156.598 60.0968 156.421 59.6973 156.066 59.4327C155.717 59.1681 155.251 59.0358 154.669 59.0358C154.352 59.0358 153.896 59.0702 153.304 59.139V62.1237Z" fill="white"/>
<path d="M170.116 63.3461H168.608V57.5276L163.306 63.5763H162.964V54.8445H164.48V60.6631L169.775 54.6143H170.116V63.3461ZM169.537 50.7327C169.182 52.3573 168.232 53.1696 166.687 53.1696C165.147 53.1696 164.2 52.3573 163.845 50.7327L165.195 50.4231C165.391 51.508 165.888 52.0504 166.687 52.0504C167.581 52.0504 168.103 51.5132 168.251 50.439L169.537 50.7327Z" fill="white"/>
<path d="M183.905 63.3461H182.396V56.1146H178.689V63.3461H177.173V54.8445H183.905V63.3461Z" fill="white"/>
<path d="M189.35 54.6778C190.567 54.6778 191.509 55.0721 192.176 55.8606C192.848 56.6438 193.184 57.7128 193.184 59.0675C193.184 60.4593 192.835 61.5468 192.136 62.33C191.438 63.1132 190.509 63.5049 189.35 63.5049C188.138 63.5049 187.193 63.108 186.516 62.3142C185.839 61.5204 185.5 60.4382 185.5 59.0675C185.5 57.7604 185.855 56.702 186.564 55.8924C187.273 55.0827 188.202 54.6778 189.35 54.6778ZM189.35 62.2745C190.059 62.2745 190.609 61.9808 191.001 61.3934C191.398 60.8059 191.596 60.0307 191.596 59.0675C191.596 56.9666 190.848 55.9162 189.35 55.9162C188.641 55.9162 188.083 56.2019 187.675 56.7735C187.273 57.345 187.072 58.1097 187.072 59.0675C187.072 61.2055 187.831 62.2745 189.35 62.2745Z" fill="white"/>
<path d="M196.296 62.8778V66.68H194.78V54.8445H196.296V55.5431C196.867 54.9663 197.555 54.6778 198.36 54.6778C199.561 54.6778 200.498 55.0589 201.17 55.8209C201.842 56.5777 202.178 57.6784 202.178 59.1231C202.178 60.4249 201.836 61.4807 201.154 62.2903C200.476 63.1 199.5 63.5049 198.225 63.5049C197.875 63.5049 197.494 63.4414 197.082 63.3143C196.674 63.1873 196.412 63.0418 196.296 62.8778ZM196.296 56.6782V61.6394C196.412 61.7929 196.619 61.9331 196.915 62.0601C197.211 62.1819 197.502 62.2427 197.788 62.2427C199.661 62.2427 200.598 61.179 200.598 59.0517C200.598 57.9509 200.371 57.1598 199.915 56.6782C199.46 56.1913 198.751 55.9479 197.788 55.9479C197.582 55.9479 197.32 56.0273 197.002 56.1861C196.685 56.3448 196.449 56.5089 196.296 56.6782Z" fill="white"/>
<path d="M209.647 56.1146H207.21V63.3461H205.702V56.1146H203.257V54.8445H209.647V56.1146Z" fill="white"/>
<path d="M215.926 62.3697C215.312 63.1265 214.392 63.5049 213.164 63.5049C212.492 63.5049 211.912 63.2614 211.425 62.7746C210.939 62.2877 210.695 61.6871 210.695 60.9726C210.695 60.1101 211.068 59.3824 211.814 58.7897C212.566 58.197 213.529 57.9007 214.704 57.9007C215.027 57.9007 215.392 57.9642 215.799 58.0912C215.799 56.7153 215.18 56.0273 213.942 56.0273C213.016 56.0273 212.291 56.284 211.767 56.7973L211.132 55.5431C211.386 55.3261 211.769 55.1277 212.283 54.9477C212.801 54.7678 213.301 54.6778 213.783 54.6778C214.979 54.6778 215.863 54.9504 216.434 55.4955C217.006 56.0405 217.292 56.9455 217.292 58.2102V61.2505C217.292 61.9966 217.514 62.4941 217.958 62.7428V63.489C217.302 63.489 216.826 63.3911 216.53 63.1953C216.238 62.9995 216.037 62.7243 215.926 62.3697ZM215.799 59.1707C215.259 59.0596 214.923 59.004 214.791 59.004C214.029 59.004 213.407 59.2025 212.926 59.5994C212.444 59.9963 212.203 60.4593 212.203 60.9885C212.203 61.8776 212.725 62.3221 213.767 62.3221C214.513 62.3221 215.191 61.9596 215.799 61.2346V59.1707Z" fill="white"/>
<path d="M226.619 63.3461H225.11V56.0432H222.832C222.806 57.2392 222.684 58.3452 222.467 59.3612C222.25 60.372 221.956 61.2081 221.586 61.8696C221.216 62.5258 220.813 62.9518 220.379 63.1476C219.946 63.3435 219.424 63.4414 218.816 63.4414V62.0601C219.763 62.0601 220.432 61.3272 220.824 59.8613C221.221 58.3902 221.419 56.9825 221.419 55.6383V54.8445H226.619V63.3461Z" fill="white"/>
</svg>
