<svg width="50" height="50" viewBox="0 0 50 50" fill="none" xmlns="http://www.w3.org/2000/svg">
<rect width="50" height="50" fill="#1A83D4"/>
<path d="M15.5798 26.0356C15.5074 25.7588 15.4326 25.4731 15.3462 25.178C15.4407 24.9064 15.5218 24.6249 15.6033 24.3423C15.7851 23.7115 15.9684 23.0753 16.3058 22.5314C17.16 21.1534 19.0085 21.3326 19.7122 22.7894C20.4656 24.3489 20.4122 25.9537 19.8093 27.5399C19.5098 28.3282 18.8663 28.822 18.0218 28.8733C17.1698 28.9253 16.4571 28.4858 16.1199 27.7295C15.8854 27.204 15.7382 26.6409 15.5798 26.0356Z" fill="white"/>
<path fill-rule="evenodd" clip-rule="evenodd" d="M9.01584 22.5287C9.01514 23.5023 9.01443 24.4759 9.01443 25.4495C9.01443 26.4401 9.01547 27.4306 9.01651 28.4211C9.01952 31.2983 9.02253 34.1756 9.00013 37.0528C8.99411 37.7504 9.1913 38.0255 9.91985 38.1438C11.7981 38.4479 13.6725 38.776 15.5469 39.1042C17.2981 39.4108 19.0493 39.7174 20.8037 40.0044C22.1689 40.2274 23.5417 40.4047 24.9145 40.582C25.6063 40.6713 26.2981 40.7607 26.9889 40.8559C27.6467 40.9459 27.8326 40.6573 27.8198 40.0312C27.8039 39.2521 27.8076 38.4725 27.8112 37.6928C27.8156 36.7801 27.8199 35.8673 27.7927 34.9557C27.7686 34.1689 28.0554 33.9391 28.8246 33.9436C31.5287 33.9601 34.2333 33.9496 36.9379 33.9391C37.7668 33.9359 38.5958 33.9326 39.4247 33.9302C40.5988 33.9265 41.0037 33.5896 41 32.4035C40.9857 27.8419 40.948 23.2795 40.8796 18.718C40.8592 17.395 40.6688 17.2671 39.3261 17.2648C37.286 17.2618 35.2462 17.2621 33.2064 17.2624C31.7943 17.2626 30.3821 17.2628 28.9698 17.2619C27.8108 17.2611 27.8093 17.2574 27.8085 16.0854C27.8081 15.6421 27.807 15.1989 27.8058 14.7556C27.8023 13.426 27.7987 12.0966 27.8168 10.7675C27.8243 10.2232 27.6587 9.96511 27.077 10.0038C26.8388 10.0195 26.598 10.0164 26.3577 10.0133C25.9965 10.0086 25.6362 10.0039 25.2864 10.0633C23.1716 10.4224 21.0582 10.7895 18.9448 11.1566C15.9114 11.6836 12.8781 12.2105 9.84083 12.7137C9.10927 12.8349 8.99938 13.1383 9.00314 13.7667C9.02008 16.6876 9.01796 19.608 9.01584 22.5287ZM27.8433 23.7841C27.8205 23.9891 27.804 24.1367 27.804 24.2842C27.8026 25.1322 27.804 25.9802 27.8053 26.8281C27.8083 28.6387 27.8113 30.4493 27.7867 32.2599C27.7777 32.9441 28.0132 33.1151 28.674 33.1099C32.1798 33.0817 35.6864 33.0794 39.1921 33.1114C39.8906 33.1181 40.1533 32.9329 40.148 32.2168C40.1317 29.8586 40.1325 27.5 40.1333 25.1416C40.1337 23.794 40.1342 22.4465 40.1314 21.0991C40.1309 20.9248 40.1001 20.7507 40.0608 20.5287C40.0397 20.4098 40.0163 20.2772 39.9937 20.1235C39.7551 20.3389 39.533 20.538 39.3223 20.7268C38.9077 21.0984 38.5376 21.4302 38.1738 21.7684C37.5081 22.3877 36.8441 23.0087 36.1802 23.6298C35.2065 24.5407 34.2327 25.4517 33.2531 26.3568C32.3153 27.2239 32.1648 27.2291 31.2247 26.4126C30.8473 26.0849 30.4848 25.7403 30.1224 25.3956C29.8777 25.163 29.6331 24.9303 29.3838 24.7029C29.0819 24.4273 28.7724 24.1599 28.4203 23.8556C28.2526 23.7107 28.0753 23.5575 27.8845 23.3911C27.87 23.5451 27.8557 23.673 27.8433 23.7841ZM39.1736 18.1186C38.3951 18.0626 37.7092 18.0132 37.023 18.0107C34.1201 18.0003 31.2172 18.0234 28.315 18.0717C28.1419 18.0747 27.8356 18.4093 27.8273 18.5997C27.7807 19.6988 27.7799 20.8017 27.8228 21.9015C27.8326 22.1574 28.02 22.4585 28.2164 22.6459C28.7476 23.1519 29.2883 23.6481 29.829 24.1443C30.4429 24.7077 31.0568 25.2712 31.6567 25.8489C32.0639 26.2415 32.3424 26.2229 32.7405 25.8511C33.6826 24.9709 34.6295 24.0958 35.5765 23.2208C36.8721 22.0237 38.1676 20.8266 39.4503 19.6163C39.6772 19.4018 39.8411 19.1228 40.0401 18.7841C40.1446 18.606 40.2589 18.4115 40.3971 18.2011C39.9597 18.1752 39.5555 18.1461 39.1736 18.1186ZM16.3766 19.5374C13.8778 20.6797 13.2953 22.8854 13.0649 25.7782C13.1277 25.9948 13.1878 26.2502 13.2536 26.5299C13.4198 27.2361 13.6223 28.0968 13.996 28.8777C15.3522 31.7118 19.3005 32.1751 21.3801 29.8259C23.3317 27.6217 23.489 23.2237 21.6999 20.8745C20.4732 19.263 18.2318 18.6889 16.3766 19.5374Z" fill="white"/>
</svg>
