<svg width="50" height="50" viewBox="0 0 50 50" fill="none" xmlns="http://www.w3.org/2000/svg">
<rect width="50" height="50" fill="#D71E00"/>
<path d="M11 36.5987C11.8321 34.2814 13.6541 32.8925 15.6715 31.7416C16.7448 31.1293 17.9355 30.7263 19.0565 30.193C19.318 30.0687 19.6038 29.8423 19.7198 29.5894C20.8305 27.1745 21.9032 24.7424 22.9981 22.3202C23.1445 21.9965 23.1301 21.7422 22.9397 21.4295C21.6508 19.3132 20.9928 17.0134 21.1192 14.5298C21.1537 13.8481 21.2815 13.1199 21.5727 12.5121C22.4879 10.6032 24.7592 10.4878 25.9389 12.2449C26.5407 13.141 26.7039 14.1648 26.7227 15.2141C26.7567 17.118 26.224 18.9161 25.5432 20.6571C25.2492 21.4095 25.3079 21.9419 25.8257 22.5337C27.3411 24.2654 28.8171 26.0317 30.331 27.7646C30.4599 27.9122 30.7584 27.9747 30.9766 27.9713C32.887 27.9423 34.7882 28.0045 36.6366 28.5479C37.1755 28.7065 37.711 28.9088 38.21 29.1653C39.6787 29.9196 40.3142 31.3408 39.8509 32.7367C39.4336 33.9939 37.9725 34.75 36.4262 34.5193C35.1426 34.3278 33.9949 33.8215 33.0305 32.9612C32.0457 32.0825 31.0993 31.16 30.1574 30.2346C29.9106 29.9919 29.6879 29.8622 29.3254 29.8965C26.5413 30.1606 23.8019 30.6579 21.1217 31.4573C20.9097 31.5205 20.7083 31.7551 20.585 31.9602C19.576 33.641 18.6131 35.3499 17.5786 37.0144C17.1837 37.6498 16.7049 38.268 16.1435 38.7543C15.562 39.2577 14.8341 39.5919 14.1702 40C13.7928 40 13.4154 40 13.0379 40C11.9725 39.5933 11.3493 38.7864 11 37.7328C11 37.3547 11 36.9767 11 36.5987ZM28.1119 28.1294C26.8755 26.6693 25.6446 25.2164 24.3955 23.7414C23.5671 25.6065 22.7564 27.4321 21.9434 29.2626C24.0389 28.8775 26.0566 28.5068 28.1119 28.1294ZM18.1332 32.58C16.5715 33.2002 15.1632 34.0398 14.0028 35.2475C13.6282 35.6374 13.2763 36.0685 13.0062 36.5343C12.6656 37.1216 12.77 37.6889 13.2115 38.0182C13.7156 38.3946 14.1657 38.1161 14.5322 37.7865C16.1393 36.3405 17.1127 34.4482 18.1332 32.58ZM32.3849 29.8501C33.2734 30.7789 34.1308 31.7453 35.308 32.2878C35.8413 32.5336 36.4526 32.6484 37.0412 32.7229C37.5029 32.7814 37.9722 32.6152 38.1317 32.1053C38.3044 31.5526 38.0073 31.1546 37.5532 30.8804C37.2813 30.7161 36.9868 30.5814 36.6885 30.4712C35.3105 29.9612 33.8713 29.8338 32.3849 29.8501ZM24.0279 19.5799C24.5598 17.8802 25.0993 16.3088 24.8502 14.6122C24.7805 14.1389 24.6306 13.647 24.3933 13.2355C24.0445 12.631 23.5306 12.6808 23.1902 13.2988C23.0925 13.4765 23.0147 13.683 22.9959 13.8829C22.9482 14.3892 22.9027 14.9003 22.9215 15.4071C22.9743 16.83 23.2809 18.1921 24.0279 19.5799Z" fill="white"/>
</svg>
