<svg width="50" height="50" viewBox="0 0 50 50" fill="none" xmlns="http://www.w3.org/2000/svg">
<rect width="50" height="50" fill="#FB6643"/>
<path d="M35.2037 20.5797C35.0039 18.0409 32.8873 15.9549 30.5536 16.0568V20.5797H35.2037Z" fill="white"/>
<path d="M17.4502 24.2017C17.3262 24.2155 17.1849 24.2312 17.0176 24.2519C17.0176 23.9554 17.0154 23.6687 17.0133 23.3892C17.0075 22.6117 17.0021 21.8905 17.0446 21.1717C17.0559 20.9791 17.3961 20.6705 17.6102 20.6467C18.6287 20.5344 19.2093 20.9806 19.343 21.8797C19.5338 23.1617 19.0944 23.9151 18.0218 24.124C17.8531 24.1569 17.6816 24.176 17.4502 24.2017Z" fill="white"/>
<path fill-rule="evenodd" clip-rule="evenodd" d="M9 12.0344V37.1945C9.10458 37.2172 9.20693 37.2407 9.30793 37.2639C9.52755 37.3142 9.74082 37.3631 9.9569 37.3998C10.9386 37.5699 11.92 37.7417 12.9015 37.9134C15.5958 38.3849 18.2908 38.8566 20.9906 39.2953C22.3774 39.5207 23.7721 39.6984 25.1669 39.8761C25.8343 39.9611 26.5019 40.0462 27.1684 40.1364C27.6995 40.2086 27.9015 39.9847 27.882 39.4612C27.8704 39.1547 27.8758 38.8471 27.8813 38.5397C27.8882 38.1482 27.8951 37.7568 27.8669 37.3678C27.8166 36.6702 28.051 36.4419 28.7788 36.4516C30.9088 36.4794 33.0395 36.4809 35.1702 36.4825C36.3484 36.4834 37.5265 36.4842 38.7046 36.4895C40.834 36.4992 41.0022 36.346 41 34.2065C40.9958 30.0438 40.9901 25.8811 40.9844 21.7185C40.981 19.2217 40.9775 16.7249 40.9744 14.2282C40.9722 12.6665 40.7048 12.3913 39.1417 12.3898C37.4467 12.388 35.7517 12.388 34.0567 12.388H34.0554C32.3604 12.388 30.6653 12.388 28.9703 12.3861C28.7432 12.3861 28.5161 12.3716 28.2682 12.3558C28.1438 12.3478 28.0142 12.3395 27.8767 12.3326V10.9672C27.876 8.92069 27.704 8.7846 25.6061 9.17205C25.5924 9.17431 25.5791 9.17849 25.5658 9.18264C25.553 9.18667 25.5402 9.19067 25.5273 9.19287C24.457 9.37464 23.3866 9.55608 22.3163 9.73753L22.315 9.73775C19.76 10.1709 17.2049 10.604 14.6505 11.0416C13.3709 11.2608 12.0927 11.4873 10.8133 11.7139C10.2092 11.8209 9.60487 11.928 9 12.0344ZM36.5347 32.5258H29.9054C28.8553 32.5258 28.3321 32.5258 28.0707 32.7874C27.8112 33.0472 27.8098 33.5648 27.807 34.5962L27.8069 34.6653C27.8054 35.3198 27.9886 35.5473 28.6774 35.5406C32.176 35.5094 35.6754 35.5116 39.1748 35.5391C39.8313 35.5443 40.0641 35.3793 40.0611 34.6914C40.0443 29.7515 40.0447 24.8116 40.0451 19.8717C40.0453 17.9633 40.0454 16.0548 40.0446 14.1464C40.0446 13.9905 40.028 13.8346 40.0091 13.6575C39.9999 13.5711 39.9901 13.4794 39.9815 13.3804L38.2553 13.3802C34.9129 13.3797 31.6074 13.3791 28.3018 13.3975C28.1441 13.3982 27.8572 13.6489 27.8519 13.7902C27.8228 14.5987 27.8258 15.4081 27.8289 16.2526C27.8299 16.5195 27.8309 16.7901 27.8309 17.0652C28.2519 17.0064 28.6204 16.9548 29.0232 16.8983L29.6891 16.8049C29.6891 17.2016 29.6937 17.5886 29.6982 17.9689C29.7085 18.8399 29.7184 19.6752 29.6718 20.5076C29.6268 21.3085 29.9175 21.5212 30.6858 21.4855C31.5536 21.4453 32.4235 21.4539 33.3064 21.4625C33.6813 21.4662 34.0587 21.4699 34.4391 21.4699C34.2949 22.83 33.8382 23.9173 32.8933 24.7717C31.4512 26.0754 29.7432 26.1698 27.8196 25.6998C27.8196 25.879 27.8231 26.0473 27.8265 26.208C27.8335 26.5462 27.8399 26.8507 27.8114 27.1522C27.749 27.8066 28.0367 27.9695 28.6601 27.9613C30.3515 27.9392 32.0433 27.9429 33.7353 27.9466L33.7379 27.9466C34.378 27.948 35.0181 27.9494 35.6581 27.9494H36.5136V29.2233H35.4869C34.8442 29.2233 34.2016 29.2242 33.559 29.2252C31.8958 29.2278 30.2327 29.2303 28.57 29.2158C28.0089 29.2106 27.7648 29.4025 27.8166 29.9632C27.8414 30.2304 27.8516 30.4993 27.8627 30.7895C27.8677 30.9217 27.8729 31.0585 27.8797 31.2014H36.5324C36.5347 31.6379 36.5347 32.003 36.5347 32.5258ZM16.0839 18.5372C15.6587 18.5657 15.226 18.5947 14.783 18.6143V28.7823C14.783 30.4015 14.7838 30.4015 16.3828 30.4477L16.4467 30.4496C16.9733 30.4644 17.1062 30.2644 17.0987 29.8018C17.0924 29.4374 17.0964 29.0725 17.1004 28.7077C17.1065 28.1605 17.1125 27.6134 17.0837 27.0682C17.0499 26.4234 17.291 26.2561 17.9189 26.2509C20.058 26.2338 21.3988 25.09 21.8089 23.0137C22.2911 20.5701 21.0007 18.5696 18.7616 18.4596C17.8841 18.4164 17.0012 18.4756 16.0839 18.5372Z" fill="white"/>
</svg>
