<svg width="651" height="113" viewBox="0 0 651 113" fill="none" xmlns="http://www.w3.org/2000/svg">
<path d="M5.392 14.184V12.312H3.36V2.296H5.392V0.424H1.28V14.184H5.392ZM16.0949 13V1.608H13.8709V8.584L9.35888 1.608H7.37488V13H9.59888V6.008L14.1109 13H16.0949ZM27.5499 13L23.3899 1.608H21.6459L17.5019 13H19.8219L20.5099 10.984H24.5579L25.2299 13H27.5499ZM23.9659 9.112H21.1339L22.5739 4.968L23.9659 9.112ZM39.273 13V1.608H37.081L34.121 7.768L31.145 1.608H28.953V13H31.177V6.36L33.369 10.68H34.873L37.049 6.36V13H39.273ZM49.4258 13V11.016H44.1458V8.248H48.6418V6.264H44.1458V3.592H49.4258V1.608H41.9218V13H49.4258ZM55.0653 14.184V0.424H50.9533V2.28H52.9853V12.328H50.9533V14.184H55.0653ZM67.8645 13V5.128H61.7685V13H62.9045V6.12H66.7125V13H67.8645ZM76.9929 9.08C76.9929 6.296 76.0809 5.032 74.0489 5.032C73.5529 5.032 73.1369 5.112 72.7849 5.288C72.4489 5.464 72.2569 5.624 71.8889 6.056V5.128H70.7369V16.52H71.8889V12.072C72.2729 12.52 72.4649 12.68 72.8009 12.84C73.1689 13.016 73.5849 13.096 74.0649 13.096C76.0649 13.096 76.9929 11.816 76.9929 9.08ZM75.8409 9.08C75.8409 11.176 75.2489 12.072 73.8729 12.072C72.4809 12.072 71.8889 11.176 71.8889 9.064C71.8889 6.968 72.4809 6.056 73.8569 6.056C75.2649 6.056 75.8409 6.936 75.8409 9.08ZM85.8076 13V5.128H84.6556L80.6076 11.192V5.128H79.4716V13H80.6076L84.6556 6.904V13H85.8076ZM94.418 1.672H93.49C93.33 2.344 92.882 2.84 91.874 2.84C90.866 2.84 90.402 2.344 90.226 1.672H89.298C89.57 3.048 90.418 3.752 91.858 3.752C93.298 3.752 94.162 3.048 94.418 1.672ZM95.042 13V5.128H93.89L89.842 11.192V5.128H88.706V13H89.842L93.89 6.904V13H95.042ZM105.524 13V5.128H104.388L101.748 10.424L99.0764 5.128H97.9404V13H99.0764V7.4L101.3 11.752H102.18L104.372 7.4V13H105.524ZM109.8 2.152C109.8 1.736 109.432 1.384 109 1.384C108.568 1.384 108.216 1.736 108.216 2.168C108.216 2.6 108.568 2.952 109 2.952C109.448 2.952 109.8 2.6 109.8 2.152ZM109.576 13V5.128H108.424V13H109.576ZM117.639 6.12V5.128H111.207V6.12H113.911V13H115.063V6.12H117.639ZM125.253 10.632C125.253 9.192 124.261 8.248 122.757 8.248H120.389V5.128H119.253V13H122.757C124.261 13 125.253 12.056 125.253 10.632ZM124.101 10.632C124.101 11.512 123.589 12.008 122.629 12.008H120.389V9.256H122.629C123.589 9.256 124.101 9.752 124.101 10.632ZM138.323 15.432V12.008H137.155V5.128H132.195V6.632C132.195 9.496 131.747 10.696 131.155 12.008H130.179V15.432H131.283V13H137.203V15.432H138.323ZM136.003 12.008H132.435C132.947 10.84 133.315 9.688 133.331 7.608C133.331 7.544 133.331 6.184 133.331 6.12H136.003V12.008ZM146.237 9.016C146.237 7.544 145.949 6.6 145.277 5.928C144.701 5.352 143.901 5.032 143.021 5.032C142.125 5.032 141.341 5.352 140.765 5.928C140.093 6.616 139.805 7.544 139.805 9.064C139.805 10.584 140.093 11.512 140.765 12.2C141.341 12.776 142.125 13.096 143.021 13.096C143.917 13.096 144.701 12.776 145.277 12.2C145.965 11.496 146.237 10.584 146.237 9.016ZM145.085 9.112C145.085 10.36 144.909 11.032 144.461 11.496C144.109 11.864 143.581 12.072 143.021 12.072C142.461 12.072 141.949 11.864 141.597 11.496C141.133 11.016 140.957 10.344 140.957 9.064C140.957 7.784 141.133 7.096 141.597 6.632C141.949 6.264 142.477 6.056 143.021 6.056C143.581 6.056 144.109 6.264 144.461 6.632C144.925 7.096 145.085 7.768 145.085 9.112ZM158.226 5.128H156.978L154.834 11.448L152.674 5.128H151.426L154.258 12.84L153.698 14.376C153.41 15.16 153.154 15.352 152.402 15.352H152.05V16.376H152.546C153.618 16.376 154.274 15.912 154.642 14.904L158.226 5.128ZM165.958 10.824C165.958 9.864 165.43 9.24 164.582 8.92C165.382 8.632 165.83 8.04 165.83 7.192C165.83 5.944 164.902 5.128 163.51 5.128H159.862V13H163.606C165.078 13 165.958 12.168 165.958 10.824ZM164.694 7.288C164.694 8.04 164.214 8.472 163.302 8.472H160.998V6.12H163.302C164.198 6.12 164.694 6.536 164.694 7.288ZM164.822 10.712C164.822 11.496 164.294 12.008 163.398 12.008H160.998V9.416H163.398C164.294 9.416 164.822 9.928 164.822 10.712ZM174.087 13V7.656C174.087 5.912 173.015 5.032 170.903 5.032C170.151 5.032 169.591 5.128 169.143 5.352C168.759 5.544 168.567 5.72 168.151 6.2L168.935 6.92C169.223 6.536 169.383 6.392 169.655 6.264C169.975 6.104 170.359 6.024 170.871 6.024C172.311 6.024 172.935 6.552 172.935 7.752V8.504H170.567C168.871 8.504 167.847 9.352 167.847 10.776C167.847 12.28 168.823 13.096 170.647 13.096C171.255 13.096 171.671 13.048 172.039 12.888C172.359 12.76 172.551 12.616 172.935 12.248V13H174.087ZM172.935 10.216C172.935 11.56 172.343 12.104 170.871 12.104C169.543 12.104 168.967 11.704 168.967 10.76C168.967 9.832 169.559 9.368 170.727 9.368H172.935V10.216ZM181.949 6.12V5.128H176.957V13H178.109V6.12H181.949ZM189.917 13V5.128H188.765L184.717 11.192V5.128H183.581V13H184.717L188.765 6.904V13H189.917ZM194.383 6.456C194.383 5.976 193.951 5.56 193.471 5.56C192.975 5.56 192.559 5.976 192.559 6.472C192.559 6.968 192.975 7.384 193.471 7.384C193.967 7.384 194.383 6.968 194.383 6.456ZM194.383 12.12C194.383 11.64 193.951 11.224 193.471 11.224C192.975 11.224 192.559 11.64 192.559 12.136C192.559 12.632 192.975 13.048 193.471 13.048C193.967 13.048 194.383 12.632 194.383 12.12ZM209.035 13V1.608H201.211V13H202.427V2.696H207.819V13H209.035ZM218.175 9.368V8.84C218.175 6.488 216.943 5.032 214.943 5.032C212.943 5.032 211.711 6.536 211.711 9.016C211.711 11.688 212.911 13.096 215.183 13.096C215.759 13.096 216.271 13 216.703 12.824C217.183 12.632 217.455 12.44 218.031 11.88L217.247 11.192C216.815 11.608 216.607 11.752 216.255 11.896C215.967 12.008 215.615 12.088 215.247 12.088C214.175 12.088 213.471 11.672 213.103 10.792C212.943 10.408 212.895 10.088 212.863 9.368H218.175ZM217.023 8.504H212.863C212.895 7.8 212.943 7.544 213.103 7.192C213.423 6.456 214.111 6.008 214.943 6.008C215.871 6.008 216.607 6.552 216.879 7.464C216.975 7.752 216.991 7.896 217.023 8.504ZM226.884 9.08C226.884 6.296 225.972 5.032 223.94 5.032C223.444 5.032 223.028 5.112 222.676 5.288C222.34 5.464 222.148 5.624 221.78 6.056V5.128H220.628V16.52H221.78V12.072C222.164 12.52 222.356 12.68 222.692 12.84C223.06 13.016 223.476 13.096 223.956 13.096C225.956 13.096 226.884 11.816 226.884 9.08ZM225.732 9.08C225.732 11.176 225.14 12.072 223.764 12.072C222.372 12.072 221.78 11.176 221.78 9.064C221.78 6.968 222.372 6.056 223.748 6.056C225.156 6.056 225.732 6.936 225.732 9.08ZM239.266 13V5.128H238.114V12.008H234.882V5.128H233.73V12.008H230.498V5.128H229.362V13H239.266ZM248.511 13V5.128H247.359L243.311 11.192V5.128H242.175V13H243.311L247.359 6.904V13H248.511ZM257.121 1.672H256.193C256.033 2.344 255.585 2.84 254.577 2.84C253.569 2.84 253.105 2.344 252.929 1.672H252.001C252.273 3.048 253.121 3.752 254.561 3.752C256.001 3.752 256.865 3.048 257.121 1.672ZM257.745 13V5.128H256.593L252.545 11.192V5.128H251.409V13H252.545L256.593 6.904V13H257.745ZM270.644 9.368V8.84C270.644 6.488 269.412 5.032 267.412 5.032C265.412 5.032 264.18 6.536 264.18 9.016C264.18 11.688 265.38 13.096 267.652 13.096C268.228 13.096 268.74 13 269.172 12.824C269.652 12.632 269.924 12.44 270.5 11.88L269.716 11.192C269.284 11.608 269.076 11.752 268.724 11.896C268.436 12.008 268.084 12.088 267.716 12.088C266.644 12.088 265.94 11.672 265.572 10.792C265.412 10.408 265.364 10.088 265.332 9.368H270.644ZM269.492 8.504H265.332C265.364 7.8 265.412 7.544 265.572 7.192C265.892 6.456 266.58 6.008 267.412 6.008C268.34 6.008 269.076 6.552 269.348 7.464C269.444 7.752 269.46 7.896 269.492 8.504ZM278.077 6.12V5.128H271.645V6.12H274.349V13H275.501V6.12H278.077ZM285.103 13V7.656C285.103 5.912 284.031 5.032 281.919 5.032C281.167 5.032 280.607 5.128 280.159 5.352C279.775 5.544 279.583 5.72 279.167 6.2L279.951 6.92C280.239 6.536 280.399 6.392 280.671 6.264C280.991 6.104 281.375 6.024 281.887 6.024C283.327 6.024 283.951 6.552 283.951 7.752V8.504H281.583C279.887 8.504 278.863 9.352 278.863 10.776C278.863 12.28 279.839 13.096 281.663 13.096C282.271 13.096 282.687 13.048 283.055 12.888C283.375 12.76 283.567 12.616 283.951 12.248V13H285.103ZM283.951 10.216C283.951 11.56 283.359 12.104 281.887 12.104C280.559 12.104 279.983 11.704 279.983 10.76C279.983 9.832 280.575 9.368 281.743 9.368H283.951V10.216ZM294.021 13V5.128H287.925V13H289.061V6.12H292.869V13H294.021ZM307.134 9.08C307.134 6.296 306.222 5.032 304.19 5.032C303.694 5.032 303.278 5.112 302.926 5.288C302.59 5.464 302.398 5.624 302.03 6.056V5.128H300.878V16.52H302.03V12.072C302.414 12.52 302.606 12.68 302.942 12.84C303.31 13.016 303.726 13.096 304.206 13.096C306.206 13.096 307.134 11.816 307.134 9.08ZM305.982 9.08C305.982 11.176 305.39 12.072 304.014 12.072C302.622 12.072 302.03 11.176 302.03 9.064C302.03 6.968 302.622 6.056 303.998 6.056C305.406 6.056 305.982 6.936 305.982 9.08ZM315.628 9.368V8.84C315.628 6.488 314.396 5.032 312.396 5.032C310.396 5.032 309.164 6.536 309.164 9.016C309.164 11.688 310.364 13.096 312.636 13.096C313.212 13.096 313.724 13 314.156 12.824C314.636 12.632 314.908 12.44 315.484 11.88L314.7 11.192C314.268 11.608 314.06 11.752 313.708 11.896C313.42 12.008 313.068 12.088 312.7 12.088C311.628 12.088 310.924 11.672 310.556 10.792C310.396 10.408 310.348 10.088 310.316 9.368H315.628ZM314.476 8.504H310.316C310.348 7.8 310.396 7.544 310.556 7.192C310.876 6.456 311.564 6.008 312.396 6.008C313.324 6.008 314.06 6.552 314.332 7.464C314.428 7.752 314.444 7.896 314.476 8.504ZM324.193 10.824C324.193 9.864 323.665 9.24 322.817 8.92C323.617 8.632 324.065 8.04 324.065 7.192C324.065 5.944 323.137 5.128 321.745 5.128H318.097V13H321.841C323.313 13 324.193 12.168 324.193 10.824ZM322.929 7.288C322.929 8.04 322.449 8.472 321.537 8.472H319.233V6.12H321.537C322.433 6.12 322.929 6.536 322.929 7.288ZM323.057 10.712C323.057 11.496 322.529 12.008 321.633 12.008H319.233V9.416H321.633C322.529 9.416 323.057 9.928 323.057 10.712ZM328.306 0.775999H326.898L326.274 3.656H327.314L328.306 0.775999ZM340.093 9.016C340.093 7.704 339.821 6.76 339.277 6.088C338.717 5.4 337.901 5.032 336.877 5.032C336.013 5.032 335.261 5.32 334.701 5.848C334.077 6.44 333.741 7.272 333.677 8.472H332.061V5.128H330.925V13H332.061V9.448H333.677C333.709 10.76 334.045 11.656 334.717 12.28C335.261 12.808 336.013 13.096 336.877 13.096C337.773 13.096 338.573 12.776 339.133 12.2C339.821 11.512 340.093 10.584 340.093 9.016ZM338.941 9.08C338.941 10.296 338.781 10.968 338.349 11.448C337.981 11.848 337.453 12.072 336.877 12.072C336.301 12.072 335.773 11.848 335.405 11.448C334.957 10.952 334.813 10.312 334.813 9.048C334.813 7.8 334.973 7.144 335.421 6.664C335.773 6.264 336.301 6.056 336.877 6.056C337.453 6.056 337.981 6.264 338.333 6.664C338.781 7.16 338.941 7.8 338.941 9.08ZM351.734 10.776C351.734 9.88 351.19 9.176 350.358 8.92C351.158 8.632 351.606 7.944 351.606 7.16C351.606 5.784 350.374 5.032 348.822 5.032C347.734 5.032 346.806 5.256 345.942 5.88L346.598 6.648C347.238 6.2 347.926 5.992 348.71 5.992C349.782 5.992 350.486 6.392 350.486 7.192C350.486 8.008 349.878 8.456 349.014 8.456H347.846V9.416H348.998C349.958 9.416 350.614 9.848 350.614 10.728C350.614 11.592 349.574 12.088 348.63 12.088C347.654 12.088 347.03 11.864 346.326 11.208L345.606 11.96C346.534 12.808 347.494 13.08 348.758 13.08C350.342 13.08 351.734 12.2 351.734 10.776ZM359.869 13V7.656C359.869 5.912 358.797 5.032 356.685 5.032C355.933 5.032 355.373 5.128 354.924 5.352C354.541 5.544 354.349 5.72 353.933 6.2L354.717 6.92C355.005 6.536 355.164 6.392 355.437 6.264C355.757 6.104 356.141 6.024 356.653 6.024C358.093 6.024 358.717 6.552 358.717 7.752V8.504H356.349C354.653 8.504 353.629 9.352 353.629 10.776C353.629 12.28 354.605 13.096 356.429 13.096C357.036 13.096 357.453 13.048 357.821 12.888C358.141 12.76 358.333 12.616 358.717 12.248V13H359.869ZM358.717 10.216C358.717 11.56 358.125 12.104 356.653 12.104C355.325 12.104 354.749 11.704 354.749 10.76C354.749 9.832 355.341 9.368 356.509 9.368H358.717V10.216ZM368.786 10.824C368.786 9.864 368.258 9.24 367.41 8.92C368.21 8.632 368.658 8.04 368.658 7.192C368.658 5.944 367.73 5.128 366.338 5.128H362.69V13H366.434C367.906 13 368.786 12.168 368.786 10.824ZM367.522 7.288C367.522 8.04 367.042 8.472 366.13 8.472H363.826V6.12H366.13C367.026 6.12 367.522 6.536 367.522 7.288ZM367.65 10.712C367.65 11.496 367.122 12.008 366.226 12.008H363.826V9.416H366.226C367.122 9.416 367.65 9.928 367.65 10.712ZM377.331 9.368V8.84C377.331 6.488 376.099 5.032 374.099 5.032C372.099 5.032 370.867 6.536 370.867 9.016C370.867 11.688 372.067 13.096 374.339 13.096C374.915 13.096 375.427 13 375.859 12.824C376.339 12.632 376.611 12.44 377.187 11.88L376.403 11.192C375.971 11.608 375.763 11.752 375.411 11.896C375.123 12.008 374.771 12.088 374.403 12.088C373.331 12.088 372.627 11.672 372.259 10.792C372.099 10.408 372.051 10.088 372.019 9.368H377.331ZM376.179 8.504H372.019C372.051 7.8 372.099 7.544 372.259 7.192C372.579 6.456 373.267 6.008 374.099 6.008C375.027 6.008 375.763 6.552 376.035 7.464C376.131 7.752 376.147 7.896 376.179 8.504ZM386.04 9.08C386.04 6.296 385.128 5.032 383.096 5.032C382.6 5.032 382.184 5.112 381.832 5.288C381.496 5.464 381.304 5.624 380.936 6.056V5.128H379.784V16.52H380.936V12.072C381.32 12.52 381.512 12.68 381.848 12.84C382.216 13.016 382.632 13.096 383.112 13.096C385.112 13.096 386.04 11.816 386.04 9.08ZM384.888 9.08C384.888 11.176 384.296 12.072 382.92 12.072C381.528 12.072 380.936 11.176 380.936 9.064C380.936 6.968 381.528 6.056 382.904 6.056C384.312 6.056 384.888 6.936 384.888 9.08ZM398.423 13V5.128H397.271V12.008H394.039V5.128H392.887V12.008H389.655V5.128H388.519V13H398.423ZM406.851 5.128H405.603L403.459 11.448L401.299 5.128H400.051L402.883 12.84L402.323 14.376C402.035 15.16 401.779 15.352 401.027 15.352H400.675V16.376H401.171C402.243 16.376 402.899 15.912 403.267 14.904L406.851 5.128ZM414.119 11.928L413.351 11.192C412.791 11.784 412.343 12.088 411.543 12.088C409.879 12.088 409.223 10.856 409.191 9.368H412.551V8.504H409.207C409.303 7.096 410.039 6.04 411.543 6.04C412.343 6.04 412.791 6.36 413.351 6.936L414.119 6.2C413.319 5.384 412.727 5.032 411.559 5.032C409.367 5.032 408.039 6.536 408.039 9.048C408.039 11.592 409.351 13.096 411.559 13.096C412.727 13.096 413.335 12.744 414.119 11.928ZM421.483 6.12V5.128H415.051V6.12H417.755V13H418.907V6.12H421.483ZM429.097 10.632C429.097 9.192 428.105 8.248 426.601 8.248H424.233V5.128H423.097V13H426.601C428.105 13 429.097 12.056 429.097 10.632ZM427.945 10.632C427.945 11.512 427.433 12.008 426.473 12.008H424.233V9.256H426.473C427.433 9.256 427.945 9.752 427.945 10.632ZM436.822 11.928L436.038 11.176C435.622 11.608 435.43 11.768 435.11 11.912C434.854 12.024 434.582 12.072 434.246 12.072C432.694 12.072 431.894 11.048 431.894 9.064C431.894 7.08 432.71 6.056 434.262 6.056C434.598 6.056 434.886 6.12 435.142 6.232C435.446 6.36 435.638 6.52 436.038 6.936L436.822 6.2C436.294 5.656 436.038 5.464 435.606 5.272C435.222 5.112 434.79 5.032 434.278 5.032C432.07 5.032 430.742 6.552 430.742 9.064C430.742 11.576 432.07 13.096 434.278 13.096C434.79 13.096 435.222 13.016 435.606 12.856C436.038 12.664 436.294 12.472 436.822 11.928ZM444.538 13V5.128H440.954C439.466 5.128 438.474 6.072 438.474 7.48C438.474 8.68 439.194 9.544 440.314 9.768L438.426 13H439.802L441.514 9.912C441.514 9.912 443.322 9.912 443.402 9.912V13H444.538ZM443.402 8.92H441.13C440.154 8.92 439.626 8.408 439.626 7.528C439.626 6.632 440.154 6.12 441.13 6.12H443.402V8.92ZM456.96 5.128H455.712L453.568 11.448L451.408 5.128H450.16L452.992 12.84L452.432 14.376C452.144 15.16 451.888 15.352 451.136 15.352H450.784V16.376H451.28C452.352 16.376 453.008 15.912 453.376 14.904L456.96 5.128ZM466.405 13V1.608H465.253L463.125 3.448V4.76L465.253 2.888V13H466.405ZM476.78 9.96V4.648C476.78 2.808 475.484 1.512 473.66 1.512C471.836 1.512 470.54 2.808 470.54 4.648V9.96C470.54 11.8 471.836 13.096 473.66 13.096C475.484 13.096 476.78 11.8 476.78 9.96ZM475.628 9.896C475.628 11.224 474.86 12.072 473.66 12.072C472.46 12.072 471.692 11.224 471.692 9.896V4.712C471.692 3.384 472.46 2.536 473.66 2.536C474.86 2.536 475.628 3.384 475.628 4.712V9.896ZM480.868 6.456C480.868 5.976 480.436 5.56 479.956 5.56C479.46 5.56 479.044 5.976 479.044 6.472C479.044 6.968 479.46 7.384 479.956 7.384C480.452 7.384 480.868 6.968 480.868 6.456ZM480.868 12.12C480.868 11.64 480.436 11.224 479.956 11.224C479.46 11.224 479.044 11.64 479.044 12.136C479.044 12.632 479.46 13.048 479.956 13.048C480.452 13.048 480.868 12.632 480.868 12.12ZM489.359 9.96V4.648C489.359 2.808 488.063 1.512 486.239 1.512C484.414 1.512 483.118 2.808 483.118 4.648V9.96C483.118 11.8 484.414 13.096 486.239 13.096C488.063 13.096 489.359 11.8 489.359 9.96ZM488.207 9.896C488.207 11.224 487.439 12.072 486.239 12.072C485.039 12.072 484.271 11.224 484.271 9.896V4.712C484.271 3.384 485.039 2.536 486.239 2.536C487.439 2.536 488.207 3.384 488.207 4.712V9.896ZM497.718 9.96V4.648C497.718 2.808 496.422 1.512 494.598 1.512C492.774 1.512 491.478 2.808 491.478 4.648V9.96C491.478 11.8 492.774 13.096 494.598 13.096C496.422 13.096 497.718 11.8 497.718 9.96ZM496.566 9.896C496.566 11.224 495.798 12.072 494.598 12.072C493.398 12.072 492.63 11.224 492.63 9.896V4.712C492.63 3.384 493.398 2.536 494.598 2.536C495.798 2.536 496.566 3.384 496.566 4.712V9.896ZM514.126 13V11.976H509.23L513.214 6.888C513.886 6.024 514.126 5.432 514.126 4.584C514.126 2.744 512.878 1.512 511.006 1.512C509.646 1.512 508.59 2.168 508.11 3.288C507.934 3.688 507.886 3.96 507.854 4.6H509.006C509.07 3.224 509.726 2.536 510.99 2.536C512.206 2.536 512.974 3.32 512.974 4.568C512.974 5.176 512.782 5.704 512.334 6.264L507.838 11.976V13H514.126ZM522.405 9.96V4.648C522.405 2.808 521.109 1.512 519.285 1.512C517.461 1.512 516.165 2.808 516.165 4.648V9.96C516.165 11.8 517.461 13.096 519.285 13.096C521.109 13.096 522.405 11.8 522.405 9.96ZM521.253 9.896C521.253 11.224 520.485 12.072 519.285 12.072C518.085 12.072 517.317 11.224 517.317 9.896V4.712C517.317 3.384 518.085 2.536 519.285 2.536C520.485 2.536 521.253 3.384 521.253 4.712V9.896ZM526.493 12.12C526.493 11.64 526.061 11.224 525.581 11.224C525.085 11.224 524.669 11.64 524.669 12.136C524.669 12.632 525.085 13.048 525.581 13.048C526.077 13.048 526.493 12.632 526.493 12.12ZM534.984 9.96V4.648C534.984 2.808 533.688 1.512 531.864 1.512C530.039 1.512 528.743 2.808 528.743 4.648V9.96C528.743 11.8 530.039 13.096 531.864 13.096C533.688 13.096 534.984 11.8 534.984 9.96ZM533.832 9.896C533.832 11.224 533.064 12.072 531.864 12.072C530.664 12.072 529.896 11.224 529.896 9.896V4.712C529.896 3.384 530.664 2.536 531.864 2.536C533.064 2.536 533.832 3.384 533.832 4.712V9.896ZM543.583 2.632V1.608H537.263V4.424H538.399V2.632H542.367L538.415 13H539.631L543.583 2.632ZM547.43 12.12C547.43 11.64 546.998 11.224 546.518 11.224C546.022 11.224 545.606 11.64 545.606 12.136C545.606 12.632 546.022 13.048 546.518 13.048C547.014 13.048 547.43 12.632 547.43 12.12ZM556.001 13V11.976H551.105L555.089 6.888C555.761 6.024 556.001 5.432 556.001 4.584C556.001 2.744 554.753 1.512 552.881 1.512C551.521 1.512 550.465 2.168 549.985 3.288C549.809 3.688 549.761 3.96 549.729 4.6H550.881C550.945 3.224 551.601 2.536 552.865 2.536C554.081 2.536 554.849 3.32 554.849 4.568C554.849 5.176 554.657 5.704 554.209 6.264L549.713 11.976V13H556.001ZM564.28 9.96V4.648C564.28 2.808 562.984 1.512 561.16 1.512C559.336 1.512 558.04 2.808 558.04 4.648V9.96C558.04 11.8 559.336 13.096 561.16 13.096C562.984 13.096 564.28 11.8 564.28 9.96ZM563.128 9.896C563.128 11.224 562.36 12.072 561.16 12.072C559.96 12.072 559.192 11.224 559.192 9.896V4.712C559.192 3.384 559.96 2.536 561.16 2.536C562.36 2.536 563.128 3.384 563.128 4.712V9.896ZM572.72 13V11.976H567.824L571.808 6.888C572.48 6.024 572.72 5.432 572.72 4.584C572.72 2.744 571.472 1.512 569.6 1.512C568.24 1.512 567.184 2.168 566.704 3.288C566.528 3.688 566.48 3.96 566.448 4.6H567.6C567.664 3.224 568.32 2.536 569.584 2.536C570.8 2.536 571.568 3.32 571.568 4.568C571.568 5.176 571.376 5.704 570.928 6.264L566.432 11.976V13H572.72ZM580.999 9.96V4.648C580.999 2.808 579.703 1.512 577.879 1.512C576.055 1.512 574.759 2.808 574.759 4.648V9.96C574.759 11.8 576.055 13.096 577.879 13.096C579.703 13.096 580.999 11.8 580.999 9.96ZM579.847 9.896C579.847 11.224 579.079 12.072 577.879 12.072C576.679 12.072 575.911 11.224 575.911 9.896V4.712C575.911 3.384 576.679 2.536 577.879 2.536C579.079 2.536 579.847 3.384 579.847 4.712V9.896ZM585.087 12.12C585.087 11.64 584.655 11.224 584.174 11.224C583.679 11.224 583.263 11.64 583.263 12.136C583.263 12.632 583.679 13.048 584.174 13.048C584.671 13.048 585.087 12.632 585.087 12.12ZM60.1751 61V49.608H52.3511V61H53.5671V50.696H58.9591V61H60.1751ZM64.6598 50.152C64.6598 49.736 64.2918 49.384 63.8598 49.384C63.4278 49.384 63.0758 49.736 63.0758 50.168C63.0758 50.6 63.4278 50.952 63.8598 50.952C64.3078 50.952 64.6598 50.6 64.6598 50.152ZM64.4358 61V53.128H63.2838V61H64.4358ZM72.9786 59.928L72.1946 59.176C71.7786 59.608 71.5866 59.768 71.2666 59.912C71.0106 60.024 70.7386 60.072 70.4026 60.072C68.8506 60.072 68.0506 59.048 68.0506 57.064C68.0506 55.08 68.8666 54.056 70.4186 54.056C70.7546 54.056 71.0426 54.12 71.2986 54.232C71.6026 54.36 71.7946 54.52 72.1946 54.936L72.9786 54.2C72.4506 53.656 72.1946 53.464 71.7626 53.272C71.3786 53.112 70.9466 53.032 70.4346 53.032C68.2266 53.032 66.8986 54.552 66.8986 57.064C66.8986 59.576 68.2266 61.096 70.4346 61.096C70.9466 61.096 71.3786 61.016 71.7626 60.856C72.1946 60.664 72.4506 60.472 72.9786 59.928ZM81.2704 61V53.128H76.1824L76.0704 57.448C76.0064 59.704 75.1264 60.008 74.4384 60.008H74.0704V61H74.7264C76.1344 61 77.1424 60.12 77.2064 57.768L77.3024 54.12H80.1184V61H81.2704ZM89.6788 61V53.128H86.0948C84.6068 53.128 83.6148 54.072 83.6148 55.48C83.6148 56.68 84.3348 57.544 85.4548 57.768L83.5668 61H84.9428L86.6548 57.912C86.6548 57.912 88.4628 57.912 88.5428 57.912V61H89.6788ZM88.5428 56.92H86.2708C85.2948 56.92 84.7668 56.408 84.7668 55.528C84.7668 54.632 85.2948 54.12 86.2708 54.12H88.5428V56.92ZM101.765 58.776C101.765 57.88 101.221 57.176 100.389 56.92C101.189 56.632 101.637 55.944 101.637 55.16C101.637 53.784 100.405 53.032 98.853 53.032C97.765 53.032 96.837 53.256 95.973 53.88L96.629 54.648C97.269 54.2 97.957 53.992 98.741 53.992C99.813 53.992 100.517 54.392 100.517 55.192C100.517 56.008 99.909 56.456 99.045 56.456H97.877V57.416H99.029C99.989 57.416 100.645 57.848 100.645 58.728C100.645 59.592 99.605 60.088 98.661 60.088C97.685 60.088 97.061 59.864 96.357 59.208L95.637 59.96C96.565 60.808 97.525 61.08 98.789 61.08C100.373 61.08 101.765 60.2 101.765 58.776ZM109.9 61V55.656C109.9 53.912 108.828 53.032 106.716 53.032C105.964 53.032 105.404 53.128 104.956 53.352C104.572 53.544 104.38 53.72 103.964 54.2L104.748 54.92C105.036 54.536 105.196 54.392 105.468 54.264C105.788 54.104 106.172 54.024 106.684 54.024C108.124 54.024 108.748 54.552 108.748 55.752V56.504H106.38C104.684 56.504 103.66 57.352 103.66 58.776C103.66 60.28 104.636 61.096 106.46 61.096C107.068 61.096 107.484 61.048 107.852 60.888C108.172 60.76 108.364 60.616 108.748 60.248V61H109.9ZM108.748 58.216C108.748 59.56 108.156 60.104 106.684 60.104C105.356 60.104 104.78 59.704 104.78 58.76C104.78 57.832 105.372 57.368 106.54 57.368H108.748V58.216ZM118.818 58.824C118.818 57.864 118.29 57.24 117.442 56.92C118.242 56.632 118.69 56.04 118.69 55.192C118.69 53.944 117.762 53.128 116.37 53.128H112.722V61H116.466C117.938 61 118.818 60.168 118.818 58.824ZM117.554 55.288C117.554 56.04 117.074 56.472 116.162 56.472H113.858V54.12H116.162C117.058 54.12 117.554 54.536 117.554 55.288ZM117.682 58.712C117.682 59.496 117.154 60.008 116.258 60.008H113.858V57.416H116.258C117.154 57.416 117.682 57.928 117.682 58.712ZM127.363 57.368V56.84C127.363 54.488 126.131 53.032 124.131 53.032C122.131 53.032 120.899 54.536 120.899 57.016C120.899 59.688 122.099 61.096 124.371 61.096C124.947 61.096 125.459 61 125.891 60.824C126.371 60.632 126.643 60.44 127.219 59.88L126.435 59.192C126.003 59.608 125.795 59.752 125.443 59.896C125.155 60.008 124.803 60.088 124.435 60.088C123.363 60.088 122.659 59.672 122.291 58.792C122.131 58.408 122.083 58.088 122.051 57.368H127.363ZM126.211 56.504H122.051C122.083 55.8 122.131 55.544 122.291 55.192C122.611 54.456 123.299 54.008 124.131 54.008C125.059 54.008 125.795 54.552 126.067 55.464C126.163 55.752 126.179 55.896 126.211 56.504ZM136.071 57.08C136.071 54.296 135.159 53.032 133.127 53.032C132.631 53.032 132.215 53.112 131.863 53.288C131.527 53.464 131.335 53.624 130.967 54.056V53.128H129.815V64.52H130.967V60.072C131.351 60.52 131.543 60.68 131.879 60.84C132.247 61.016 132.663 61.096 133.143 61.096C135.143 61.096 136.071 59.816 136.071 57.08ZM134.919 57.08C134.919 59.176 134.327 60.072 132.951 60.072C131.559 60.072 130.967 59.176 130.967 57.064C130.967 54.968 131.559 54.056 132.935 54.056C134.343 54.056 134.919 54.936 134.919 57.08ZM148.454 61V53.128H147.302V60.008H144.07V53.128H142.918V60.008H139.686V53.128H138.55V61H148.454ZM157.378 57.368V56.84C157.378 54.488 156.146 53.032 154.146 53.032C152.146 53.032 150.914 54.536 150.914 57.016C150.914 59.688 152.114 61.096 154.386 61.096C154.962 61.096 155.474 61 155.906 60.824C156.386 60.632 156.658 60.44 157.234 59.88L156.45 59.192C156.018 59.608 155.81 59.752 155.458 59.896C155.17 60.008 154.818 60.088 154.45 60.088C153.378 60.088 152.674 59.672 152.306 58.792C152.146 58.408 152.098 58.088 152.066 57.368H157.378ZM156.226 56.504H152.066C152.098 55.8 152.146 55.544 152.306 55.192C152.626 54.456 153.314 54.008 154.146 54.008C155.074 54.008 155.81 54.552 156.082 55.464C156.178 55.752 156.194 55.896 156.226 56.504ZM165.943 61V53.128H164.791V56.44H160.983V53.128H159.847V61H160.983V57.432H164.791V61H165.943ZM174.927 61V53.128H173.775V56.44H169.967V53.128H168.831V61H169.967V57.432H173.775V61H174.927ZM183.319 61V53.128H179.735C178.247 53.128 177.255 54.072 177.255 55.48C177.255 56.68 177.975 57.544 179.095 57.768L177.207 61H178.583L180.295 57.912C180.295 57.912 182.103 57.912 182.183 57.912V61H183.319ZM182.183 56.92H179.911C178.935 56.92 178.407 56.408 178.407 55.528C178.407 54.632 178.935 54.12 179.911 54.12H182.183V56.92ZM191.582 50.152C191.582 49.736 191.214 49.384 190.782 49.384C190.35 49.384 189.998 49.736 189.998 50.168C189.998 50.6 190.35 50.952 190.782 50.952C191.23 50.952 191.582 50.6 191.582 50.152ZM191.358 61V53.128H190.206V61H191.358ZM200.365 61V53.128H199.213V56.44H195.405V53.128H194.269V61H195.405V57.432H199.213V61H200.365ZM210.245 63.432V60.008H209.077V53.128H204.117V54.632C204.117 57.496 203.669 58.696 203.077 60.008H202.101V63.432H203.205V61H209.125V63.432H210.245ZM207.925 60.008H204.357C204.869 58.84 205.237 57.688 205.253 55.608C205.253 55.544 205.253 54.184 205.253 54.12H207.925V60.008ZM218.495 61V53.128H217.343L213.295 59.192V53.128H212.159V61H213.295L217.343 54.904V61H218.495ZM227.49 58.824C227.49 57.864 226.962 57.24 226.114 56.92C226.914 56.632 227.362 56.04 227.362 55.192C227.362 53.944 226.434 53.128 225.042 53.128H221.394V61H225.138C226.61 61 227.49 60.168 227.49 58.824ZM226.226 55.288C226.226 56.04 225.746 56.472 224.834 56.472H222.53V54.12H224.834C225.73 54.12 226.226 54.536 226.226 55.288ZM226.354 58.712C226.354 59.496 225.826 60.008 224.93 60.008H222.53V57.416H224.93C225.826 57.416 226.354 57.928 226.354 58.712ZM231.379 50.152C231.379 49.736 231.011 49.384 230.579 49.384C230.147 49.384 229.795 49.736 229.795 50.168C229.795 50.6 230.147 50.952 230.579 50.952C231.027 50.952 231.379 50.6 231.379 50.152ZM231.155 61V53.128H230.003V61H231.155ZM241.057 63.432V60.008H239.889V53.128H234.929V54.632C234.929 57.496 234.481 58.696 233.889 60.008H232.913V63.432H234.017V61H239.937V63.432H241.057ZM238.737 60.008H235.169C235.681 58.84 236.049 57.688 236.065 55.608C236.065 55.544 236.065 54.184 236.065 54.12H238.737V60.008ZM248.492 53.128H247.244L245.1 59.448L242.94 53.128H241.692L244.524 60.84L243.964 62.376C243.676 63.16 243.42 63.352 242.668 63.352H242.316V64.376H242.812C243.884 64.376 244.54 63.912 244.908 62.904L248.492 53.128ZM255.54 61V55.656C255.54 53.912 254.468 53.032 252.356 53.032C251.604 53.032 251.044 53.128 250.596 53.352C250.212 53.544 250.02 53.72 249.604 54.2L250.388 54.92C250.676 54.536 250.836 54.392 251.108 54.264C251.428 54.104 251.812 54.024 252.324 54.024C253.764 54.024 254.388 54.552 254.388 55.752V56.504H252.02C250.324 56.504 249.3 57.352 249.3 58.776C249.3 60.28 250.276 61.096 252.1 61.096C252.708 61.096 253.124 61.048 253.492 60.888C253.812 60.76 254.004 60.616 254.388 60.248V61H255.54ZM254.388 58.216C254.388 59.56 253.796 60.104 252.324 60.104C250.996 60.104 250.42 59.704 250.42 58.76C250.42 57.832 251.012 57.368 252.18 57.368H254.388V58.216ZM264.442 61V53.128H259.354L259.242 57.448C259.178 59.704 258.298 60.008 257.61 60.008H257.242V61H257.898C259.306 61 260.314 60.12 260.378 57.768L260.474 54.12H263.29V61H264.442ZM273.347 58.632C273.347 57.192 272.355 56.248 270.851 56.248H268.483V53.128H267.347V61H270.851C272.355 61 273.347 60.056 273.347 58.632ZM272.195 58.632C272.195 59.512 271.683 60.008 270.723 60.008H268.483V57.256H270.723C271.683 57.256 272.195 57.752 272.195 58.632ZM281.536 61V53.128H280.384V56.44H276.576V53.128H275.44V61H276.576V57.432H280.384V61H281.536ZM290.761 61V53.128H289.609L285.561 59.192V53.128H284.425V61H285.561L289.609 54.904V61H290.761ZM299.323 61L296.651 56.984L299.211 53.128H297.819L296.043 56.04L294.235 53.128H292.843L295.403 56.984L292.731 61H294.123L296.043 57.944L297.931 61H299.323ZM313.908 57.048C313.908 54.472 312.436 53.032 309.924 53.032V49.608H308.772V53.032C306.26 53.032 304.788 54.472 304.788 57.048C304.788 59.64 306.324 61.096 308.772 61.096V64.52H309.924V61.096C312.372 61.096 313.908 59.64 313.908 57.048ZM312.756 57.08C312.756 58.872 311.844 60.072 309.908 60.072V54.056C312.004 54.056 312.756 55.352 312.756 57.08ZM308.772 60.072C306.852 60.072 305.924 58.872 305.924 57.08C305.924 55.352 306.676 54.056 308.772 54.056V60.072ZM322.331 57.016C322.331 55.544 322.043 54.6 321.371 53.928C320.795 53.352 319.995 53.032 319.115 53.032C318.219 53.032 317.435 53.352 316.859 53.928C316.187 54.616 315.899 55.544 315.899 57.064C315.899 58.584 316.187 59.512 316.859 60.2C317.435 60.776 318.219 61.096 319.115 61.096C320.011 61.096 320.795 60.776 321.371 60.2C322.059 59.496 322.331 58.584 322.331 57.016ZM321.179 57.112C321.179 58.36 321.003 59.032 320.555 59.496C320.203 59.864 319.675 60.072 319.115 60.072C318.555 60.072 318.043 59.864 317.691 59.496C317.227 59.016 317.051 58.344 317.051 57.064C317.051 55.784 317.227 55.096 317.691 54.632C318.043 54.264 318.571 54.056 319.115 54.056C319.675 54.056 320.203 54.264 320.555 54.632C321.019 55.096 321.179 55.768 321.179 57.112ZM331.055 57.08C331.055 54.296 330.143 53.032 328.111 53.032C327.615 53.032 327.199 53.112 326.847 53.288C326.511 53.464 326.319 53.624 325.951 54.056V53.128H324.799V64.52H325.951V60.072C326.335 60.52 326.527 60.68 326.863 60.84C327.231 61.016 327.647 61.096 328.127 61.096C330.127 61.096 331.055 59.816 331.055 57.08ZM329.903 57.08C329.903 59.176 329.311 60.072 327.935 60.072C326.543 60.072 325.951 59.176 325.951 57.064C325.951 54.968 326.543 54.056 327.919 54.056C329.327 54.056 329.903 54.936 329.903 57.08ZM341.118 61V53.128H339.982L337.342 58.424L334.67 53.128H333.534V61H334.67V55.4L336.894 59.752H337.774L339.966 55.4V61H341.118ZM345.538 59.224H343.986L343.042 62.824H344.002L345.538 59.224ZM358.333 58.824C358.333 57.864 357.805 57.24 356.957 56.92C357.757 56.632 358.205 56.04 358.205 55.192C358.205 53.944 357.277 53.128 355.885 53.128H352.237V61H355.981C357.453 61 358.333 60.168 358.333 58.824ZM357.069 55.288C357.069 56.04 356.589 56.472 355.677 56.472H353.373V54.12H355.677C356.573 54.12 357.069 54.536 357.069 55.288ZM357.197 58.712C357.197 59.496 356.669 60.008 355.773 60.008H353.373V57.416H355.773C356.669 57.416 357.197 57.928 357.197 58.712ZM367.198 61V53.128H366.046L361.998 59.192V53.128H360.862V61H361.998L366.046 54.904V61H367.198ZM381.665 61V53.128H380.529L377.889 58.424L375.217 53.128H374.081V61H375.217V55.4L377.441 59.752H378.321L380.513 55.4V61H381.665ZM390.181 61V55.656C390.181 53.912 389.109 53.032 386.997 53.032C386.245 53.032 385.685 53.128 385.237 53.352C384.853 53.544 384.661 53.72 384.245 54.2L385.029 54.92C385.317 54.536 385.477 54.392 385.749 54.264C386.069 54.104 386.453 54.024 386.965 54.024C388.405 54.024 389.029 54.552 389.029 55.752V56.504H386.661C384.965 56.504 383.941 57.352 383.941 58.776C383.941 60.28 384.917 61.096 386.741 61.096C387.349 61.096 387.765 61.048 388.133 60.888C388.453 60.76 388.645 60.616 389.029 60.248V61H390.181ZM389.029 58.216C389.029 59.56 388.437 60.104 386.965 60.104C385.637 60.104 385.061 59.704 385.061 58.76C385.061 57.832 385.653 57.368 386.821 57.368H389.029V58.216ZM398.635 59.928L397.867 59.192C397.307 59.784 396.859 60.088 396.059 60.088C394.395 60.088 393.739 58.856 393.707 57.368H397.067V56.504H393.723C393.819 55.096 394.555 54.04 396.059 54.04C396.859 54.04 397.307 54.36 397.867 54.936L398.635 54.2C397.835 53.384 397.243 53.032 396.075 53.032C393.883 53.032 392.555 54.536 392.555 57.048C392.555 59.592 393.867 61.096 396.075 61.096C397.243 61.096 397.851 60.744 398.635 59.928ZM405.999 54.12V53.128H399.567V54.12H402.271V61H403.423V54.12H405.999ZM413.441 57.368V56.84C413.441 54.488 412.209 53.032 410.209 53.032C408.209 53.032 406.977 54.536 406.977 57.016C406.977 59.688 408.177 61.096 410.449 61.096C411.025 61.096 411.537 61 411.969 60.824C412.449 60.632 412.721 60.44 413.297 59.88L412.513 59.192C412.081 59.608 411.873 59.752 411.521 59.896C411.233 60.008 410.881 60.088 410.513 60.088C409.441 60.088 408.737 59.672 408.369 58.792C408.209 58.408 408.161 58.088 408.129 57.368H413.441ZM412.289 56.504H408.129C408.161 55.8 408.209 55.544 408.369 55.192C408.689 54.456 409.377 54.008 410.209 54.008C411.137 54.008 411.873 54.552 412.145 55.464C412.241 55.752 412.257 55.896 412.289 56.504ZM425.99 58.824C425.99 57.864 425.462 57.24 424.614 56.92C425.414 56.632 425.862 56.04 425.862 55.192C425.862 53.944 424.934 53.128 423.542 53.128H419.894V61H423.638C425.11 61 425.99 60.168 425.99 58.824ZM424.726 55.288C424.726 56.04 424.246 56.472 423.334 56.472H421.03V54.12H423.334C424.23 54.12 424.726 54.536 424.726 55.288ZM424.854 58.712C424.854 59.496 424.326 60.008 423.43 60.008H421.03V57.416H423.43C424.326 57.416 424.854 57.928 424.854 58.712ZM429.879 50.152C429.879 49.736 429.511 49.384 429.079 49.384C428.647 49.384 428.295 49.736 428.295 50.168C428.295 50.6 428.647 50.952 429.079 50.952C429.527 50.952 429.879 50.6 429.879 50.152ZM429.655 61V53.128H428.503V61H429.655ZM439.557 63.432V60.008H438.389V53.128H433.429V54.632C433.429 57.496 432.981 58.696 432.389 60.008H431.413V63.432H432.517V61H438.437V63.432H439.557ZM437.237 60.008H433.669C434.181 58.84 434.549 57.688 434.565 55.608C434.565 55.544 434.565 54.184 434.565 54.12H437.237V60.008ZM447.568 61V53.128H441.472V61H442.608V54.12H446.416V61H447.568ZM456.696 57.08C456.696 54.296 455.784 53.032 453.752 53.032C453.256 53.032 452.84 53.112 452.488 53.288C452.152 53.464 451.96 53.624 451.592 54.056V53.128H450.44V64.52H451.592V60.072C451.976 60.52 452.168 60.68 452.504 60.84C452.872 61.016 453.288 61.096 453.768 61.096C455.768 61.096 456.696 59.816 456.696 57.08ZM455.544 57.08C455.544 59.176 454.952 60.072 453.576 60.072C452.184 60.072 451.592 59.176 451.592 57.064C451.592 54.968 452.184 54.056 453.56 54.056C454.968 54.056 455.544 54.936 455.544 57.08ZM464.775 61V55.656C464.775 53.912 463.703 53.032 461.591 53.032C460.839 53.032 460.279 53.128 459.831 53.352C459.447 53.544 459.255 53.72 458.839 54.2L459.623 54.92C459.911 54.536 460.071 54.392 460.343 54.264C460.663 54.104 461.047 54.024 461.559 54.024C462.999 54.024 463.623 54.552 463.623 55.752V56.504H461.255C459.559 56.504 458.535 57.352 458.535 58.776C458.535 60.28 459.511 61.096 461.335 61.096C461.943 61.096 462.359 61.048 462.727 60.888C463.047 60.76 463.239 60.616 463.623 60.248V61H464.775ZM463.623 58.216C463.623 59.56 463.031 60.104 461.559 60.104C460.231 60.104 459.655 59.704 459.655 58.76C459.655 57.832 460.247 57.368 461.415 57.368H463.623V58.216ZM473.693 58.824C473.693 57.864 473.165 57.24 472.317 56.92C473.117 56.632 473.565 56.04 473.565 55.192C473.565 53.944 472.637 53.128 471.245 53.128H467.597V61H471.341C472.813 61 473.693 60.168 473.693 58.824ZM472.429 55.288C472.429 56.04 471.949 56.472 471.037 56.472H468.733V54.12H471.037C471.933 54.12 472.429 54.536 472.429 55.288ZM472.557 58.712C472.557 59.496 472.029 60.008 471.133 60.008H468.733V57.416H471.133C472.029 57.416 472.557 57.928 472.557 58.712ZM482.558 61V53.128H481.406L477.358 59.192V53.128H476.222V61H477.358L481.406 54.904V61H482.558ZM490.608 54.12V53.128H484.176V54.12H486.88V61H488.032V54.12H490.608ZM498.558 61V53.128H497.406L493.358 59.192V53.128H492.222V61H493.358L497.406 54.904V61H498.558ZM508.384 50.664C508.384 50.28 508.048 49.944 507.664 49.944C507.264 49.944 506.944 50.28 506.944 50.68C506.944 51.08 507.264 51.4 507.664 51.4C508.064 51.4 508.384 51.08 508.384 50.664ZM504.992 50.664C504.992 50.28 504.656 49.944 504.272 49.944C503.872 49.944 503.552 50.28 503.552 50.68C503.552 51.08 503.872 51.4 504.272 51.4C504.672 51.4 504.992 51.08 504.992 50.664ZM506.576 61V53.128H505.424V61H506.576ZM512.431 50.664C512.431 50.28 512.095 49.944 511.711 49.944C511.311 49.944 510.991 50.28 510.991 50.68C510.991 51.08 511.311 51.4 511.711 51.4C512.111 51.4 512.431 51.08 512.431 50.664ZM509.039 50.664C509.039 50.28 508.703 49.944 508.319 49.944C507.919 49.944 507.599 50.28 507.599 50.68C507.599 51.08 507.919 51.4 508.319 51.4C508.719 51.4 509.039 51.08 509.039 50.664ZM510.623 61V53.128H509.471V61H510.623ZM523.615 58.824C523.615 57.864 523.087 57.24 522.239 56.92C523.039 56.632 523.487 56.04 523.487 55.192C523.487 53.944 522.559 53.128 521.167 53.128H517.519V61H521.263C522.735 61 523.615 60.168 523.615 58.824ZM522.351 55.288C522.351 56.04 521.871 56.472 520.959 56.472H518.655V54.12H520.959C521.855 54.12 522.351 54.536 522.351 55.288ZM522.479 58.712C522.479 59.496 521.951 60.008 521.055 60.008H518.655V57.416H521.055C521.951 57.416 522.479 57.928 522.479 58.712ZM531.744 61V55.656C531.744 53.912 530.672 53.032 528.56 53.032C527.808 53.032 527.248 53.128 526.799 53.352C526.416 53.544 526.224 53.72 525.808 54.2L526.592 54.92C526.88 54.536 527.039 54.392 527.312 54.264C527.632 54.104 528.016 54.024 528.528 54.024C529.968 54.024 530.592 54.552 530.592 55.752V56.504H528.224C526.528 56.504 525.504 57.352 525.504 58.776C525.504 60.28 526.48 61.096 528.304 61.096C528.911 61.096 529.328 61.048 529.696 60.888C530.016 60.76 530.208 60.616 530.592 60.248V61H531.744ZM530.592 58.216C530.592 59.56 530 60.104 528.528 60.104C527.2 60.104 526.624 59.704 526.624 58.76C526.624 57.832 527.216 57.368 528.384 57.368H530.592V58.216ZM544.469 61V53.128H543.317V60.008H540.085V53.128H538.933V60.008H535.701V53.128H534.565V61H544.469ZM553.378 57.016C553.378 55.544 553.09 54.6 552.418 53.928C551.842 53.352 551.042 53.032 550.162 53.032C549.266 53.032 548.482 53.352 547.906 53.928C547.234 54.616 546.946 55.544 546.946 57.064C546.946 58.584 547.234 59.512 547.906 60.2C548.482 60.776 549.266 61.096 550.162 61.096C551.058 61.096 551.842 60.776 552.418 60.2C553.106 59.496 553.378 58.584 553.378 57.016ZM552.226 57.112C552.226 58.36 552.05 59.032 551.602 59.496C551.25 59.864 550.722 60.072 550.162 60.072C549.602 60.072 549.09 59.864 548.738 59.496C548.274 59.016 548.098 58.344 548.098 57.064C548.098 55.784 548.274 55.096 548.738 54.632C549.09 54.264 549.618 54.056 550.162 54.056C550.722 54.056 551.25 54.264 551.602 54.632C552.066 55.096 552.226 55.768 552.226 57.112ZM563.446 61V53.128H562.31L559.67 58.424L556.998 53.128H555.862V61H556.998V55.4L559.222 59.752H560.102L562.294 55.4V61H563.446ZM571.882 53.128H570.634L568.49 59.448L566.33 53.128H565.082L567.914 60.84L567.354 62.376C567.066 63.16 566.81 63.352 566.058 63.352H565.706V64.376H566.202C567.274 64.376 567.93 63.912 568.298 62.904L571.882 53.128ZM584.159 61L580.927 56.344L583.775 53.128H582.351L578.671 57.368V53.128H577.519V61H578.671V58.856L580.143 57.192L582.719 61H584.159ZM591.769 57.368V56.84C591.769 54.488 590.537 53.032 588.537 53.032C586.537 53.032 585.305 54.536 585.305 57.016C585.305 59.688 586.505 61.096 588.777 61.096C589.353 61.096 589.865 61 590.297 60.824C590.777 60.632 591.049 60.44 591.625 59.88L590.841 59.192C590.409 59.608 590.201 59.752 589.849 59.896C589.561 60.008 589.209 60.088 588.841 60.088C587.769 60.088 587.065 59.672 586.697 58.792C586.537 58.408 586.489 58.088 586.457 57.368H591.769ZM590.617 56.504H586.457C586.489 55.8 586.537 55.544 586.697 55.192C587.017 54.456 587.705 54.008 588.537 54.008C589.465 54.008 590.201 54.552 590.473 55.464C590.569 55.752 590.585 55.896 590.617 56.504ZM600.477 57.08C600.477 54.296 599.565 53.032 597.533 53.032C597.037 53.032 596.621 53.112 596.269 53.288C595.933 53.464 595.741 53.624 595.373 54.056V53.128H594.221V64.52H595.373V60.072C595.757 60.52 595.949 60.68 596.285 60.84C596.653 61.016 597.069 61.096 597.549 61.096C599.549 61.096 600.477 59.816 600.477 57.08ZM599.325 57.08C599.325 59.176 598.733 60.072 597.357 60.072C595.965 60.072 595.373 59.176 595.373 57.064C595.373 54.968 595.965 54.056 597.341 54.056C598.749 54.056 599.325 54.936 599.325 57.08ZM604.316 50.152C604.316 49.736 603.948 49.384 603.516 49.384C603.084 49.384 602.732 49.736 602.732 50.168C602.732 50.6 603.084 50.952 603.516 50.952C603.964 50.952 604.316 50.6 604.316 50.152ZM604.092 61V53.128H602.94V61H604.092ZM613.099 58.824C613.099 57.864 612.571 57.24 611.723 56.92C612.523 56.632 612.971 56.04 612.971 55.192C612.971 53.944 612.043 53.128 610.651 53.128H607.003V61H610.747C612.219 61 613.099 60.168 613.099 58.824ZM611.835 55.288C611.835 56.04 611.355 56.472 610.443 56.472H608.139V54.12H610.443C611.339 54.12 611.835 54.536 611.835 55.288ZM611.963 58.712C611.963 59.496 611.435 60.008 610.539 60.008H608.139V57.416H610.539C611.435 57.416 611.963 57.928 611.963 58.712ZM621.724 61V53.128H620.572V56.44H616.764V53.128H615.628V61H616.764V57.432H620.572V61H621.724ZM630.948 61V53.128H629.796L625.748 59.192V53.128H624.612V61H625.748L629.796 54.904V61H630.948ZM640.503 61L637.271 56.344L640.119 53.128H638.695L635.015 57.368V53.128H633.863V61H635.015V58.856L636.487 57.192L639.063 61H640.503ZM647.898 53.128H646.65L644.506 59.448L642.346 53.128H641.098L643.93 60.84L643.37 62.376C643.082 63.16 642.826 63.352 642.074 63.352H641.722V64.376H642.218C643.29 64.376 643.946 63.912 644.314 62.904L647.898 53.128ZM650.352 60.12C650.352 59.64 649.92 59.224 649.44 59.224C648.944 59.224 648.528 59.64 648.528 60.136C648.528 60.632 648.944 61.048 649.44 61.048C649.936 61.048 650.352 60.632 650.352 60.12Z" fill="#3D3D3D"/>
<path d="M9.232 49.608H6.928L4.768 55.096L2.384 49.608H0.064L3.712 57.512L3.376 58.296C3.168 58.76 2.8 59.016 2.192 59.016H1.296V61H2.656C3.984 61 4.768 60.104 5.2 59.08L9.232 49.608ZM16.593 58.6C16.593 57.704 16.209 57.128 15.409 56.712C16.129 56.296 16.465 55.736 16.465 54.952C16.465 53.56 15.457 52.664 13.889 52.664H9.777V61H14.033C15.601 61 16.593 60.072 16.593 58.6ZM13.393 54.2C14.049 54.2 14.401 54.52 14.401 55.08C14.401 55.656 14.049 55.976 13.393 55.976H11.841V54.2H13.393ZM14.529 58.488C14.529 59.08 14.145 59.464 13.489 59.464H11.841V57.528H13.489C14.145 57.528 14.529 57.88 14.529 58.488ZM24.8939 61V55.512C24.8939 53.56 23.6939 52.568 21.2939 52.568C20.5099 52.568 19.9339 52.664 19.4539 52.872C19.0379 53.064 18.8139 53.24 18.3339 53.72L19.6619 55.016C20.1579 54.472 20.4939 54.328 21.2299 54.328C22.3499 54.328 22.8139 54.712 22.8139 55.64V56.056H20.8459C19.0859 56.056 17.9979 56.984 17.9979 58.488C17.9979 60.12 19.0379 61.08 20.8139 61.08C21.2939 61.08 21.6779 61.016 21.9979 60.888C22.3179 60.76 22.4939 60.632 22.8619 60.28V61H24.8939ZM22.8139 57.48V57.928C22.8139 58.968 22.3819 59.384 21.3099 59.384C20.4299 59.384 19.9979 59.064 19.9979 58.424C19.9979 57.816 20.4299 57.48 21.1659 57.48H22.8139ZM32.7048 54.504V52.664H27.1848V61H29.2648V54.504H32.7048ZM40.097 61V55.512C40.097 53.56 38.897 52.568 36.497 52.568C35.713 52.568 35.137 52.664 34.657 52.872C34.241 53.064 34.017 53.24 33.537 53.72L34.865 55.016C35.361 54.472 35.697 54.328 36.433 54.328C37.553 54.328 38.017 54.712 38.017 55.64V56.056H36.049C34.289 56.056 33.201 56.984 33.201 58.488C33.201 60.12 34.241 61.08 36.017 61.08C36.497 61.08 36.881 61.016 37.201 60.888C37.521 60.76 37.697 60.632 38.065 60.28V61H40.097ZM38.017 57.48V57.928C38.017 58.968 37.585 59.384 36.513 59.384C35.633 59.384 35.201 59.064 35.201 58.424C35.201 57.816 35.633 57.48 36.369 57.48H38.017ZM45.5399 49.608H42.9639L43.4759 57.432H45.0119L45.5399 49.608ZM45.5079 59.784C45.5079 59.112 44.9159 58.536 44.2439 58.536C43.5559 58.536 42.9959 59.112 42.9959 59.8C42.9959 60.488 43.5559 61.048 44.2439 61.048C44.9479 61.048 45.5079 60.488 45.5079 59.784Z" fill="#EE3424"/>
<path d="M8.032 109V103.608C8.032 101.752 6.96 100.568 5.28 100.568C4.88 100.568 4.528 100.632 4.176 100.792C3.824 100.936 3.632 101.064 3.248 101.432V97.608H1.168V109H3.248V103.912C3.248 103 3.76 102.44 4.592 102.44C5.44 102.44 5.952 103 5.952 103.912V109H8.032ZM14.0214 109V107.24H13.2694C12.7894 107.24 12.5494 106.984 12.5494 106.488V102.488H14.0214V100.904H12.5494V98.44H10.4694V100.904H9.58938V102.488H10.4694V106.616C10.4694 108.056 11.4294 109 12.8854 109H14.0214ZM19.6464 109V107.24H18.8944C18.4144 107.24 18.1744 106.984 18.1744 106.488V102.488H19.6464V100.904H18.1744V98.44H16.0944V100.904H15.2144V102.488H16.0944V106.616C16.0944 108.056 17.0544 109 18.5104 109H19.6464ZM23.5434 101.448V100.664H21.5274V112.056H23.6074V108.264C23.9594 108.616 24.1194 108.744 24.4234 108.872C24.7594 109.016 25.1594 109.096 25.5914 109.096C26.4234 109.096 27.1754 108.824 27.6554 108.344C28.2794 107.72 28.5034 106.808 28.5034 104.856C28.5034 103.752 28.4714 103.336 28.3594 102.728C28.2474 102.168 27.9914 101.656 27.6554 101.32C27.1754 100.84 26.4234 100.568 25.5914 100.568C25.1434 100.568 24.7434 100.648 24.4074 100.792C24.0874 100.936 23.9114 101.08 23.5434 101.448ZM26.4234 104.808C26.4234 106.584 26.0554 107.224 25.0154 107.224C24.0074 107.224 23.6074 106.584 23.6074 104.952C23.6074 104.056 23.6714 103.544 23.8154 103.176C24.0234 102.68 24.4074 102.44 25.0154 102.44C26.0554 102.44 26.4234 103.064 26.4234 104.808ZM35.2165 102.84L36.4965 101.544C36.0645 101.176 35.8565 101.048 35.4725 100.904C34.9285 100.696 34.1925 100.568 33.4885 100.568C31.3925 100.568 30.0965 101.592 30.0965 103.256C30.0965 104.648 30.8965 105.4 32.5285 105.56L33.8405 105.688C34.4325 105.752 34.7205 105.992 34.7205 106.44C34.7205 107 34.1605 107.32 33.2005 107.32C32.6885 107.32 32.2245 107.224 31.8245 107.064C31.5205 106.936 31.3765 106.84 31.0245 106.536L29.6645 107.896C30.2085 108.392 30.4645 108.568 30.9125 108.744C31.4885 108.984 32.1925 109.096 32.9605 109.096C35.3925 109.096 36.7525 108.12 36.7525 106.36C36.7525 104.936 35.8725 104.088 34.2725 103.928L32.9605 103.8C32.3685 103.736 32.0965 103.512 32.0965 103.096C32.0965 102.568 32.5445 102.28 33.3605 102.28C33.8085 102.28 34.2565 102.36 34.6245 102.488C34.8485 102.568 34.9605 102.632 35.2165 102.84ZM40.9601 102.392C40.9601 101.64 40.3201 101 39.5681 101C38.8001 101 38.1761 101.64 38.1761 102.408C38.1761 103.176 38.8001 103.8 39.5681 103.8C40.3521 103.8 40.9601 103.176 40.9601 102.392ZM40.9601 107.624C40.9601 106.888 40.3201 106.264 39.5681 106.264C38.8001 106.264 38.1761 106.888 38.1761 107.656C38.1761 108.424 38.8001 109.048 39.5681 109.048C40.3521 109.048 40.9601 108.424 40.9601 107.624ZM48.3089 96.424H46.3569L41.7969 110.184H43.7489L48.3089 96.424ZM54.762 96.424H52.81L48.25 110.184H50.202L54.762 96.424ZM61.9351 107.96L60.5271 106.568C60.0311 107.064 59.7271 107.224 59.1831 107.224C58.0951 107.224 57.5351 106.424 57.5351 104.824C57.5351 103.256 58.0951 102.44 59.1831 102.44C59.7111 102.44 60.0471 102.6 60.5271 103.096L61.9351 101.688C61.4391 101.208 61.1991 101.048 60.7511 100.856C60.3031 100.664 59.7751 100.568 59.1991 100.568C56.8471 100.568 55.4551 102.136 55.4551 104.76C55.4551 107.528 56.8151 109.096 59.1991 109.096C59.7751 109.096 60.2871 109 60.7511 108.792C61.1991 108.6 61.4391 108.44 61.9351 107.96ZM69.9814 104.792C69.9814 103.176 69.7254 102.312 69.0374 101.592C68.3974 100.92 67.5014 100.568 66.4454 100.568C65.3894 100.568 64.5094 100.92 63.8694 101.592C63.1814 102.328 62.9254 103.176 62.9254 104.824C62.9254 106.488 63.1654 107.336 63.8694 108.072C64.5094 108.744 65.3894 109.096 66.4454 109.096C67.5014 109.096 68.3974 108.744 69.0374 108.072C69.7414 107.336 69.9814 106.488 69.9814 104.792ZM67.9014 104.824C67.9014 105.912 67.8374 107.224 66.4454 107.224C65.4374 107.224 65.0054 106.552 65.0054 104.952C65.0054 103.88 65.0214 102.44 66.4454 102.44C67.8214 102.44 67.9014 103.752 67.9014 104.824ZM78.0609 101.352C77.6929 101.016 77.5169 100.888 77.2129 100.76C76.8929 100.632 76.5249 100.568 76.1409 100.568C75.6609 100.568 75.2449 100.664 74.8289 100.856C74.4609 101.016 74.3169 101.128 73.9969 101.464V100.664H71.9649V109H74.0449V103.976C74.0449 103.064 74.6049 102.44 75.4209 102.44C75.8369 102.44 76.1089 102.568 76.4929 102.936L78.0609 101.352ZM81.2621 101.448V100.664H79.2461V112.056H81.3261V108.264C81.6781 108.616 81.8381 108.744 82.1421 108.872C82.4781 109.016 82.8781 109.096 83.3101 109.096C84.1421 109.096 84.8941 108.824 85.3741 108.344C85.9981 107.72 86.2221 106.808 86.2221 104.856C86.2221 103.752 86.1901 103.336 86.0781 102.728C85.9661 102.168 85.7101 101.656 85.3741 101.32C84.8941 100.84 84.1421 100.568 83.3101 100.568C82.8621 100.568 82.4621 100.648 82.1261 100.792C81.8061 100.936 81.6301 101.08 81.2621 101.448ZM84.1421 104.808C84.1421 106.584 83.7741 107.224 82.7341 107.224C81.7261 107.224 81.3261 106.584 81.3261 104.952C81.3261 104.056 81.3901 103.544 81.5341 103.176C81.7421 102.68 82.1261 102.44 82.7341 102.44C83.7741 102.44 84.1421 103.064 84.1421 104.808ZM90.6633 107.64C90.6633 106.904 90.0073 106.264 89.2553 106.264C88.4873 106.264 87.8633 106.888 87.8633 107.656C87.8633 108.424 88.4873 109.048 89.2553 109.048C90.0393 109.048 90.6633 108.424 90.6633 107.64ZM99.308 109V97.608H97.228V101.4C96.892 101.048 96.716 100.92 96.412 100.792C96.06 100.648 95.676 100.568 95.228 100.568C94.396 100.568 93.644 100.84 93.164 101.32C92.556 101.928 92.316 102.856 92.316 104.568V104.824C92.316 105.688 92.38 106.376 92.444 106.84C92.524 107.384 92.812 107.992 93.164 108.344C93.644 108.824 94.412 109.096 95.244 109.096C95.676 109.096 96.076 109.016 96.412 108.872C96.732 108.728 96.908 108.6 97.276 108.216V109H99.308ZM97.228 104.824C97.228 106.584 96.844 107.224 95.804 107.224C94.796 107.224 94.396 106.584 94.396 104.952C94.396 104.056 94.46 103.544 94.604 103.176C94.812 102.68 95.196 102.44 95.804 102.44C96.844 102.44 97.228 103.08 97.228 104.824ZM107.733 101.352C107.365 101.016 107.189 100.888 106.885 100.76C106.565 100.632 106.197 100.568 105.813 100.568C105.333 100.568 104.917 100.664 104.501 100.856C104.133 101.016 103.989 101.128 103.669 101.464V100.664H101.637V109H103.717V103.976C103.717 103.064 104.277 102.44 105.093 102.44C105.509 102.44 105.781 102.568 106.165 102.936L107.733 101.352ZM115.066 109V103.512C115.066 101.56 113.866 100.568 111.466 100.568C110.682 100.568 110.106 100.664 109.626 100.872C109.21 101.064 108.986 101.24 108.506 101.72L109.834 103.016C110.33 102.472 110.666 102.328 111.402 102.328C112.522 102.328 112.986 102.712 112.986 103.64V104.056H111.018C109.258 104.056 108.17 104.984 108.17 106.488C108.17 108.12 109.21 109.08 110.986 109.08C111.466 109.08 111.85 109.016 112.17 108.888C112.49 108.76 112.666 108.632 113.034 108.28V109H115.066ZM112.986 105.48V105.928C112.986 106.968 112.554 107.384 111.482 107.384C110.602 107.384 110.17 107.064 110.17 106.424C110.17 105.816 110.602 105.48 111.338 105.48H112.986ZM123.853 100.664H121.837V101.448C121.469 101.064 121.293 100.92 120.957 100.776C120.637 100.632 120.269 100.568 119.837 100.568C119.005 100.568 118.301 100.824 117.805 101.304C117.181 101.912 116.957 102.744 116.957 104.344V104.6C116.957 105.4 117.005 106.024 117.069 106.456C117.133 106.968 117.437 107.544 117.805 107.912C118.285 108.392 118.989 108.648 119.821 108.648C120.253 108.648 120.621 108.568 120.957 108.424C121.261 108.296 121.437 108.168 121.773 107.816V108.664C121.773 109.752 121.133 110.392 120.061 110.392C119.741 110.392 119.437 110.328 119.181 110.232C118.909 110.12 118.765 110.024 118.461 109.752L117.165 111.064C117.693 111.528 117.933 111.704 118.365 111.864C118.861 112.056 119.437 112.152 120.077 112.152C122.365 112.152 123.853 110.792 123.853 108.696V100.664ZM121.773 104.6C121.773 106.152 121.373 106.776 120.397 106.776C119.405 106.776 119.037 106.168 119.037 104.6C119.037 103.032 119.405 102.44 120.397 102.44C121.389 102.44 121.773 103.048 121.773 104.6ZM132.888 104.792C132.888 103.176 132.632 102.312 131.944 101.592C131.304 100.92 130.408 100.568 129.352 100.568C128.296 100.568 127.416 100.92 126.776 101.592C126.088 102.328 125.832 103.176 125.832 104.824C125.832 106.488 126.072 107.336 126.776 108.072C127.416 108.744 128.296 109.096 129.352 109.096C130.408 109.096 131.304 108.744 131.944 108.072C132.648 107.336 132.888 106.488 132.888 104.792ZM130.808 104.824C130.808 105.912 130.744 107.224 129.352 107.224C128.344 107.224 127.912 106.552 127.912 104.952C127.912 103.88 127.928 102.44 129.352 102.44C130.728 102.44 130.808 103.752 130.808 104.824ZM141.799 109V103.672C141.799 101.752 140.743 100.568 138.999 100.568C138.583 100.568 138.167 100.648 137.799 100.808C137.447 100.968 137.271 101.08 136.903 101.432V100.664H134.871V109H136.951V103.96C136.951 103.016 137.479 102.44 138.343 102.44C139.191 102.44 139.719 103.016 139.719 103.96V109H141.799ZM148.747 105.4V103.464H143.819V105.4H148.747ZM156.92 107.96L155.512 106.568C155.016 107.064 154.712 107.224 154.168 107.224C153.08 107.224 152.52 106.424 152.52 104.824C152.52 103.256 153.08 102.44 154.168 102.44C154.696 102.44 155.032 102.6 155.512 103.096L156.92 101.688C156.424 101.208 156.184 101.048 155.736 100.856C155.288 100.664 154.76 100.568 154.184 100.568C151.832 100.568 150.44 102.136 150.44 104.76C150.44 107.528 151.799 109.096 154.184 109.096C154.76 109.096 155.272 109 155.736 108.792C156.184 108.6 156.424 108.44 156.92 107.96ZM164.785 109V103.512C164.785 101.56 163.585 100.568 161.185 100.568C160.401 100.568 159.825 100.664 159.345 100.872C158.929 101.064 158.705 101.24 158.225 101.72L159.553 103.016C160.049 102.472 160.385 102.328 161.121 102.328C162.241 102.328 162.705 102.712 162.705 103.64V104.056H160.737C158.977 104.056 157.889 104.984 157.889 106.488C157.889 108.12 158.929 109.08 160.705 109.08C161.185 109.08 161.569 109.016 161.889 108.888C162.209 108.76 162.385 108.632 162.753 108.28V109H164.785ZM162.705 105.48V105.928C162.705 106.968 162.273 107.384 161.201 107.384C160.321 107.384 159.889 107.064 159.889 106.424C159.889 105.816 160.321 105.48 161.057 105.48H162.705ZM169.043 101.448V100.664H167.027V112.056H169.107V108.264C169.459 108.616 169.619 108.744 169.923 108.872C170.259 109.016 170.659 109.096 171.091 109.096C171.923 109.096 172.675 108.824 173.155 108.344C173.779 107.72 174.003 106.808 174.003 104.856C174.003 103.752 173.971 103.336 173.859 102.728C173.747 102.168 173.491 101.656 173.155 101.32C172.675 100.84 171.923 100.568 171.091 100.568C170.643 100.568 170.243 100.648 169.907 100.792C169.587 100.936 169.411 101.08 169.043 101.448ZM171.923 104.808C171.923 106.584 171.555 107.224 170.515 107.224C169.507 107.224 169.107 106.584 169.107 104.952C169.107 104.056 169.171 103.544 169.315 103.176C169.523 102.68 169.907 102.44 170.515 102.44C171.555 102.44 171.923 103.064 171.923 104.808ZM178.317 98.28C178.317 97.592 177.725 97.016 177.021 97.016C176.301 97.016 175.709 97.592 175.709 98.312C175.709 99.032 176.301 99.624 177.021 99.624C177.741 99.624 178.317 99.032 178.317 98.28ZM178.061 109V100.664H175.981V109H178.061ZM184.131 109V107.24H183.379C182.899 107.24 182.659 106.984 182.659 106.488V102.488H184.131V100.904H182.659V98.44H180.579V100.904H179.699V102.488H180.579V106.616C180.579 108.056 181.539 109 182.995 109H184.131ZM192.316 109V103.512C192.316 101.56 191.116 100.568 188.716 100.568C187.932 100.568 187.356 100.664 186.876 100.872C186.46 101.064 186.236 101.24 185.756 101.72L187.084 103.016C187.58 102.472 187.916 102.328 188.652 102.328C189.772 102.328 190.236 102.712 190.236 103.64V104.056H188.268C186.508 104.056 185.42 104.984 185.42 106.488C185.42 108.12 186.46 109.08 188.236 109.08C188.716 109.08 189.1 109.016 189.42 108.888C189.74 108.76 189.916 108.632 190.284 108.28V109H192.316ZM190.236 105.48V105.928C190.236 106.968 189.804 107.384 188.732 107.384C187.852 107.384 187.42 107.064 187.42 106.424C187.42 105.816 187.852 105.48 188.588 105.48H190.236ZM194.559 97.608V109H196.639V97.608H194.559ZM201.429 107.64C201.429 106.904 200.773 106.264 200.021 106.264C199.253 106.264 198.629 106.888 198.629 107.656C198.629 108.424 199.253 109.048 200.021 109.048C200.805 109.048 201.429 108.424 201.429 107.64ZM209.498 107.96L208.09 106.568C207.594 107.064 207.29 107.224 206.746 107.224C205.658 107.224 205.098 106.424 205.098 104.824C205.098 103.256 205.658 102.44 206.746 102.44C207.274 102.44 207.61 102.6 208.09 103.096L209.498 101.688C209.002 101.208 208.762 101.048 208.314 100.856C207.866 100.664 207.338 100.568 206.762 100.568C204.41 100.568 203.018 102.136 203.018 104.76C203.018 107.528 204.378 109.096 206.762 109.096C207.338 109.096 207.85 109 208.314 108.792C208.762 108.6 209.002 108.44 209.498 107.96ZM217.544 104.792C217.544 103.176 217.288 102.312 216.6 101.592C215.96 100.92 215.064 100.568 214.008 100.568C212.952 100.568 212.072 100.92 211.432 101.592C210.744 102.328 210.488 103.176 210.488 104.824C210.488 106.488 210.728 107.336 211.432 108.072C212.072 108.744 212.952 109.096 214.008 109.096C215.064 109.096 215.96 108.744 216.6 108.072C217.304 107.336 217.544 106.488 217.544 104.792ZM215.464 104.824C215.464 105.912 215.4 107.224 214.008 107.224C213 107.224 212.568 106.552 212.568 104.952C212.568 103.88 212.584 102.44 214.008 102.44C215.384 102.44 215.464 103.752 215.464 104.824ZM231.303 109V103.672C231.303 101.768 230.151 100.568 228.311 100.568C227.815 100.568 227.367 100.648 226.967 100.824C226.551 101 226.327 101.16 225.847 101.624C225.495 101.192 225.319 101.032 224.967 100.856C224.567 100.664 224.135 100.568 223.671 100.568C223.255 100.568 222.855 100.648 222.487 100.808C222.119 100.952 221.943 101.08 221.559 101.432V100.664H219.527V109H221.607V103.96C221.607 103.016 222.135 102.44 222.999 102.44C223.847 102.44 224.375 103.016 224.375 103.96V109H226.455V103.912C226.455 103.016 226.999 102.44 227.847 102.44C228.695 102.44 229.223 103.016 229.223 103.96V109H231.303ZM238.887 96.424H236.935L232.375 110.184H234.327L238.887 96.424Z" fill="#277D59"/>
<path d="M0 111H238.823V111.8H0V111Z" fill="#277D59"/>
</svg>
