<svg width="16" height="16" viewBox="0 0 16 16" fill="none" xmlns="http://www.w3.org/2000/svg">
<path d="M14.2929 15.7071C14.6834 16.0976 15.3166 16.0976 15.7071 15.7071C16.0976 15.3166 16.0976 14.6834 15.7071 14.2929L14.2929 15.7071ZM7.22222 12.4444C4.33807 12.4444 2 10.1064 2 7.22222H0C0 11.2109 3.2335 14.4444 7.22222 14.4444V12.4444ZM2 7.22222C2 4.33807 4.33807 2 7.22222 2V0C3.2335 0 0 3.2335 0 7.22222H2ZM7.22222 2C10.1064 2 12.4444 4.33807 12.4444 7.22222H14.4444C14.4444 3.2335 11.2109 0 7.22222 0V2ZM10.9149 12.3291L14.2929 15.7071L15.7071 14.2929L12.3291 10.9149L10.9149 12.3291ZM12.4444 7.22222C12.4444 8.66458 11.861 9.96876 10.9149 10.9149L12.3291 12.3291C13.635 11.0232 14.4444 9.21631 14.4444 7.22222H12.4444ZM10.9149 10.9149C9.96876 11.861 8.66458 12.4444 7.22222 12.4444V14.4444C9.21631 14.4444 11.0232 13.635 12.3291 12.3291L10.9149 10.9149Z" fill="#3D3D3D"/>
</svg>
