<svg width="50" height="50" viewBox="0 0 50 50" fill="none" xmlns="http://www.w3.org/2000/svg">
<rect width="50" height="50" fill="#2E6FC3"/>
<path fill-rule="evenodd" clip-rule="evenodd" d="M25.847 40.0741C26.4845 40.1662 27.1355 40.2602 27.806 40.36C27.806 40.057 27.8103 39.7848 27.8142 39.5335C27.8223 39.0143 27.829 38.5847 27.794 38.1588C27.7391 37.4709 27.9498 37.2203 28.6941 37.2374C30.2521 37.2726 31.8113 37.2661 33.3706 37.2596C33.9857 37.257 34.6008 37.2545 35.2159 37.2545C35.6318 37.2545 36.0477 37.2565 36.4635 37.2585C37.4338 37.2632 38.404 37.2679 39.3738 37.2471C40.6201 37.2203 40.9625 36.8544 40.9956 35.6385C41.0011 35.4433 41.0002 35.248 40.9993 35.0528C40.999 34.9796 40.9987 34.9064 40.9987 34.8331C40.9971 31.3376 40.9955 27.8423 40.9938 24.347C40.9921 20.8605 40.9904 17.374 40.9889 13.8873C40.9881 12.403 40.6306 12.0512 39.1142 12.0505C38.3352 12.0501 37.5562 12.0493 36.7772 12.0485C34.0507 12.0455 31.3242 12.0425 28.5978 12.0616C27.9987 12.0654 27.7594 11.9003 27.797 11.2912C27.8257 10.8248 27.8199 10.3563 27.8133 9.81709C27.8101 9.56284 27.8068 9.29287 27.8068 9C23.9034 9.44583 20.0953 10.1271 16.3146 10.8034C13.871 11.2406 11.4389 11.6756 9 12.0438V37.2195C9.11236 37.2441 9.21928 37.2688 9.32275 37.2927C9.52976 37.3405 9.72295 37.3851 9.91814 37.4188C10.889 37.5865 11.8598 37.7547 12.8306 37.923C15.8346 38.4437 18.8388 38.9644 21.8464 39.4669C23.1557 39.6855 24.4696 39.8752 25.847 40.0741ZM34.8758 30.0033C32.8417 30.0076 30.8243 30.0118 28.8077 29.9852C28.08 29.9756 27.7105 30.0812 27.7707 30.9267C27.7747 30.9838 27.7784 31.0378 27.7818 31.089C27.8427 31.9894 27.8432 31.9961 28.8544 31.9968C30.0912 31.998 31.3281 31.9978 32.5649 31.9976C33.8018 31.9974 35.0387 31.9972 36.2755 31.9983C37.375 31.9991 37.4224 32.066 37.1312 33.238H36.2732C35.7133 33.238 35.1532 33.2374 34.5932 33.2369C32.598 33.2348 30.6027 33.2328 28.6083 33.2566C28.3374 33.2596 27.852 33.496 27.8362 33.6582C27.778 34.2812 27.7859 34.9101 27.7938 35.5404C27.7965 35.7586 27.7993 35.9771 27.7993 36.1955C27.8922 36.2109 27.9687 36.2259 28.0346 36.2389C28.1536 36.2622 28.2383 36.2788 28.3231 36.2788C29.5799 36.2808 30.8368 36.2814 32.0936 36.282C34.5334 36.283 36.9732 36.2841 39.413 36.2959C40.083 36.2994 40.0789 35.9075 40.0745 35.4804C40.0741 35.4455 40.0737 35.4104 40.0737 35.3753C40.0734 33.9678 40.0728 32.5604 40.0721 31.1529C40.0693 25.4153 40.0666 19.6777 40.0895 13.9401C40.0926 13.1697 39.8134 12.9919 39.0999 12.9972C36.7708 13.0147 34.4417 13.0133 32.1124 13.0119C30.9893 13.0112 29.8662 13.0106 28.743 13.012C28.5489 13.0125 28.3547 13.0312 28.1365 13.0522C28.0274 13.0627 27.9122 13.0737 27.788 13.0834C27.788 13.2798 27.7879 13.4683 27.7878 13.6516C27.7876 14.0032 27.7875 14.3357 27.788 14.6682C27.7902 15.739 27.7902 15.7412 28.8378 15.742C29.8798 15.7426 30.9217 15.7426 31.9637 15.7426C33.4225 15.7425 34.8814 15.7425 36.3402 15.7442C36.5336 15.7442 36.7273 15.7552 36.9223 15.7663C37.0187 15.7717 37.1154 15.7772 37.2125 15.7814V16.9564H36.274C35.5461 16.9564 34.818 16.9595 34.0899 16.9625C32.2625 16.9703 30.435 16.978 28.609 16.937C27.7958 16.9189 27.7903 17.3182 27.7837 17.799C27.7828 17.8695 27.7818 17.9417 27.7782 18.0146C27.7473 18.6423 27.8362 18.9992 28.6354 18.9843C30.4772 18.9495 32.3198 18.9556 34.1624 18.9617C34.8751 18.9641 35.5877 18.9665 36.3003 18.9665H37.1997V20.2069H36.1626C35.4331 20.2069 34.7035 20.2096 33.9739 20.2122C32.1754 20.2188 30.3768 20.2254 28.5789 20.192C27.7865 20.1772 27.787 20.5826 27.7875 21.0323C27.7876 21.1233 27.7877 21.216 27.7812 21.3075C27.7383 21.9039 27.8294 22.2363 28.5902 22.2222C30.4575 22.1883 32.3256 22.1941 34.194 22.1999C34.9084 22.2021 35.6228 22.2044 36.3372 22.2044H37.1846C37.3622 23.4396 37.3299 23.4835 36.2326 23.4849C35.2132 23.4862 34.1937 23.4861 33.1744 23.4861C31.7473 23.486 30.3203 23.4859 28.8935 23.4894C28.6649 23.4899 28.4363 23.5102 28.1853 23.5325C28.0594 23.5437 27.9279 23.5553 27.788 23.5653C27.788 23.6771 27.7918 23.7814 27.7955 23.8802C27.8029 24.0811 27.8095 24.2594 27.7812 24.4324C27.6442 25.269 28.0047 25.4683 28.816 25.4475C30.3739 25.4075 31.9329 25.4149 33.4917 25.4223C34.1076 25.4252 34.7235 25.4281 35.3393 25.4281H37.1681C37.3788 26.6447 37.3336 26.7072 36.2507 26.7087C35.1753 26.7103 34.1001 26.7102 33.025 26.7101C31.681 26.71 30.337 26.7099 28.9929 26.7132C28.74 26.7137 28.4871 26.7326 28.2228 26.7524C28.0969 26.7618 27.9684 26.7714 27.8362 26.7793V28.6504C27.9729 28.6582 28.1048 28.6676 28.2337 28.6768C28.4991 28.6958 28.7511 28.7138 29.0034 28.7143C30.3475 28.7176 31.6914 28.7175 33.0353 28.7174C34.1105 28.7173 35.1858 28.7171 36.2612 28.7188C37.3389 28.721 37.3908 28.7939 37.162 30.0001C36.3971 30.0001 35.6353 30.0017 34.8758 30.0033ZM20.4086 24.1322C20.2987 24.7408 20.186 25.3652 20.0697 26.0125C20.0309 25.8781 20.0009 25.7787 19.9774 25.7006C19.9401 25.5772 19.9189 25.5069 19.9042 25.4354C19.8062 24.9619 19.7092 24.4882 19.6122 24.0145C19.3328 22.6504 19.0534 21.2861 18.7512 19.9271C18.7008 19.6996 18.4577 19.379 18.2568 19.3404C16.8578 19.0704 16.3912 19.3984 16.0977 20.7578C16.089 20.7971 16.0838 20.8371 16.0785 20.877C16.0732 20.9172 16.068 20.9573 16.0593 20.9965C15.8216 22.0642 15.5832 23.1315 15.3448 24.1988C15.2375 24.6791 15.1302 25.1595 15.023 25.6399C14.7217 24.3858 14.4973 23.1385 14.274 21.897C14.185 21.4018 14.096 20.9076 14.0025 20.4142C13.9453 20.1123 13.6796 19.6579 13.4501 19.6185C13.0984 19.5581 12.7272 19.6055 12.3239 19.657C12.1506 19.6791 11.9715 19.702 11.7854 19.7174C11.9604 20.579 12.1336 21.4279 12.3049 22.268C12.692 24.1661 13.0699 26.0196 13.4403 27.8738C13.5998 28.6724 13.6771 29.0686 13.9177 29.2664C14.1607 29.4662 14.5705 29.4634 15.4 29.4682C15.905 29.4719 16.0585 29.257 16.1398 28.8354C16.3024 27.9943 16.486 27.1569 16.6704 26.3196C16.8149 25.6642 16.9634 25.0101 17.1119 24.356C17.1861 24.029 17.2604 23.7019 17.3341 23.3747C17.8557 25.2576 18.2861 27.1086 18.6414 28.9737C18.743 29.5099 18.98 29.7144 19.4805 29.7337L19.4818 29.7338C19.7794 29.7449 20.0777 29.7561 20.3745 29.785C20.9743 29.8438 21.2633 29.5701 21.377 28.9953C21.4714 28.5174 21.5902 28.0447 21.709 27.572C21.7861 27.2648 21.8633 26.9577 21.9339 26.649C22.3516 24.8247 22.7658 22.9996 23.1889 21.1351C23.3458 20.4435 23.504 19.7465 23.664 19.0422C23.514 19.0422 23.3739 19.0415 23.2406 19.0408C22.9642 19.0394 22.7167 19.0381 22.4689 19.0436C21.3098 19.0687 21.3091 19.0726 21.118 20.1638L21.1128 20.1933C20.8874 21.4803 20.6552 22.7666 20.4086 24.1322Z" fill="white"/>
</svg>
